solid OpenSCAD_Model
  facet normal -0.866026 0.5 0
    outer loop
      vertex -17.5401 7.80934 -35
      vertex -15.5331 11.2855 35
      vertex -15.5331 11.2855 -35
    endloop
  endfacet
  facet normal -0.866025 0.5 -2.35973e-08
    outer loop
      vertex -15.5331 11.2855 35
      vertex -17.5401 7.80934 -35
      vertex -17.5401 7.80934 35
    endloop
  endfacet
  facet normal -0.743145 0.669131 0
    outer loop
      vertex -15.5331 11.2855 -35
      vertex -12.8473 14.2684 35
      vertex -12.8473 14.2684 -35
    endloop
  endfacet
  facet normal -0.743145 0.669131 0
    outer loop
      vertex -12.8473 14.2684 35
      vertex -15.5331 11.2855 -35
      vertex -15.5331 11.2855 35
    endloop
  endfacet
  facet normal -0.207912 0.978148 0
    outer loop
      vertex -2.00695 19.0948 -35
      vertex -5.93313 18.2603 35
      vertex -2.00695 19.0948 35
    endloop
  endfacet
  facet normal -0.207912 0.978148 0
    outer loop
      vertex -5.93313 18.2603 35
      vertex -2.00695 19.0948 -35
      vertex -5.93313 18.2603 -35
    endloop
  endfacet
  facet normal -0.406737 0.913546 0
    outer loop
      vertex -5.93313 18.2603 -35
      vertex -9.6 16.6277 35
      vertex -5.93313 18.2603 35
    endloop
  endfacet
  facet normal -0.406737 0.913546 0
    outer loop
      vertex -9.6 16.6277 35
      vertex -5.93313 18.2603 -35
      vertex -9.6 16.6277 -35
    endloop
  endfacet
  facet normal 0.406737 0.913546 -0
    outer loop
      vertex 9.6 16.6277 -35
      vertex 5.93313 18.2603 35
      vertex 9.6 16.6277 35
    endloop
  endfacet
  facet normal 0.406737 0.913546 0
    outer loop
      vertex 5.93313 18.2603 35
      vertex 9.6 16.6277 -35
      vertex 5.93313 18.2603 -35
    endloop
  endfacet
  facet normal -0.994522 -0.104528 -2.70986e-08
    outer loop
      vertex -18.7804 -3.9919 -35
      vertex -19.2 0 35
      vertex -19.2 0 -35
    endloop
  endfacet
  facet normal -0.994522 -0.104529 0
    outer loop
      vertex -19.2 0 35
      vertex -18.7804 -3.9919 -35
      vertex -18.7804 -3.9919 35
    endloop
  endfacet
  facet normal -0.207912 -0.978148 0
    outer loop
      vertex -5.93313 -18.2603 -35
      vertex -2.00695 -19.0948 35
      vertex -5.93313 -18.2603 35
    endloop
  endfacet
  facet normal -0.207912 -0.978148 -0
    outer loop
      vertex -2.00695 -19.0948 35
      vertex -5.93313 -18.2603 -35
      vertex -2.00695 -19.0948 -35
    endloop
  endfacet
  facet normal -0.951056 0.309017 -2.59142e-08
    outer loop
      vertex -18.7804 3.9919 -35
      vertex -17.5401 7.80934 35
      vertex -17.5401 7.80934 -35
    endloop
  endfacet
  facet normal -0.951057 0.309017 0
    outer loop
      vertex -17.5401 7.80934 35
      vertex -18.7804 3.9919 -35
      vertex -18.7804 3.9919 35
    endloop
  endfacet
  facet normal 0 1 -0
    outer loop
      vertex 2.00695 19.0948 -35
      vertex -2.00695 19.0948 35
      vertex 2.00695 19.0948 35
    endloop
  endfacet
  facet normal 0 1 0
    outer loop
      vertex -2.00695 19.0948 35
      vertex 2.00695 19.0948 -35
      vertex -2.00695 19.0948 -35
    endloop
  endfacet
  facet normal -0.587785 0.809017 0
    outer loop
      vertex -9.6 16.6277 -35
      vertex -12.8473 14.2684 35
      vertex -9.6 16.6277 35
    endloop
  endfacet
  facet normal -0.587785 0.809017 0
    outer loop
      vertex -12.8473 14.2684 35
      vertex -9.6 16.6277 -35
      vertex -12.8473 14.2684 -35
    endloop
  endfacet
  facet normal 0.994522 0.104528 0
    outer loop
      vertex 19.2 0 35
      vertex 18.7804 3.9919 -35
      vertex 18.7804 3.9919 35
    endloop
  endfacet
  facet normal 0.994522 0.104529 2.70986e-08
    outer loop
      vertex 18.7804 3.9919 -35
      vertex 19.2 0 35
      vertex 19.2 0 -35
    endloop
  endfacet
  facet normal 0.866026 0.5 0
    outer loop
      vertex 17.5401 7.80934 35
      vertex 15.5331 11.2855 -35
      vertex 15.5331 11.2855 35
    endloop
  endfacet
  facet normal 0.866025 0.5 2.35973e-08
    outer loop
      vertex 15.5331 11.2855 -35
      vertex 17.5401 7.80934 35
      vertex 17.5401 7.80934 -35
    endloop
  endfacet
  facet normal 0.587785 0.809017 -0
    outer loop
      vertex 12.8473 14.2684 -35
      vertex 9.6 16.6277 35
      vertex 12.8473 14.2684 35
    endloop
  endfacet
  facet normal 0.587785 0.809017 0
    outer loop
      vertex 9.6 16.6277 35
      vertex 12.8473 14.2684 -35
      vertex 9.6 16.6277 -35
    endloop
  endfacet
  facet normal 0.207912 0.978148 -0
    outer loop
      vertex 5.93313 18.2603 -35
      vertex 2.00695 19.0948 35
      vertex 5.93313 18.2603 35
    endloop
  endfacet
  facet normal 0.207912 0.978148 0
    outer loop
      vertex 2.00695 19.0948 35
      vertex 5.93313 18.2603 -35
      vertex 2.00695 19.0948 -35
    endloop
  endfacet
  facet normal 0.743145 0.669131 0
    outer loop
      vertex 15.5331 11.2855 35
      vertex 12.8473 14.2684 -35
      vertex 12.8473 14.2684 35
    endloop
  endfacet
  facet normal 0.743145 0.669131 0
    outer loop
      vertex 12.8473 14.2684 -35
      vertex 15.5331 11.2855 35
      vertex 15.5331 11.2855 -35
    endloop
  endfacet
  facet normal -0.994522 0.104528 0
    outer loop
      vertex -19.2 0 -35
      vertex -18.7804 3.9919 35
      vertex -18.7804 3.9919 -35
    endloop
  endfacet
  facet normal -0.994522 0.104529 -2.70986e-08
    outer loop
      vertex -18.7804 3.9919 35
      vertex -19.2 0 -35
      vertex -19.2 0 35
    endloop
  endfacet
  facet normal -0.951056 -0.309017 0
    outer loop
      vertex -17.5401 -7.80934 -35
      vertex -18.7804 -3.9919 35
      vertex -18.7804 -3.9919 -35
    endloop
  endfacet
  facet normal -0.951057 -0.309017 -2.59142e-08
    outer loop
      vertex -18.7804 -3.9919 35
      vertex -17.5401 -7.80934 -35
      vertex -17.5401 -7.80934 35
    endloop
  endfacet
  facet normal 0.866026 -0.5 2.35973e-08
    outer loop
      vertex 15.5331 -11.2855 35
      vertex 17.5401 -7.80934 -35
      vertex 17.5401 -7.80934 35
    endloop
  endfacet
  facet normal 0.866025 -0.5 0
    outer loop
      vertex 17.5401 -7.80934 -35
      vertex 15.5331 -11.2855 35
      vertex 15.5331 -11.2855 -35
    endloop
  endfacet
  facet normal -0.587785 -0.809017 0
    outer loop
      vertex -12.8473 -14.2684 -35
      vertex -9.6 -16.6277 35
      vertex -12.8473 -14.2684 35
    endloop
  endfacet
  facet normal -0.587785 -0.809017 -0
    outer loop
      vertex -9.6 -16.6277 35
      vertex -12.8473 -14.2684 -35
      vertex -9.6 -16.6277 -35
    endloop
  endfacet
  facet normal 0 0 -1
    outer loop
      vertex 16.2 0 -35
      vertex 19.2 0 -35
      vertex 18.7804 -3.9919 -35
    endloop
  endfacet
  facet normal 0 0 -1
    outer loop
      vertex 15.846 -3.36817 -35
      vertex 18.7804 -3.9919 -35
      vertex 17.5401 -7.80934 -35
    endloop
  endfacet
  facet normal 0 0 -1
    outer loop
      vertex 19.2 0 -35
      vertex 16.2 0 -35
      vertex 18.7804 3.9919 -35
    endloop
  endfacet
  facet normal 0 0 -1
    outer loop
      vertex 15.846 3.36817 -35
      vertex 18.7804 3.9919 -35
      vertex 16.2 0 -35
    endloop
  endfacet
  facet normal 0 0 -1
    outer loop
      vertex 18.7804 -3.9919 -35
      vertex 15.846 -3.36817 -35
      vertex 16.2 0 -35
    endloop
  endfacet
  facet normal 0 0 -1
    outer loop
      vertex 14.7994 -6.58913 -35
      vertex 17.5401 -7.80934 -35
      vertex 15.5331 -11.2855 -35
    endloop
  endfacet
  facet normal 0 0 -1
    outer loop
      vertex 17.5401 -7.80934 -35
      vertex 14.7994 -6.58913 -35
      vertex 15.846 -3.36817 -35
    endloop
  endfacet
  facet normal 0 0 -1
    outer loop
      vertex 15.5331 -11.2855 -35
      vertex 13.1061 -9.52212 -35
      vertex 14.7994 -6.58913 -35
    endloop
  endfacet
  facet normal 0 0 -1
    outer loop
      vertex 12.8473 -14.2684 -35
      vertex 13.1061 -9.52212 -35
      vertex 15.5331 -11.2855 -35
    endloop
  endfacet
  facet normal 0 0 -1
    outer loop
      vertex 12.8473 -14.2684 -35
      vertex 10.8399 -12.0389 -35
      vertex 13.1061 -9.52212 -35
    endloop
  endfacet
  facet normal 0 0 -1
    outer loop
      vertex 9.6 -16.6277 -35
      vertex 10.8399 -12.0389 -35
      vertex 12.8473 -14.2684 -35
    endloop
  endfacet
  facet normal 0 0 -1
    outer loop
      vertex 9.6 -16.6277 -35
      vertex 8.1 -14.0296 -35
      vertex 10.8399 -12.0389 -35
    endloop
  endfacet
  facet normal 0 0 -1
    outer loop
      vertex 5.93313 -18.2603 -35
      vertex 8.1 -14.0296 -35
      vertex 9.6 -16.6277 -35
    endloop
  endfacet
  facet normal 0 0 -1
    outer loop
      vertex 5.93313 -18.2603 -35
      vertex 5.00607 -15.4071 -35
      vertex 8.1 -14.0296 -35
    endloop
  endfacet
  facet normal 0 0 -1
    outer loop
      vertex 2.00695 -19.0948 -35
      vertex 5.00607 -15.4071 -35
      vertex 5.93313 -18.2603 -35
    endloop
  endfacet
  facet normal 0 0 -1
    outer loop
      vertex 2.00695 -19.0948 -35
      vertex 1.69336 -16.1113 -35
      vertex 5.00607 -15.4071 -35
    endloop
  endfacet
  facet normal 0 0 -1
    outer loop
      vertex 2.00695 -19.0948 -35
      vertex -1.69336 -16.1113 -35
      vertex 1.69336 -16.1113 -35
    endloop
  endfacet
  facet normal 0 0 -1
    outer loop
      vertex -2.00695 -19.0948 -35
      vertex -1.69336 -16.1113 -35
      vertex 2.00695 -19.0948 -35
    endloop
  endfacet
  facet normal 0 0 -1
    outer loop
      vertex -2.00695 -19.0948 -35
      vertex -5.00607 -15.4071 -35
      vertex -1.69336 -16.1113 -35
    endloop
  endfacet
  facet normal 0 0 -1
    outer loop
      vertex -5.93313 -18.2603 -35
      vertex -5.00607 -15.4071 -35
      vertex -2.00695 -19.0948 -35
    endloop
  endfacet
  facet normal 0 0 -1
    outer loop
      vertex -5.93313 -18.2603 -35
      vertex -8.1 -14.0296 -35
      vertex -5.00607 -15.4071 -35
    endloop
  endfacet
  facet normal 0 0 -1
    outer loop
      vertex -9.6 -16.6277 -35
      vertex -8.1 -14.0296 -35
      vertex -5.93313 -18.2603 -35
    endloop
  endfacet
  facet normal 0 0 -1
    outer loop
      vertex -9.6 -16.6277 -35
      vertex -10.8399 -12.0389 -35
      vertex -8.1 -14.0296 -35
    endloop
  endfacet
  facet normal 0 0 -1
    outer loop
      vertex -12.8473 -14.2684 -35
      vertex -10.8399 -12.0389 -35
      vertex -9.6 -16.6277 -35
    endloop
  endfacet
  facet normal 0 0 -1
    outer loop
      vertex -12.8473 -14.2684 -35
      vertex -13.1061 -9.52212 -35
      vertex -10.8399 -12.0389 -35
    endloop
  endfacet
  facet normal 0 0 -1
    outer loop
      vertex -15.5331 -11.2855 -35
      vertex -13.1061 -9.52212 -35
      vertex -12.8473 -14.2684 -35
    endloop
  endfacet
  facet normal -0 0 -1
    outer loop
      vertex -13.1061 -9.52212 -35
      vertex -15.5331 -11.2855 -35
      vertex -14.7994 -6.58913 -35
    endloop
  endfacet
  facet normal 0 0 -1
    outer loop
      vertex -17.5401 -7.80934 -35
      vertex -14.7994 -6.58913 -35
      vertex -15.5331 -11.2855 -35
    endloop
  endfacet
  facet normal -0 0 -1
    outer loop
      vertex -14.7994 -6.58913 -35
      vertex -17.5401 -7.80934 -35
      vertex -15.846 -3.36817 -35
    endloop
  endfacet
  facet normal 0 0 -1
    outer loop
      vertex -18.7804 -3.9919 -35
      vertex -15.846 -3.36817 -35
      vertex -17.5401 -7.80934 -35
    endloop
  endfacet
  facet normal -0 0 -1
    outer loop
      vertex 18.7804 3.9919 -35
      vertex 15.846 3.36817 -35
      vertex 17.5401 7.80934 -35
    endloop
  endfacet
  facet normal 0 0 -1
    outer loop
      vertex 14.7994 6.58913 -35
      vertex 17.5401 7.80934 -35
      vertex 15.846 3.36817 -35
    endloop
  endfacet
  facet normal -0 0 -1
    outer loop
      vertex 17.5401 7.80934 -35
      vertex 14.7994 6.58913 -35
      vertex 15.5331 11.2855 -35
    endloop
  endfacet
  facet normal 0 0 -1
    outer loop
      vertex 13.1061 9.52212 -35
      vertex 15.5331 11.2855 -35
      vertex 14.7994 6.58913 -35
    endloop
  endfacet
  facet normal 0 0 -1
    outer loop
      vertex 13.1061 9.52212 -35
      vertex 12.8473 14.2684 -35
      vertex 15.5331 11.2855 -35
    endloop
  endfacet
  facet normal 0 0 -1
    outer loop
      vertex 10.8399 12.0389 -35
      vertex 12.8473 14.2684 -35
      vertex 13.1061 9.52212 -35
    endloop
  endfacet
  facet normal 0 0 -1
    outer loop
      vertex 10.8399 12.0389 -35
      vertex 9.6 16.6277 -35
      vertex 12.8473 14.2684 -35
    endloop
  endfacet
  facet normal 0 0 -1
    outer loop
      vertex 8.1 14.0296 -35
      vertex 9.6 16.6277 -35
      vertex 10.8399 12.0389 -35
    endloop
  endfacet
  facet normal 0 0 -1
    outer loop
      vertex 8.1 14.0296 -35
      vertex 5.93313 18.2603 -35
      vertex 9.6 16.6277 -35
    endloop
  endfacet
  facet normal 0 0 -1
    outer loop
      vertex 5.00607 15.4071 -35
      vertex 5.93313 18.2603 -35
      vertex 8.1 14.0296 -35
    endloop
  endfacet
  facet normal 0 0 -1
    outer loop
      vertex 5.00607 15.4071 -35
      vertex 2.00695 19.0948 -35
      vertex 5.93313 18.2603 -35
    endloop
  endfacet
  facet normal 0 0 -1
    outer loop
      vertex 1.69336 16.1113 -35
      vertex 2.00695 19.0948 -35
      vertex 5.00607 15.4071 -35
    endloop
  endfacet
  facet normal 0 0 -1
    outer loop
      vertex -1.69336 16.1113 -35
      vertex 2.00695 19.0948 -35
      vertex 1.69336 16.1113 -35
    endloop
  endfacet
  facet normal 0 0 -1
    outer loop
      vertex -1.69336 16.1113 -35
      vertex -2.00695 19.0948 -35
      vertex 2.00695 19.0948 -35
    endloop
  endfacet
  facet normal 0 0 -1
    outer loop
      vertex -5.00607 15.4071 -35
      vertex -2.00695 19.0948 -35
      vertex -1.69336 16.1113 -35
    endloop
  endfacet
  facet normal 0 0 -1
    outer loop
      vertex -5.00607 15.4071 -35
      vertex -5.93313 18.2603 -35
      vertex -2.00695 19.0948 -35
    endloop
  endfacet
  facet normal 0 0 -1
    outer loop
      vertex -8.1 14.0296 -35
      vertex -5.93313 18.2603 -35
      vertex -5.00607 15.4071 -35
    endloop
  endfacet
  facet normal 0 0 -1
    outer loop
      vertex -8.1 14.0296 -35
      vertex -9.6 16.6277 -35
      vertex -5.93313 18.2603 -35
    endloop
  endfacet
  facet normal 0 0 -1
    outer loop
      vertex -10.8399 12.0389 -35
      vertex -9.6 16.6277 -35
      vertex -8.1 14.0296 -35
    endloop
  endfacet
  facet normal 0 0 -1
    outer loop
      vertex -10.8399 12.0389 -35
      vertex -12.8473 14.2684 -35
      vertex -9.6 16.6277 -35
    endloop
  endfacet
  facet normal 0 0 -1
    outer loop
      vertex -13.1061 9.52212 -35
      vertex -12.8473 14.2684 -35
      vertex -10.8399 12.0389 -35
    endloop
  endfacet
  facet normal 0 0 -1
    outer loop
      vertex -15.5331 11.2855 -35
      vertex -13.1061 9.52212 -35
      vertex -14.7994 6.58913 -35
    endloop
  endfacet
  facet normal 0 0 -1
    outer loop
      vertex -13.1061 9.52212 -35
      vertex -15.5331 11.2855 -35
      vertex -12.8473 14.2684 -35
    endloop
  endfacet
  facet normal 0 0 -1
    outer loop
      vertex -17.5401 7.80934 -35
      vertex -14.7994 6.58913 -35
      vertex -15.846 3.36817 -35
    endloop
  endfacet
  facet normal 0 0 -1
    outer loop
      vertex -18.7804 3.9919 -35
      vertex -15.846 3.36817 -35
      vertex -16.2 0 -35
    endloop
  endfacet
  facet normal -0 0 -1
    outer loop
      vertex -15.846 -3.36817 -35
      vertex -18.7804 -3.9919 -35
      vertex -16.2 0 -35
    endloop
  endfacet
  facet normal 0 0 -1
    outer loop
      vertex -14.7994 6.58913 -35
      vertex -17.5401 7.80934 -35
      vertex -15.5331 11.2855 -35
    endloop
  endfacet
  facet normal 0 0 -1
    outer loop
      vertex -19.2 0 -35
      vertex -16.2 0 -35
      vertex -18.7804 -3.9919 -35
    endloop
  endfacet
  facet normal 0 0 -1
    outer loop
      vertex -15.846 3.36817 -35
      vertex -18.7804 3.9919 -35
      vertex -17.5401 7.80934 -35
    endloop
  endfacet
  facet normal 0 0 -1
    outer loop
      vertex -16.2 0 -35
      vertex -19.2 0 -35
      vertex -18.7804 3.9919 -35
    endloop
  endfacet
  facet normal 0.951056 0.309017 2.59142e-08
    outer loop
      vertex 18.7804 3.9919 35
      vertex 17.5401 7.80934 -35
      vertex 17.5401 7.80934 35
    endloop
  endfacet
  facet normal 0.951057 0.309017 0
    outer loop
      vertex 17.5401 7.80934 -35
      vertex 18.7804 3.9919 35
      vertex 18.7804 3.9919 -35
    endloop
  endfacet
  facet normal -0.866026 -0.5 -2.35973e-08
    outer loop
      vertex -15.5331 -11.2855 -35
      vertex -17.5401 -7.80934 35
      vertex -17.5401 -7.80934 -35
    endloop
  endfacet
  facet normal -0.866025 -0.5 0
    outer loop
      vertex -17.5401 -7.80934 35
      vertex -15.5331 -11.2855 -35
      vertex -15.5331 -11.2855 35
    endloop
  endfacet
  facet normal 0.207912 -0.978148 0
    outer loop
      vertex 2.00695 -19.0948 -35
      vertex 5.93313 -18.2603 35
      vertex 2.00695 -19.0948 35
    endloop
  endfacet
  facet normal 0.207912 -0.978148 0
    outer loop
      vertex 5.93313 -18.2603 35
      vertex 2.00695 -19.0948 -35
      vertex 5.93313 -18.2603 -35
    endloop
  endfacet
  facet normal 0.994522 -0.104528 2.70986e-08
    outer loop
      vertex 18.7804 -3.9919 35
      vertex 19.2 0 -35
      vertex 19.2 0 35
    endloop
  endfacet
  facet normal 0.994522 -0.104529 0
    outer loop
      vertex 19.2 0 -35
      vertex 18.7804 -3.9919 35
      vertex 18.7804 -3.9919 -35
    endloop
  endfacet
  facet normal -0.406737 -0.913546 0
    outer loop
      vertex -9.6 -16.6277 -35
      vertex -5.93313 -18.2603 35
      vertex -9.6 -16.6277 35
    endloop
  endfacet
  facet normal -0.406737 -0.913546 -0
    outer loop
      vertex -5.93313 -18.2603 35
      vertex -9.6 -16.6277 -35
      vertex -5.93313 -18.2603 -35
    endloop
  endfacet
  facet normal 0 -1 0
    outer loop
      vertex -2.00695 -19.0948 -35
      vertex 2.00695 -19.0948 35
      vertex -2.00695 -19.0948 35
    endloop
  endfacet
  facet normal 0 -1 -0
    outer loop
      vertex 2.00695 -19.0948 35
      vertex -2.00695 -19.0948 -35
      vertex 2.00695 -19.0948 -35
    endloop
  endfacet
  facet normal 0.587785 -0.809017 0
    outer loop
      vertex 9.6 -16.6277 -35
      vertex 12.8473 -14.2684 35
      vertex 9.6 -16.6277 35
    endloop
  endfacet
  facet normal 0.587785 -0.809017 0
    outer loop
      vertex 12.8473 -14.2684 35
      vertex 9.6 -16.6277 -35
      vertex 12.8473 -14.2684 -35
    endloop
  endfacet
  facet normal 0 0 1
    outer loop
      vertex 16.2 0 35
      vertex 19.2 0 35
      vertex 18.7804 3.9919 35
    endloop
  endfacet
  facet normal 0 0 1
    outer loop
      vertex 15.846 3.36817 35
      vertex 18.7804 3.9919 35
      vertex 17.5401 7.80934 35
    endloop
  endfacet
  facet normal 0 0 1
    outer loop
      vertex 19.2 0 35
      vertex 16.2 0 35
      vertex 18.7804 -3.9919 35
    endloop
  endfacet
  facet normal -0 0 1
    outer loop
      vertex 15.846 -3.36817 35
      vertex 18.7804 -3.9919 35
      vertex 16.2 0 35
    endloop
  endfacet
  facet normal 0 0 1
    outer loop
      vertex 18.7804 3.9919 35
      vertex 15.846 3.36817 35
      vertex 16.2 0 35
    endloop
  endfacet
  facet normal 0 0 1
    outer loop
      vertex 14.7994 6.58913 35
      vertex 17.5401 7.80934 35
      vertex 15.5331 11.2855 35
    endloop
  endfacet
  facet normal 0 0 1
    outer loop
      vertex 17.5401 7.80934 35
      vertex 14.7994 6.58913 35
      vertex 15.846 3.36817 35
    endloop
  endfacet
  facet normal 0 0 1
    outer loop
      vertex 15.5331 11.2855 35
      vertex 13.1061 9.52212 35
      vertex 14.7994 6.58913 35
    endloop
  endfacet
  facet normal 0 0 1
    outer loop
      vertex 12.8473 14.2684 35
      vertex 13.1061 9.52212 35
      vertex 15.5331 11.2855 35
    endloop
  endfacet
  facet normal 0 0 1
    outer loop
      vertex 12.8473 14.2684 35
      vertex 10.8399 12.0389 35
      vertex 13.1061 9.52212 35
    endloop
  endfacet
  facet normal 0 0 1
    outer loop
      vertex 9.6 16.6277 35
      vertex 10.8399 12.0389 35
      vertex 12.8473 14.2684 35
    endloop
  endfacet
  facet normal 0 0 1
    outer loop
      vertex 9.6 16.6277 35
      vertex 8.1 14.0296 35
      vertex 10.8399 12.0389 35
    endloop
  endfacet
  facet normal 0 0 1
    outer loop
      vertex 5.93313 18.2603 35
      vertex 8.1 14.0296 35
      vertex 9.6 16.6277 35
    endloop
  endfacet
  facet normal 0 0 1
    outer loop
      vertex 5.93313 18.2603 35
      vertex 5.00607 15.4071 35
      vertex 8.1 14.0296 35
    endloop
  endfacet
  facet normal 0 0 1
    outer loop
      vertex 2.00695 19.0948 35
      vertex 5.00607 15.4071 35
      vertex 5.93313 18.2603 35
    endloop
  endfacet
  facet normal 0 0 1
    outer loop
      vertex 2.00695 19.0948 35
      vertex 1.69336 16.1113 35
      vertex 5.00607 15.4071 35
    endloop
  endfacet
  facet normal 0 0 1
    outer loop
      vertex 2.00695 19.0948 35
      vertex -1.69336 16.1113 35
      vertex 1.69336 16.1113 35
    endloop
  endfacet
  facet normal -0 0 1
    outer loop
      vertex -2.00695 19.0948 35
      vertex -1.69336 16.1113 35
      vertex 2.00695 19.0948 35
    endloop
  endfacet
  facet normal 0 0 1
    outer loop
      vertex -2.00695 19.0948 35
      vertex -5.00607 15.4071 35
      vertex -1.69336 16.1113 35
    endloop
  endfacet
  facet normal -0 0 1
    outer loop
      vertex -5.93313 18.2603 35
      vertex -5.00607 15.4071 35
      vertex -2.00695 19.0948 35
    endloop
  endfacet
  facet normal 0 0 1
    outer loop
      vertex -5.93313 18.2603 35
      vertex -8.1 14.0296 35
      vertex -5.00607 15.4071 35
    endloop
  endfacet
  facet normal -0 0 1
    outer loop
      vertex -9.6 16.6277 35
      vertex -8.1 14.0296 35
      vertex -5.93313 18.2603 35
    endloop
  endfacet
  facet normal 0 0 1
    outer loop
      vertex -9.6 16.6277 35
      vertex -10.8399 12.0389 35
      vertex -8.1 14.0296 35
    endloop
  endfacet
  facet normal -0 0 1
    outer loop
      vertex -12.8473 14.2684 35
      vertex -10.8399 12.0389 35
      vertex -9.6 16.6277 35
    endloop
  endfacet
  facet normal 0 0 1
    outer loop
      vertex -12.8473 14.2684 35
      vertex -13.1061 9.52212 35
      vertex -10.8399 12.0389 35
    endloop
  endfacet
  facet normal -0 0 1
    outer loop
      vertex -15.5331 11.2855 35
      vertex -13.1061 9.52212 35
      vertex -12.8473 14.2684 35
    endloop
  endfacet
  facet normal 0 0 1
    outer loop
      vertex -13.1061 9.52212 35
      vertex -15.5331 11.2855 35
      vertex -14.7994 6.58913 35
    endloop
  endfacet
  facet normal -0 0 1
    outer loop
      vertex -17.5401 7.80934 35
      vertex -14.7994 6.58913 35
      vertex -15.5331 11.2855 35
    endloop
  endfacet
  facet normal 0 0 1
    outer loop
      vertex -14.7994 6.58913 35
      vertex -17.5401 7.80934 35
      vertex -15.846 3.36817 35
    endloop
  endfacet
  facet normal -0 0 1
    outer loop
      vertex -18.7804 3.9919 35
      vertex -15.846 3.36817 35
      vertex -17.5401 7.80934 35
    endloop
  endfacet
  facet normal 0 0 1
    outer loop
      vertex 18.7804 -3.9919 35
      vertex 15.846 -3.36817 35
      vertex 17.5401 -7.80934 35
    endloop
  endfacet
  facet normal -0 0 1
    outer loop
      vertex 14.7994 -6.58913 35
      vertex 17.5401 -7.80934 35
      vertex 15.846 -3.36817 35
    endloop
  endfacet
  facet normal 0 0 1
    outer loop
      vertex 17.5401 -7.80934 35
      vertex 14.7994 -6.58913 35
      vertex 15.5331 -11.2855 35
    endloop
  endfacet
  facet normal -0 0 1
    outer loop
      vertex 13.1061 -9.52212 35
      vertex 15.5331 -11.2855 35
      vertex 14.7994 -6.58913 35
    endloop
  endfacet
  facet normal 0 0 1
    outer loop
      vertex 13.1061 -9.52212 35
      vertex 12.8473 -14.2684 35
      vertex 15.5331 -11.2855 35
    endloop
  endfacet
  facet normal -0 0 1
    outer loop
      vertex 10.8399 -12.0389 35
      vertex 12.8473 -14.2684 35
      vertex 13.1061 -9.52212 35
    endloop
  endfacet
  facet normal 0 0 1
    outer loop
      vertex 10.8399 -12.0389 35
      vertex 9.6 -16.6277 35
      vertex 12.8473 -14.2684 35
    endloop
  endfacet
  facet normal -0 0 1
    outer loop
      vertex 8.1 -14.0296 35
      vertex 9.6 -16.6277 35
      vertex 10.8399 -12.0389 35
    endloop
  endfacet
  facet normal 0 0 1
    outer loop
      vertex 8.1 -14.0296 35
      vertex 5.93313 -18.2603 35
      vertex 9.6 -16.6277 35
    endloop
  endfacet
  facet normal -0 0 1
    outer loop
      vertex 5.00607 -15.4071 35
      vertex 5.93313 -18.2603 35
      vertex 8.1 -14.0296 35
    endloop
  endfacet
  facet normal 0 0 1
    outer loop
      vertex 5.00607 -15.4071 35
      vertex 2.00695 -19.0948 35
      vertex 5.93313 -18.2603 35
    endloop
  endfacet
  facet normal -0 0 1
    outer loop
      vertex 1.69336 -16.1113 35
      vertex 2.00695 -19.0948 35
      vertex 5.00607 -15.4071 35
    endloop
  endfacet
  facet normal -0 0 1
    outer loop
      vertex -1.69336 -16.1113 35
      vertex 2.00695 -19.0948 35
      vertex 1.69336 -16.1113 35
    endloop
  endfacet
  facet normal 0 0 1
    outer loop
      vertex -1.69336 -16.1113 35
      vertex -2.00695 -19.0948 35
      vertex 2.00695 -19.0948 35
    endloop
  endfacet
  facet normal 0 0 1
    outer loop
      vertex -5.00607 -15.4071 35
      vertex -2.00695 -19.0948 35
      vertex -1.69336 -16.1113 35
    endloop
  endfacet
  facet normal 0 0 1
    outer loop
      vertex -5.00607 -15.4071 35
      vertex -5.93313 -18.2603 35
      vertex -2.00695 -19.0948 35
    endloop
  endfacet
  facet normal 0 0 1
    outer loop
      vertex -8.1 -14.0296 35
      vertex -5.93313 -18.2603 35
      vertex -5.00607 -15.4071 35
    endloop
  endfacet
  facet normal 0 0 1
    outer loop
      vertex -8.1 -14.0296 35
      vertex -9.6 -16.6277 35
      vertex -5.93313 -18.2603 35
    endloop
  endfacet
  facet normal 0 0 1
    outer loop
      vertex -10.8399 -12.0389 35
      vertex -9.6 -16.6277 35
      vertex -8.1 -14.0296 35
    endloop
  endfacet
  facet normal 0 0 1
    outer loop
      vertex -10.8399 -12.0389 35
      vertex -12.8473 -14.2684 35
      vertex -9.6 -16.6277 35
    endloop
  endfacet
  facet normal 0 0 1
    outer loop
      vertex -13.1061 -9.52212 35
      vertex -12.8473 -14.2684 35
      vertex -10.8399 -12.0389 35
    endloop
  endfacet
  facet normal 0 0 1
    outer loop
      vertex -15.5331 -11.2855 35
      vertex -13.1061 -9.52212 35
      vertex -14.7994 -6.58913 35
    endloop
  endfacet
  facet normal 0 0 1
    outer loop
      vertex -13.1061 -9.52212 35
      vertex -15.5331 -11.2855 35
      vertex -12.8473 -14.2684 35
    endloop
  endfacet
  facet normal 0 0 1
    outer loop
      vertex -17.5401 -7.80934 35
      vertex -14.7994 -6.58913 35
      vertex -15.846 -3.36817 35
    endloop
  endfacet
  facet normal 0 0 1
    outer loop
      vertex -18.7804 -3.9919 35
      vertex -15.846 -3.36817 35
      vertex -16.2 0 35
    endloop
  endfacet
  facet normal 0 0 1
    outer loop
      vertex -15.846 3.36817 35
      vertex -18.7804 3.9919 35
      vertex -16.2 0 35
    endloop
  endfacet
  facet normal 0 0 1
    outer loop
      vertex -14.7994 -6.58913 35
      vertex -17.5401 -7.80934 35
      vertex -15.5331 -11.2855 35
    endloop
  endfacet
  facet normal 0 0 1
    outer loop
      vertex -19.2 0 35
      vertex -16.2 0 35
      vertex -18.7804 3.9919 35
    endloop
  endfacet
  facet normal 0 0 1
    outer loop
      vertex -15.846 -3.36817 35
      vertex -18.7804 -3.9919 35
      vertex -17.5401 -7.80934 35
    endloop
  endfacet
  facet normal 0 0 1
    outer loop
      vertex -16.2 0 35
      vertex -19.2 0 35
      vertex -18.7804 -3.9919 35
    endloop
  endfacet
  facet normal 0.951056 -0.309017 0
    outer loop
      vertex 17.5401 -7.80934 35
      vertex 18.7804 -3.9919 -35
      vertex 18.7804 -3.9919 35
    endloop
  endfacet
  facet normal 0.951057 -0.309017 2.59142e-08
    outer loop
      vertex 18.7804 -3.9919 -35
      vertex 17.5401 -7.80934 35
      vertex 17.5401 -7.80934 -35
    endloop
  endfacet
  facet normal 0.743145 -0.669131 0
    outer loop
      vertex 12.8473 -14.2684 35
      vertex 15.5331 -11.2855 -35
      vertex 15.5331 -11.2855 35
    endloop
  endfacet
  facet normal 0.743145 -0.669131 0
    outer loop
      vertex 15.5331 -11.2855 -35
      vertex 12.8473 -14.2684 35
      vertex 12.8473 -14.2684 -35
    endloop
  endfacet
  facet normal -0.743145 -0.669131 0
    outer loop
      vertex -12.8473 -14.2684 -35
      vertex -15.5331 -11.2855 35
      vertex -15.5331 -11.2855 -35
    endloop
  endfacet
  facet normal -0.743145 -0.669131 0
    outer loop
      vertex -15.5331 -11.2855 35
      vertex -12.8473 -14.2684 -35
      vertex -12.8473 -14.2684 35
    endloop
  endfacet
  facet normal 0.406737 -0.913546 0
    outer loop
      vertex 5.93313 -18.2603 -35
      vertex 9.6 -16.6277 35
      vertex 5.93313 -18.2603 35
    endloop
  endfacet
  facet normal 0.406737 -0.913546 0
    outer loop
      vertex 9.6 -16.6277 35
      vertex 5.93313 -18.2603 -35
      vertex 9.6 -16.6277 -35
    endloop
  endfacet
  facet normal 0.866025 -0.5 0
    outer loop
      vertex -14.7994 6.58913 35
      vertex -13.1061 9.52212 -35
      vertex -13.1061 9.52212 35
    endloop
  endfacet
  facet normal 0.866025 -0.5 0
    outer loop
      vertex -13.1061 9.52212 -35
      vertex -14.7994 6.58913 35
      vertex -14.7994 6.58913 -35
    endloop
  endfacet
  facet normal -0.951057 -0.309017 0
    outer loop
      vertex 15.846 3.36817 -35
      vertex 14.7994 6.58913 35
      vertex 14.7994 6.58913 -35
    endloop
  endfacet
  facet normal -0.951057 -0.309017 0
    outer loop
      vertex 14.7994 6.58913 35
      vertex 15.846 3.36817 -35
      vertex 15.846 3.36817 35
    endloop
  endfacet
  facet normal 0.743145 -0.669131 0
    outer loop
      vertex -13.1061 9.52212 35
      vertex -10.8399 12.0389 -35
      vertex -10.8399 12.0389 35
    endloop
  endfacet
  facet normal 0.743145 -0.669131 0
    outer loop
      vertex -10.8399 12.0389 -35
      vertex -13.1061 9.52212 35
      vertex -13.1061 9.52212 -35
    endloop
  endfacet
  facet normal 0.406737 -0.913545 0
    outer loop
      vertex -8.1 14.0296 -35
      vertex -5.00607 15.4071 35
      vertex -8.1 14.0296 35
    endloop
  endfacet
  facet normal 0.406737 -0.913545 0
    outer loop
      vertex -5.00607 15.4071 35
      vertex -8.1 14.0296 -35
      vertex -5.00607 15.4071 -35
    endloop
  endfacet
  facet normal -0.207912 -0.978148 0
    outer loop
      vertex 1.69336 16.1113 -35
      vertex 5.00607 15.4071 35
      vertex 1.69336 16.1113 35
    endloop
  endfacet
  facet normal -0.207912 -0.978148 -0
    outer loop
      vertex 5.00607 15.4071 35
      vertex 1.69336 16.1113 -35
      vertex 5.00607 15.4071 -35
    endloop
  endfacet
  facet normal -0.866025 -0.5 0
    outer loop
      vertex 14.7994 6.58913 -35
      vertex 13.1061 9.52212 35
      vertex 13.1061 9.52212 -35
    endloop
  endfacet
  facet normal -0.866025 -0.5 0
    outer loop
      vertex 13.1061 9.52212 35
      vertex 14.7994 6.58913 -35
      vertex 14.7994 6.58913 35
    endloop
  endfacet
  facet normal 0.994522 0.104529 2.70986e-08
    outer loop
      vertex -15.846 -3.36817 35
      vertex -16.2 0 -35
      vertex -16.2 0 35
    endloop
  endfacet
  facet normal 0.994522 0.104528 0
    outer loop
      vertex -16.2 0 -35
      vertex -15.846 -3.36817 35
      vertex -15.846 -3.36817 -35
    endloop
  endfacet
  facet normal 0.207912 0.978148 -0
    outer loop
      vertex -1.69336 -16.1113 -35
      vertex -5.00607 -15.4071 35
      vertex -1.69336 -16.1113 35
    endloop
  endfacet
  facet normal 0.207912 0.978148 0
    outer loop
      vertex -5.00607 -15.4071 35
      vertex -1.69336 -16.1113 -35
      vertex -5.00607 -15.4071 -35
    endloop
  endfacet
  facet normal 0 -1 0
    outer loop
      vertex -1.69336 16.1113 -35
      vertex 1.69336 16.1113 35
      vertex -1.69336 16.1113 35
    endloop
  endfacet
  facet normal 0 -1 -0
    outer loop
      vertex 1.69336 16.1113 35
      vertex -1.69336 16.1113 -35
      vertex 1.69336 16.1113 -35
    endloop
  endfacet
  facet normal 0.587785 -0.809017 0
    outer loop
      vertex -10.8399 12.0389 -35
      vertex -8.1 14.0296 35
      vertex -10.8399 12.0389 35
    endloop
  endfacet
  facet normal 0.587785 -0.809017 0
    outer loop
      vertex -8.1 14.0296 35
      vertex -10.8399 12.0389 -35
      vertex -8.1 14.0296 -35
    endloop
  endfacet
  facet normal -0.994522 -0.104529 0
    outer loop
      vertex 16.2 0 -35
      vertex 15.846 3.36817 35
      vertex 15.846 3.36817 -35
    endloop
  endfacet
  facet normal -0.994522 -0.104528 -2.70986e-08
    outer loop
      vertex 15.846 3.36817 35
      vertex 16.2 0 -35
      vertex 16.2 0 35
    endloop
  endfacet
  facet normal -0.743145 -0.669131 0
    outer loop
      vertex 13.1061 9.52212 -35
      vertex 10.8399 12.0389 35
      vertex 10.8399 12.0389 -35
    endloop
  endfacet
  facet normal -0.743145 -0.669131 0
    outer loop
      vertex 10.8399 12.0389 35
      vertex 13.1061 9.52212 -35
      vertex 13.1061 9.52212 35
    endloop
  endfacet
  facet normal -0.406737 -0.913545 0
    outer loop
      vertex 5.00607 15.4071 -35
      vertex 8.1 14.0296 35
      vertex 5.00607 15.4071 35
    endloop
  endfacet
  facet normal -0.406737 -0.913545 -0
    outer loop
      vertex 8.1 14.0296 35
      vertex 5.00607 15.4071 -35
      vertex 8.1 14.0296 -35
    endloop
  endfacet
  facet normal -0.587785 -0.809017 0
    outer loop
      vertex 8.1 14.0296 -35
      vertex 10.8399 12.0389 35
      vertex 8.1 14.0296 35
    endloop
  endfacet
  facet normal -0.587785 -0.809017 -0
    outer loop
      vertex 10.8399 12.0389 35
      vertex 8.1 14.0296 -35
      vertex 10.8399 12.0389 -35
    endloop
  endfacet
  facet normal 0.994522 -0.104529 0
    outer loop
      vertex -16.2 0 35
      vertex -15.846 3.36817 -35
      vertex -15.846 3.36817 35
    endloop
  endfacet
  facet normal 0.994522 -0.104528 2.70986e-08
    outer loop
      vertex -15.846 3.36817 -35
      vertex -16.2 0 35
      vertex -16.2 0 -35
    endloop
  endfacet
  facet normal -0.587785 0.809017 0
    outer loop
      vertex 10.8399 -12.0389 -35
      vertex 8.1 -14.0296 35
      vertex 10.8399 -12.0389 35
    endloop
  endfacet
  facet normal -0.587785 0.809017 0
    outer loop
      vertex 8.1 -14.0296 35
      vertex 10.8399 -12.0389 -35
      vertex 8.1 -14.0296 -35
    endloop
  endfacet
  facet normal -0.866025 0.5 0
    outer loop
      vertex 13.1061 -9.52212 -35
      vertex 14.7994 -6.58913 35
      vertex 14.7994 -6.58913 -35
    endloop
  endfacet
  facet normal -0.866025 0.5 0
    outer loop
      vertex 14.7994 -6.58913 35
      vertex 13.1061 -9.52212 -35
      vertex 13.1061 -9.52212 35
    endloop
  endfacet
  facet normal 0.587785 0.809017 -0
    outer loop
      vertex -8.1 -14.0296 -35
      vertex -10.8399 -12.0389 35
      vertex -8.1 -14.0296 35
    endloop
  endfacet
  facet normal 0.587785 0.809017 0
    outer loop
      vertex -10.8399 -12.0389 35
      vertex -8.1 -14.0296 -35
      vertex -10.8399 -12.0389 -35
    endloop
  endfacet
  facet normal 0.951057 -0.309017 0
    outer loop
      vertex -15.846 3.36817 35
      vertex -14.7994 6.58913 -35
      vertex -14.7994 6.58913 35
    endloop
  endfacet
  facet normal 0.951057 -0.309017 0
    outer loop
      vertex -14.7994 6.58913 -35
      vertex -15.846 3.36817 35
      vertex -15.846 3.36817 -35
    endloop
  endfacet
  facet normal 0.207912 -0.978148 0
    outer loop
      vertex -5.00607 15.4071 -35
      vertex -1.69336 16.1113 35
      vertex -5.00607 15.4071 35
    endloop
  endfacet
  facet normal 0.207912 -0.978148 0
    outer loop
      vertex -1.69336 16.1113 35
      vertex -5.00607 15.4071 -35
      vertex -1.69336 16.1113 -35
    endloop
  endfacet
  facet normal 0.866025 0.5 0
    outer loop
      vertex -13.1061 -9.52212 35
      vertex -14.7994 -6.58913 -35
      vertex -14.7994 -6.58913 35
    endloop
  endfacet
  facet normal 0.866025 0.5 0
    outer loop
      vertex -14.7994 -6.58913 -35
      vertex -13.1061 -9.52212 35
      vertex -13.1061 -9.52212 -35
    endloop
  endfacet
  facet normal -0.994522 0.104529 -2.70986e-08
    outer loop
      vertex 15.846 -3.36817 -35
      vertex 16.2 0 35
      vertex 16.2 0 -35
    endloop
  endfacet
  facet normal -0.994522 0.104528 0
    outer loop
      vertex 16.2 0 35
      vertex 15.846 -3.36817 -35
      vertex 15.846 -3.36817 35
    endloop
  endfacet
  facet normal -0.743145 0.669131 0
    outer loop
      vertex 10.8399 -12.0389 -35
      vertex 13.1061 -9.52212 35
      vertex 13.1061 -9.52212 -35
    endloop
  endfacet
  facet normal -0.743145 0.669131 0
    outer loop
      vertex 13.1061 -9.52212 35
      vertex 10.8399 -12.0389 -35
      vertex 10.8399 -12.0389 35
    endloop
  endfacet
  facet normal 0.406737 0.913545 -0
    outer loop
      vertex -5.00607 -15.4071 -35
      vertex -8.1 -14.0296 35
      vertex -5.00607 -15.4071 35
    endloop
  endfacet
  facet normal 0.406737 0.913545 0
    outer loop
      vertex -8.1 -14.0296 35
      vertex -5.00607 -15.4071 -35
      vertex -8.1 -14.0296 -35
    endloop
  endfacet
  facet normal 0.951057 0.309017 0
    outer loop
      vertex -14.7994 -6.58913 35
      vertex -15.846 -3.36817 -35
      vertex -15.846 -3.36817 35
    endloop
  endfacet
  facet normal 0.951057 0.309017 0
    outer loop
      vertex -15.846 -3.36817 -35
      vertex -14.7994 -6.58913 35
      vertex -14.7994 -6.58913 -35
    endloop
  endfacet
  facet normal 0 1 -0
    outer loop
      vertex 1.69336 -16.1113 -35
      vertex -1.69336 -16.1113 35
      vertex 1.69336 -16.1113 35
    endloop
  endfacet
  facet normal 0 1 0
    outer loop
      vertex -1.69336 -16.1113 35
      vertex 1.69336 -16.1113 -35
      vertex -1.69336 -16.1113 -35
    endloop
  endfacet
  facet normal -0.207912 0.978148 0
    outer loop
      vertex 5.00607 -15.4071 -35
      vertex 1.69336 -16.1113 35
      vertex 5.00607 -15.4071 35
    endloop
  endfacet
  facet normal -0.207912 0.978148 0
    outer loop
      vertex 1.69336 -16.1113 35
      vertex 5.00607 -15.4071 -35
      vertex 1.69336 -16.1113 -35
    endloop
  endfacet
  facet normal -0.951057 0.309017 0
    outer loop
      vertex 14.7994 -6.58913 -35
      vertex 15.846 -3.36817 35
      vertex 15.846 -3.36817 -35
    endloop
  endfacet
  facet normal -0.951057 0.309017 0
    outer loop
      vertex 15.846 -3.36817 35
      vertex 14.7994 -6.58913 -35
      vertex 14.7994 -6.58913 35
    endloop
  endfacet
  facet normal 0.743145 0.669131 0
    outer loop
      vertex -10.8399 -12.0389 35
      vertex -13.1061 -9.52212 -35
      vertex -13.1061 -9.52212 35
    endloop
  endfacet
  facet normal 0.743145 0.669131 0
    outer loop
      vertex -13.1061 -9.52212 -35
      vertex -10.8399 -12.0389 35
      vertex -10.8399 -12.0389 -35
    endloop
  endfacet
  facet normal -0.406737 0.913545 0
    outer loop
      vertex 8.1 -14.0296 -35
      vertex 5.00607 -15.4071 35
      vertex 8.1 -14.0296 35
    endloop
  endfacet
  facet normal -0.406737 0.913545 0
    outer loop
      vertex 5.00607 -15.4071 35
      vertex 8.1 -14.0296 -35
      vertex 5.00607 -15.4071 -35
    endloop
  endfacet
  facet normal -0.866025 0.5 0
    outer loop
      vertex 22.7799 7.80934 -35
      vertex 24.7869 11.2855 -15
      vertex 24.7869 11.2855 -35
    endloop
  endfacet
  facet normal -0.866025 0.5 0
    outer loop
      vertex 24.7869 11.2855 -15
      vertex 22.7799 7.80934 -35
      vertex 22.7799 7.80934 -15
    endloop
  endfacet
  facet normal -0.743145 0.669131 0
    outer loop
      vertex 24.7869 11.2855 -35
      vertex 27.4727 14.2684 -15
      vertex 27.4727 14.2684 -35
    endloop
  endfacet
  facet normal -0.743145 0.669131 0
    outer loop
      vertex 27.4727 14.2684 -15
      vertex 24.7869 11.2855 -35
      vertex 24.7869 11.2855 -15
    endloop
  endfacet
  facet normal -0.406737 0.913546 0
    outer loop
      vertex 34.3869 18.2603 -35
      vertex 30.72 16.6277 -15
      vertex 34.3869 18.2603 -15
    endloop
  endfacet
  facet normal -0.406737 0.913546 0
    outer loop
      vertex 30.72 16.6277 -15
      vertex 34.3869 18.2603 -35
      vertex 30.72 16.6277 -35
    endloop
  endfacet
  facet normal 0.406737 0.913546 -0
    outer loop
      vertex 49.92 16.6277 -35
      vertex 46.2531 18.2603 -15
      vertex 49.92 16.6277 -15
    endloop
  endfacet
  facet normal 0.406737 0.913546 0
    outer loop
      vertex 46.2531 18.2603 -15
      vertex 49.92 16.6277 -35
      vertex 46.2531 18.2603 -35
    endloop
  endfacet
  facet normal -0.994522 -0.104528 0
    outer loop
      vertex 21.5396 -3.9919 -35
      vertex 21.12 0 -15
      vertex 21.12 0 -35
    endloop
  endfacet
  facet normal -0.994522 -0.104528 0
    outer loop
      vertex 21.12 0 -15
      vertex 21.5396 -3.9919 -35
      vertex 21.5396 -3.9919 -15
    endloop
  endfacet
  facet normal -0.207912 -0.978148 0
    outer loop
      vertex 34.3869 -18.2603 -35
      vertex 38.3131 -19.0948 -15
      vertex 34.3869 -18.2603 -15
    endloop
  endfacet
  facet normal -0.207912 -0.978148 -0
    outer loop
      vertex 38.3131 -19.0948 -15
      vertex 34.3869 -18.2603 -35
      vertex 38.3131 -19.0948 -35
    endloop
  endfacet
  facet normal 0 1 -0
    outer loop
      vertex 42.3269 19.0948 -35
      vertex 38.3131 19.0948 -15
      vertex 42.3269 19.0948 -15
    endloop
  endfacet
  facet normal 0 1 0
    outer loop
      vertex 38.3131 19.0948 -15
      vertex 42.3269 19.0948 -35
      vertex 38.3131 19.0948 -35
    endloop
  endfacet
  facet normal -0.587785 0.809017 0
    outer loop
      vertex 30.72 16.6277 -35
      vertex 27.4727 14.2684 -15
      vertex 30.72 16.6277 -15
    endloop
  endfacet
  facet normal -0.587785 0.809017 0
    outer loop
      vertex 27.4727 14.2684 -15
      vertex 30.72 16.6277 -35
      vertex 27.4727 14.2684 -35
    endloop
  endfacet
  facet normal 0.994522 0.104529 0
    outer loop
      vertex 59.52 0 -15
      vertex 59.1004 3.9919 -35
      vertex 59.1004 3.9919 -15
    endloop
  endfacet
  facet normal 0.994522 0.104529 0
    outer loop
      vertex 59.1004 3.9919 -35
      vertex 59.52 0 -15
      vertex 59.52 0 -35
    endloop
  endfacet
  facet normal 0.866025 0.5 0
    outer loop
      vertex 57.8601 7.80934 -15
      vertex 55.8531 11.2855 -35
      vertex 55.8531 11.2855 -15
    endloop
  endfacet
  facet normal 0.866025 0.5 0
    outer loop
      vertex 55.8531 11.2855 -35
      vertex 57.8601 7.80934 -15
      vertex 57.8601 7.80934 -35
    endloop
  endfacet
  facet normal 0.587785 0.809017 -0
    outer loop
      vertex 53.1673 14.2684 -35
      vertex 49.92 16.6277 -15
      vertex 53.1673 14.2684 -15
    endloop
  endfacet
  facet normal 0.587785 0.809017 0
    outer loop
      vertex 49.92 16.6277 -15
      vertex 53.1673 14.2684 -35
      vertex 49.92 16.6277 -35
    endloop
  endfacet
  facet normal 0.207912 0.978148 -0
    outer loop
      vertex 46.2531 18.2603 -35
      vertex 42.3269 19.0948 -15
      vertex 46.2531 18.2603 -15
    endloop
  endfacet
  facet normal 0.207912 0.978148 0
    outer loop
      vertex 42.3269 19.0948 -15
      vertex 46.2531 18.2603 -35
      vertex 42.3269 19.0948 -35
    endloop
  endfacet
  facet normal 0.743145 0.669131 0
    outer loop
      vertex 55.8531 11.2855 -15
      vertex 53.1673 14.2684 -35
      vertex 53.1673 14.2684 -15
    endloop
  endfacet
  facet normal 0.743145 0.669131 0
    outer loop
      vertex 53.1673 14.2684 -35
      vertex 55.8531 11.2855 -15
      vertex 55.8531 11.2855 -35
    endloop
  endfacet
  facet normal -0.994522 0.104528 0
    outer loop
      vertex 21.12 0 -35
      vertex 21.5396 3.9919 -15
      vertex 21.5396 3.9919 -35
    endloop
  endfacet
  facet normal -0.994522 0.104528 0
    outer loop
      vertex 21.5396 3.9919 -15
      vertex 21.12 0 -35
      vertex 21.12 0 -15
    endloop
  endfacet
  facet normal -0.951056 -0.309017 0
    outer loop
      vertex 22.7799 -7.80934 -35
      vertex 21.5396 -3.9919 -15
      vertex 21.5396 -3.9919 -35
    endloop
  endfacet
  facet normal -0.951056 -0.309017 0
    outer loop
      vertex 21.5396 -3.9919 -15
      vertex 22.7799 -7.80934 -35
      vertex 22.7799 -7.80934 -15
    endloop
  endfacet
  facet normal 0.866025 -0.5 0
    outer loop
      vertex 55.8531 -11.2855 -15
      vertex 57.8601 -7.80934 -35
      vertex 57.8601 -7.80934 -15
    endloop
  endfacet
  facet normal 0.866025 -0.5 0
    outer loop
      vertex 57.8601 -7.80934 -35
      vertex 55.8531 -11.2855 -15
      vertex 55.8531 -11.2855 -35
    endloop
  endfacet
  facet normal -0.587785 -0.809017 0
    outer loop
      vertex 27.4727 -14.2684 -35
      vertex 30.72 -16.6277 -15
      vertex 27.4727 -14.2684 -15
    endloop
  endfacet
  facet normal -0.587785 -0.809017 -0
    outer loop
      vertex 30.72 -16.6277 -15
      vertex 27.4727 -14.2684 -35
      vertex 30.72 -16.6277 -35
    endloop
  endfacet
  facet normal -0.951056 0.309017 0
    outer loop
      vertex 21.5396 3.9919 -35
      vertex 22.7799 7.80934 -15
      vertex 22.7799 7.80934 -35
    endloop
  endfacet
  facet normal -0.951056 0.309017 0
    outer loop
      vertex 22.7799 7.80934 -15
      vertex 21.5396 3.9919 -35
      vertex 21.5396 3.9919 -15
    endloop
  endfacet
  facet normal -0.207912 0.978148 0
    outer loop
      vertex 38.3131 19.0948 -35
      vertex 34.3869 18.2603 -15
      vertex 38.3131 19.0948 -15
    endloop
  endfacet
  facet normal -0.207912 0.978148 0
    outer loop
      vertex 34.3869 18.2603 -15
      vertex 38.3131 19.0948 -35
      vertex 34.3869 18.2603 -35
    endloop
  endfacet
  facet normal 0 0 -1
    outer loop
      vertex 52.32 0 -35
      vertex 59.52 0 -35
      vertex 59.1004 -3.9919 -35
    endloop
  endfacet
  facet normal 0 0 -1
    outer loop
      vertex 52.0578 -2.49494 -35
      vertex 59.1004 -3.9919 -35
      vertex 57.8601 -7.80934 -35
    endloop
  endfacet
  facet normal 0 0 -1
    outer loop
      vertex 59.52 0 -35
      vertex 52.32 0 -35
      vertex 59.1004 3.9919 -35
    endloop
  endfacet
  facet normal 0 0 -1
    outer loop
      vertex 51.2825 -4.88084 -35
      vertex 57.8601 -7.80934 -35
      vertex 55.8531 -11.2855 -35
    endloop
  endfacet
  facet normal 0 0 -1
    outer loop
      vertex 52.0578 2.49494 -35
      vertex 59.1004 3.9919 -35
      vertex 52.32 0 -35
    endloop
  endfacet
  facet normal 0 0 -1
    outer loop
      vertex 50.0282 -7.05342 -35
      vertex 55.8531 -11.2855 -35
      vertex 53.1673 -14.2684 -35
    endloop
  endfacet
  facet normal -0 0 -1
    outer loop
      vertex 59.1004 3.9919 -35
      vertex 52.0578 2.49494 -35
      vertex 57.8601 7.80934 -35
    endloop
  endfacet
  facet normal 0 0 -1
    outer loop
      vertex 51.2825 4.88084 -35
      vertex 57.8601 7.80934 -35
      vertex 52.0578 2.49494 -35
    endloop
  endfacet
  facet normal 0 0 -1
    outer loop
      vertex 59.1004 -3.9919 -35
      vertex 52.0578 -2.49494 -35
      vertex 52.32 0 -35
    endloop
  endfacet
  facet normal 0 0 -1
    outer loop
      vertex 57.8601 -7.80934 -35
      vertex 51.2825 -4.88084 -35
      vertex 52.0578 -2.49494 -35
    endloop
  endfacet
  facet normal 0 0 -1
    outer loop
      vertex 55.8531 -11.2855 -35
      vertex 50.0282 -7.05342 -35
      vertex 51.2825 -4.88084 -35
    endloop
  endfacet
  facet normal 0 0 -1
    outer loop
      vertex 48.3496 -8.91774 -35
      vertex 53.1673 -14.2684 -35
      vertex 49.92 -16.6277 -35
    endloop
  endfacet
  facet normal 0 0 -1
    outer loop
      vertex 53.1673 -14.2684 -35
      vertex 48.3496 -8.91774 -35
      vertex 50.0282 -7.05342 -35
    endloop
  endfacet
  facet normal 0 0 -1
    outer loop
      vertex 49.92 -16.6277 -35
      vertex 46.32 -10.3923 -35
      vertex 48.3496 -8.91774 -35
    endloop
  endfacet
  facet normal 0 0 -1
    outer loop
      vertex 46.2531 -18.2603 -35
      vertex 46.32 -10.3923 -35
      vertex 49.92 -16.6277 -35
    endloop
  endfacet
  facet normal 0 0 -1
    outer loop
      vertex 46.2531 -18.2603 -35
      vertex 44.0282 -11.4127 -35
      vertex 46.32 -10.3923 -35
    endloop
  endfacet
  facet normal 0 0 -1
    outer loop
      vertex 42.3269 -19.0948 -35
      vertex 44.0282 -11.4127 -35
      vertex 46.2531 -18.2603 -35
    endloop
  endfacet
  facet normal 0 0 -1
    outer loop
      vertex 42.3269 -19.0948 -35
      vertex 41.5743 -11.9343 -35
      vertex 44.0282 -11.4127 -35
    endloop
  endfacet
  facet normal 0 0 -1
    outer loop
      vertex 42.3269 -19.0948 -35
      vertex 39.0657 -11.9343 -35
      vertex 41.5743 -11.9343 -35
    endloop
  endfacet
  facet normal 0 0 -1
    outer loop
      vertex 38.3131 -19.0948 -35
      vertex 39.0657 -11.9343 -35
      vertex 42.3269 -19.0948 -35
    endloop
  endfacet
  facet normal 0 0 -1
    outer loop
      vertex 38.3131 -19.0948 -35
      vertex 36.6118 -11.4127 -35
      vertex 39.0657 -11.9343 -35
    endloop
  endfacet
  facet normal 0 0 -1
    outer loop
      vertex 34.3869 -18.2603 -35
      vertex 36.6118 -11.4127 -35
      vertex 38.3131 -19.0948 -35
    endloop
  endfacet
  facet normal 0 0 -1
    outer loop
      vertex 34.3869 -18.2603 -35
      vertex 34.32 -10.3923 -35
      vertex 36.6118 -11.4127 -35
    endloop
  endfacet
  facet normal 0 0 -1
    outer loop
      vertex 30.72 -16.6277 -35
      vertex 34.32 -10.3923 -35
      vertex 34.3869 -18.2603 -35
    endloop
  endfacet
  facet normal -0 0 -1
    outer loop
      vertex 34.32 -10.3923 -35
      vertex 30.72 -16.6277 -35
      vertex 32.2904 -8.91774 -35
    endloop
  endfacet
  facet normal 0 0 -1
    outer loop
      vertex 27.4727 -14.2684 -35
      vertex 32.2904 -8.91774 -35
      vertex 30.72 -16.6277 -35
    endloop
  endfacet
  facet normal -0 0 -1
    outer loop
      vertex 32.2904 -8.91774 -35
      vertex 27.4727 -14.2684 -35
      vertex 30.6118 -7.05342 -35
    endloop
  endfacet
  facet normal 0 0 -1
    outer loop
      vertex 24.7869 -11.2855 -35
      vertex 30.6118 -7.05342 -35
      vertex 27.4727 -14.2684 -35
    endloop
  endfacet
  facet normal 0 0 -1
    outer loop
      vertex 22.7799 -7.80934 -35
      vertex 29.3575 -4.88084 -35
      vertex 24.7869 -11.2855 -35
    endloop
  endfacet
  facet normal -0 0 -1
    outer loop
      vertex 30.6118 -7.05342 -35
      vertex 24.7869 -11.2855 -35
      vertex 29.3575 -4.88084 -35
    endloop
  endfacet
  facet normal -0 0 -1
    outer loop
      vertex 57.8601 7.80934 -35
      vertex 51.2825 4.88084 -35
      vertex 55.8531 11.2855 -35
    endloop
  endfacet
  facet normal 0 0 -1
    outer loop
      vertex 50.0282 7.05342 -35
      vertex 55.8531 11.2855 -35
      vertex 51.2825 4.88084 -35
    endloop
  endfacet
  facet normal -0 0 -1
    outer loop
      vertex 55.8531 11.2855 -35
      vertex 50.0282 7.05342 -35
      vertex 53.1673 14.2684 -35
    endloop
  endfacet
  facet normal 0 0 -1
    outer loop
      vertex 48.3496 8.91774 -35
      vertex 53.1673 14.2684 -35
      vertex 50.0282 7.05342 -35
    endloop
  endfacet
  facet normal -0 0 -1
    outer loop
      vertex 53.1673 14.2684 -35
      vertex 48.3496 8.91774 -35
      vertex 49.92 16.6277 -35
    endloop
  endfacet
  facet normal 0 0 -1
    outer loop
      vertex 46.32 10.3923 -35
      vertex 49.92 16.6277 -35
      vertex 48.3496 8.91774 -35
    endloop
  endfacet
  facet normal 0 0 -1
    outer loop
      vertex 46.32 10.3923 -35
      vertex 46.2531 18.2603 -35
      vertex 49.92 16.6277 -35
    endloop
  endfacet
  facet normal 0 0 -1
    outer loop
      vertex 44.0282 11.4127 -35
      vertex 46.2531 18.2603 -35
      vertex 46.32 10.3923 -35
    endloop
  endfacet
  facet normal 0 0 -1
    outer loop
      vertex 44.0282 11.4127 -35
      vertex 42.3269 19.0948 -35
      vertex 46.2531 18.2603 -35
    endloop
  endfacet
  facet normal 0 0 -1
    outer loop
      vertex 41.5743 11.9343 -35
      vertex 42.3269 19.0948 -35
      vertex 44.0282 11.4127 -35
    endloop
  endfacet
  facet normal 0 0 -1
    outer loop
      vertex 39.0657 11.9343 -35
      vertex 42.3269 19.0948 -35
      vertex 41.5743 11.9343 -35
    endloop
  endfacet
  facet normal 0 0 -1
    outer loop
      vertex 39.0657 11.9343 -35
      vertex 38.3131 19.0948 -35
      vertex 42.3269 19.0948 -35
    endloop
  endfacet
  facet normal 0 0 -1
    outer loop
      vertex 36.6118 11.4127 -35
      vertex 38.3131 19.0948 -35
      vertex 39.0657 11.9343 -35
    endloop
  endfacet
  facet normal 0 0 -1
    outer loop
      vertex 36.6118 11.4127 -35
      vertex 34.3869 18.2603 -35
      vertex 38.3131 19.0948 -35
    endloop
  endfacet
  facet normal 0 0 -1
    outer loop
      vertex 34.32 10.3923 -35
      vertex 34.3869 18.2603 -35
      vertex 36.6118 11.4127 -35
    endloop
  endfacet
  facet normal 0 0 -1
    outer loop
      vertex 30.72 16.6277 -35
      vertex 34.32 10.3923 -35
      vertex 32.2904 8.91774 -35
    endloop
  endfacet
  facet normal 0 0 -1
    outer loop
      vertex 34.32 10.3923 -35
      vertex 30.72 16.6277 -35
      vertex 34.3869 18.2603 -35
    endloop
  endfacet
  facet normal 0 0 -1
    outer loop
      vertex 27.4727 14.2684 -35
      vertex 32.2904 8.91774 -35
      vertex 30.6118 7.05342 -35
    endloop
  endfacet
  facet normal 0 0 -1
    outer loop
      vertex 24.7869 11.2855 -35
      vertex 30.6118 7.05342 -35
      vertex 29.3575 4.88084 -35
    endloop
  endfacet
  facet normal 0 0 -1
    outer loop
      vertex 22.7799 7.80934 -35
      vertex 29.3575 4.88084 -35
      vertex 28.5822 2.49494 -35
    endloop
  endfacet
  facet normal 0 0 -1
    outer loop
      vertex 32.2904 8.91774 -35
      vertex 27.4727 14.2684 -35
      vertex 30.72 16.6277 -35
    endloop
  endfacet
  facet normal 0 0 -1
    outer loop
      vertex 21.5396 3.9919 -35
      vertex 28.5822 2.49494 -35
      vertex 28.32 0 -35
    endloop
  endfacet
  facet normal -0 0 -1
    outer loop
      vertex 29.3575 -4.88084 -35
      vertex 22.7799 -7.80934 -35
      vertex 28.5822 -2.49494 -35
    endloop
  endfacet
  facet normal 0 0 -1
    outer loop
      vertex 21.5396 -3.9919 -35
      vertex 28.5822 -2.49494 -35
      vertex 22.7799 -7.80934 -35
    endloop
  endfacet
  facet normal 0 0 -1
    outer loop
      vertex 30.6118 7.05342 -35
      vertex 24.7869 11.2855 -35
      vertex 27.4727 14.2684 -35
    endloop
  endfacet
  facet normal -0 0 -1
    outer loop
      vertex 28.5822 -2.49494 -35
      vertex 21.5396 -3.9919 -35
      vertex 28.32 0 -35
    endloop
  endfacet
  facet normal 0 0 -1
    outer loop
      vertex 29.3575 4.88084 -35
      vertex 22.7799 7.80934 -35
      vertex 24.7869 11.2855 -35
    endloop
  endfacet
  facet normal 0 0 -1
    outer loop
      vertex 21.12 0 -35
      vertex 28.32 0 -35
      vertex 21.5396 -3.9919 -35
    endloop
  endfacet
  facet normal 0 0 -1
    outer loop
      vertex 28.5822 2.49494 -35
      vertex 21.5396 3.9919 -35
      vertex 22.7799 7.80934 -35
    endloop
  endfacet
  facet normal 0 0 -1
    outer loop
      vertex 28.32 0 -35
      vertex 21.12 0 -35
      vertex 21.5396 3.9919 -35
    endloop
  endfacet
  facet normal 0.951057 0.309017 0
    outer loop
      vertex 59.1004 3.9919 -15
      vertex 57.8601 7.80934 -35
      vertex 57.8601 7.80934 -15
    endloop
  endfacet
  facet normal 0.951057 0.309017 0
    outer loop
      vertex 57.8601 7.80934 -35
      vertex 59.1004 3.9919 -15
      vertex 59.1004 3.9919 -35
    endloop
  endfacet
  facet normal -0.866025 -0.5 0
    outer loop
      vertex 24.7869 -11.2855 -35
      vertex 22.7799 -7.80934 -15
      vertex 22.7799 -7.80934 -35
    endloop
  endfacet
  facet normal -0.866025 -0.5 0
    outer loop
      vertex 22.7799 -7.80934 -15
      vertex 24.7869 -11.2855 -35
      vertex 24.7869 -11.2855 -15
    endloop
  endfacet
  facet normal 0.207912 -0.978148 0
    outer loop
      vertex 42.3269 -19.0948 -35
      vertex 46.2531 -18.2603 -15
      vertex 42.3269 -19.0948 -15
    endloop
  endfacet
  facet normal 0.207912 -0.978148 0
    outer loop
      vertex 46.2531 -18.2603 -15
      vertex 42.3269 -19.0948 -35
      vertex 46.2531 -18.2603 -35
    endloop
  endfacet
  facet normal 0.994522 -0.104529 0
    outer loop
      vertex 59.1004 -3.9919 -15
      vertex 59.52 0 -35
      vertex 59.52 0 -15
    endloop
  endfacet
  facet normal 0.994522 -0.104529 0
    outer loop
      vertex 59.52 0 -35
      vertex 59.1004 -3.9919 -15
      vertex 59.1004 -3.9919 -35
    endloop
  endfacet
  facet normal -0.406737 -0.913546 0
    outer loop
      vertex 30.72 -16.6277 -35
      vertex 34.3869 -18.2603 -15
      vertex 30.72 -16.6277 -15
    endloop
  endfacet
  facet normal -0.406737 -0.913546 -0
    outer loop
      vertex 34.3869 -18.2603 -15
      vertex 30.72 -16.6277 -35
      vertex 34.3869 -18.2603 -35
    endloop
  endfacet
  facet normal 0 -1 0
    outer loop
      vertex 38.3131 -19.0948 -35
      vertex 42.3269 -19.0948 -15
      vertex 38.3131 -19.0948 -15
    endloop
  endfacet
  facet normal 0 -1 -0
    outer loop
      vertex 42.3269 -19.0948 -15
      vertex 38.3131 -19.0948 -35
      vertex 42.3269 -19.0948 -35
    endloop
  endfacet
  facet normal 0.587785 -0.809017 0
    outer loop
      vertex 49.92 -16.6277 -35
      vertex 53.1673 -14.2684 -15
      vertex 49.92 -16.6277 -15
    endloop
  endfacet
  facet normal 0.587785 -0.809017 0
    outer loop
      vertex 53.1673 -14.2684 -15
      vertex 49.92 -16.6277 -35
      vertex 53.1673 -14.2684 -35
    endloop
  endfacet
  facet normal 0 0 1
    outer loop
      vertex 56.02 0 -15
      vertex 59.52 0 -15
      vertex 59.1004 3.9919 -15
    endloop
  endfacet
  facet normal 0 0 1
    outer loop
      vertex 55.6769 3.26421 -15
      vertex 59.1004 3.9919 -15
      vertex 57.8601 7.80934 -15
    endloop
  endfacet
  facet normal 0 0 1
    outer loop
      vertex 59.52 0 -15
      vertex 56.02 0 -15
      vertex 59.1004 -3.9919 -15
    endloop
  endfacet
  facet normal -0 0 1
    outer loop
      vertex 55.6769 -3.26421 -15
      vertex 59.1004 -3.9919 -15
      vertex 56.02 0 -15
    endloop
  endfacet
  facet normal 0 0 1
    outer loop
      vertex 54.6627 6.38577 -15
      vertex 57.8601 7.80934 -15
      vertex 55.8531 11.2855 -15
    endloop
  endfacet
  facet normal 0 0 1
    outer loop
      vertex 59.1004 3.9919 -15
      vertex 55.6769 3.26421 -15
      vertex 56.02 0 -15
    endloop
  endfacet
  facet normal 0 0 1
    outer loop
      vertex 57.8601 7.80934 -15
      vertex 54.6627 6.38577 -15
      vertex 55.6769 3.26421 -15
    endloop
  endfacet
  facet normal 0 0 1
    outer loop
      vertex 53.0216 9.22823 -15
      vertex 55.8531 11.2855 -15
      vertex 53.1673 14.2684 -15
    endloop
  endfacet
  facet normal 0 0 1
    outer loop
      vertex 55.8531 11.2855 -15
      vertex 53.0216 9.22823 -15
      vertex 54.6627 6.38577 -15
    endloop
  endfacet
  facet normal 0 0 1
    outer loop
      vertex 53.1673 14.2684 -15
      vertex 50.8254 11.6674 -15
      vertex 53.0216 9.22823 -15
    endloop
  endfacet
  facet normal 0 0 1
    outer loop
      vertex 49.92 16.6277 -15
      vertex 50.8254 11.6674 -15
      vertex 53.1673 14.2684 -15
    endloop
  endfacet
  facet normal 0 0 1
    outer loop
      vertex 49.92 16.6277 -15
      vertex 48.17 13.5966 -15
      vertex 50.8254 11.6674 -15
    endloop
  endfacet
  facet normal 0 0 1
    outer loop
      vertex 46.2531 18.2603 -15
      vertex 48.17 13.5966 -15
      vertex 49.92 16.6277 -15
    endloop
  endfacet
  facet normal 0 0 1
    outer loop
      vertex 46.2531 18.2603 -15
      vertex 45.1716 14.9316 -15
      vertex 48.17 13.5966 -15
    endloop
  endfacet
  facet normal 0 0 1
    outer loop
      vertex 42.3269 19.0948 -15
      vertex 45.1716 14.9316 -15
      vertex 46.2531 18.2603 -15
    endloop
  endfacet
  facet normal 0 0 1
    outer loop
      vertex 42.3269 19.0948 -15
      vertex 41.9611 15.614 -15
      vertex 45.1716 14.9316 -15
    endloop
  endfacet
  facet normal 0 0 1
    outer loop
      vertex 42.3269 19.0948 -15
      vertex 38.6789 15.614 -15
      vertex 41.9611 15.614 -15
    endloop
  endfacet
  facet normal -0 0 1
    outer loop
      vertex 38.3131 19.0948 -15
      vertex 38.6789 15.614 -15
      vertex 42.3269 19.0948 -15
    endloop
  endfacet
  facet normal 0 0 1
    outer loop
      vertex 38.3131 19.0948 -15
      vertex 35.4684 14.9316 -15
      vertex 38.6789 15.614 -15
    endloop
  endfacet
  facet normal -0 0 1
    outer loop
      vertex 34.3869 18.2603 -15
      vertex 35.4684 14.9316 -15
      vertex 38.3131 19.0948 -15
    endloop
  endfacet
  facet normal 0 0 1
    outer loop
      vertex 34.3869 18.2603 -15
      vertex 32.47 13.5966 -15
      vertex 35.4684 14.9316 -15
    endloop
  endfacet
  facet normal -0 0 1
    outer loop
      vertex 30.72 16.6277 -15
      vertex 32.47 13.5966 -15
      vertex 34.3869 18.2603 -15
    endloop
  endfacet
  facet normal 0 0 1
    outer loop
      vertex 30.72 16.6277 -15
      vertex 29.8146 11.6674 -15
      vertex 32.47 13.5966 -15
    endloop
  endfacet
  facet normal -0 0 1
    outer loop
      vertex 27.4727 14.2684 -15
      vertex 29.8146 11.6674 -15
      vertex 30.72 16.6277 -15
    endloop
  endfacet
  facet normal 0 0 1
    outer loop
      vertex 29.8146 11.6674 -15
      vertex 27.4727 14.2684 -15
      vertex 27.6184 9.22823 -15
    endloop
  endfacet
  facet normal -0 0 1
    outer loop
      vertex 24.7869 11.2855 -15
      vertex 27.6184 9.22823 -15
      vertex 27.4727 14.2684 -15
    endloop
  endfacet
  facet normal 0 0 1
    outer loop
      vertex 27.6184 9.22823 -15
      vertex 24.7869 11.2855 -15
      vertex 25.9773 6.38577 -15
    endloop
  endfacet
  facet normal -0 0 1
    outer loop
      vertex 22.7799 7.80934 -15
      vertex 25.9773 6.38577 -15
      vertex 24.7869 11.2855 -15
    endloop
  endfacet
  facet normal 0 0 1
    outer loop
      vertex 25.9773 6.38577 -15
      vertex 22.7799 7.80934 -15
      vertex 24.9631 3.26421 -15
    endloop
  endfacet
  facet normal -0 0 1
    outer loop
      vertex 21.5396 3.9919 -15
      vertex 24.9631 3.26421 -15
      vertex 22.7799 7.80934 -15
    endloop
  endfacet
  facet normal 0 0 1
    outer loop
      vertex 59.1004 -3.9919 -15
      vertex 55.6769 -3.26421 -15
      vertex 57.8601 -7.80934 -15
    endloop
  endfacet
  facet normal -0 0 1
    outer loop
      vertex 54.6627 -6.38577 -15
      vertex 57.8601 -7.80934 -15
      vertex 55.6769 -3.26421 -15
    endloop
  endfacet
  facet normal 0 0 1
    outer loop
      vertex 57.8601 -7.80934 -15
      vertex 54.6627 -6.38577 -15
      vertex 55.8531 -11.2855 -15
    endloop
  endfacet
  facet normal -0 0 1
    outer loop
      vertex 53.0216 -9.22823 -15
      vertex 55.8531 -11.2855 -15
      vertex 54.6627 -6.38577 -15
    endloop
  endfacet
  facet normal 0 0 1
    outer loop
      vertex 55.8531 -11.2855 -15
      vertex 53.0216 -9.22823 -15
      vertex 53.1673 -14.2684 -15
    endloop
  endfacet
  facet normal -0 0 1
    outer loop
      vertex 50.8254 -11.6674 -15
      vertex 53.1673 -14.2684 -15
      vertex 53.0216 -9.22823 -15
    endloop
  endfacet
  facet normal 0 0 1
    outer loop
      vertex 50.8254 -11.6674 -15
      vertex 49.92 -16.6277 -15
      vertex 53.1673 -14.2684 -15
    endloop
  endfacet
  facet normal -0 0 1
    outer loop
      vertex 48.17 -13.5966 -15
      vertex 49.92 -16.6277 -15
      vertex 50.8254 -11.6674 -15
    endloop
  endfacet
  facet normal 0 0 1
    outer loop
      vertex 48.17 -13.5966 -15
      vertex 46.2531 -18.2603 -15
      vertex 49.92 -16.6277 -15
    endloop
  endfacet
  facet normal -0 0 1
    outer loop
      vertex 45.1716 -14.9316 -15
      vertex 46.2531 -18.2603 -15
      vertex 48.17 -13.5966 -15
    endloop
  endfacet
  facet normal 0 0 1
    outer loop
      vertex 45.1716 -14.9316 -15
      vertex 42.3269 -19.0948 -15
      vertex 46.2531 -18.2603 -15
    endloop
  endfacet
  facet normal -0 0 1
    outer loop
      vertex 41.9611 -15.614 -15
      vertex 42.3269 -19.0948 -15
      vertex 45.1716 -14.9316 -15
    endloop
  endfacet
  facet normal -0 0 1
    outer loop
      vertex 38.6789 -15.614 -15
      vertex 42.3269 -19.0948 -15
      vertex 41.9611 -15.614 -15
    endloop
  endfacet
  facet normal 0 0 1
    outer loop
      vertex 38.6789 -15.614 -15
      vertex 38.3131 -19.0948 -15
      vertex 42.3269 -19.0948 -15
    endloop
  endfacet
  facet normal 0 0 1
    outer loop
      vertex 35.4684 -14.9316 -15
      vertex 38.3131 -19.0948 -15
      vertex 38.6789 -15.614 -15
    endloop
  endfacet
  facet normal 0 0 1
    outer loop
      vertex 35.4684 -14.9316 -15
      vertex 34.3869 -18.2603 -15
      vertex 38.3131 -19.0948 -15
    endloop
  endfacet
  facet normal 0 0 1
    outer loop
      vertex 32.47 -13.5966 -15
      vertex 34.3869 -18.2603 -15
      vertex 35.4684 -14.9316 -15
    endloop
  endfacet
  facet normal 0 0 1
    outer loop
      vertex 32.47 -13.5966 -15
      vertex 30.72 -16.6277 -15
      vertex 34.3869 -18.2603 -15
    endloop
  endfacet
  facet normal 0 0 1
    outer loop
      vertex 29.8146 -11.6674 -15
      vertex 30.72 -16.6277 -15
      vertex 32.47 -13.5966 -15
    endloop
  endfacet
  facet normal 0 0 1
    outer loop
      vertex 27.4727 -14.2684 -15
      vertex 29.8146 -11.6674 -15
      vertex 27.6184 -9.22823 -15
    endloop
  endfacet
  facet normal 0 0 1
    outer loop
      vertex 29.8146 -11.6674 -15
      vertex 27.4727 -14.2684 -15
      vertex 30.72 -16.6277 -15
    endloop
  endfacet
  facet normal 0 0 1
    outer loop
      vertex 24.7869 -11.2855 -15
      vertex 27.6184 -9.22823 -15
      vertex 25.9773 -6.38577 -15
    endloop
  endfacet
  facet normal 0 0 1
    outer loop
      vertex 22.7799 -7.80934 -15
      vertex 25.9773 -6.38577 -15
      vertex 24.9631 -3.26421 -15
    endloop
  endfacet
  facet normal 0 0 1
    outer loop
      vertex 27.6184 -9.22823 -15
      vertex 24.7869 -11.2855 -15
      vertex 27.4727 -14.2684 -15
    endloop
  endfacet
  facet normal 0 0 1
    outer loop
      vertex 21.5396 -3.9919 -15
      vertex 24.9631 -3.26421 -15
      vertex 24.62 0 -15
    endloop
  endfacet
  facet normal 0 0 1
    outer loop
      vertex 24.9631 3.26421 -15
      vertex 21.5396 3.9919 -15
      vertex 24.62 0 -15
    endloop
  endfacet
  facet normal 0 0 1
    outer loop
      vertex 25.9773 -6.38577 -15
      vertex 22.7799 -7.80934 -15
      vertex 24.7869 -11.2855 -15
    endloop
  endfacet
  facet normal 0 0 1
    outer loop
      vertex 21.12 0 -15
      vertex 24.62 0 -15
      vertex 21.5396 3.9919 -15
    endloop
  endfacet
  facet normal 0 0 1
    outer loop
      vertex 24.9631 -3.26421 -15
      vertex 21.5396 -3.9919 -15
      vertex 22.7799 -7.80934 -15
    endloop
  endfacet
  facet normal 0 0 1
    outer loop
      vertex 24.62 0 -15
      vertex 21.12 0 -15
      vertex 21.5396 -3.9919 -15
    endloop
  endfacet
  facet normal 0.951057 -0.309017 0
    outer loop
      vertex 57.8601 -7.80934 -15
      vertex 59.1004 -3.9919 -35
      vertex 59.1004 -3.9919 -15
    endloop
  endfacet
  facet normal 0.951057 -0.309017 0
    outer loop
      vertex 59.1004 -3.9919 -35
      vertex 57.8601 -7.80934 -15
      vertex 57.8601 -7.80934 -35
    endloop
  endfacet
  facet normal 0.743145 -0.669131 0
    outer loop
      vertex 53.1673 -14.2684 -15
      vertex 55.8531 -11.2855 -35
      vertex 55.8531 -11.2855 -15
    endloop
  endfacet
  facet normal 0.743145 -0.669131 0
    outer loop
      vertex 55.8531 -11.2855 -35
      vertex 53.1673 -14.2684 -15
      vertex 53.1673 -14.2684 -35
    endloop
  endfacet
  facet normal -0.743145 -0.669131 0
    outer loop
      vertex 27.4727 -14.2684 -35
      vertex 24.7869 -11.2855 -15
      vertex 24.7869 -11.2855 -35
    endloop
  endfacet
  facet normal -0.743145 -0.669131 0
    outer loop
      vertex 24.7869 -11.2855 -15
      vertex 27.4727 -14.2684 -35
      vertex 27.4727 -14.2684 -15
    endloop
  endfacet
  facet normal 0.406737 -0.913546 0
    outer loop
      vertex 46.2531 -18.2603 -35
      vertex 49.92 -16.6277 -15
      vertex 46.2531 -18.2603 -15
    endloop
  endfacet
  facet normal 0.406737 -0.913546 0
    outer loop
      vertex 49.92 -16.6277 -15
      vertex 46.2531 -18.2603 -35
      vertex 49.92 -16.6277 -35
    endloop
  endfacet
  facet normal -0.866025 0.5 0
    outer loop
      vertex 25.9773 6.38577 -15
      vertex 27.6184 9.22823 5.005
      vertex 27.6184 9.22823 -15
    endloop
  endfacet
  facet normal -0.866025 0.5 0
    outer loop
      vertex 27.6184 9.22823 5.005
      vertex 25.9773 6.38577 -15
      vertex 25.9773 6.38577 5.005
    endloop
  endfacet
  facet normal -0.743145 0.669131 0
    outer loop
      vertex 27.6184 9.22823 -15
      vertex 29.8146 11.6674 5.005
      vertex 29.8146 11.6674 -15
    endloop
  endfacet
  facet normal -0.743145 0.669131 0
    outer loop
      vertex 29.8146 11.6674 5.005
      vertex 27.6184 9.22823 -15
      vertex 27.6184 9.22823 5.005
    endloop
  endfacet
  facet normal -0.207912 0.978148 0
    outer loop
      vertex 38.6789 15.614 -15
      vertex 35.4684 14.9316 5.005
      vertex 38.6789 15.614 5.005
    endloop
  endfacet
  facet normal -0.207912 0.978148 0
    outer loop
      vertex 35.4684 14.9316 5.005
      vertex 38.6789 15.614 -15
      vertex 35.4684 14.9316 -15
    endloop
  endfacet
  facet normal -0.406737 0.913545 0
    outer loop
      vertex 35.4684 14.9316 -15
      vertex 32.47 13.5966 5.005
      vertex 35.4684 14.9316 5.005
    endloop
  endfacet
  facet normal -0.406737 0.913545 0
    outer loop
      vertex 32.47 13.5966 5.005
      vertex 35.4684 14.9316 -15
      vertex 32.47 13.5966 -15
    endloop
  endfacet
  facet normal 0.207912 0.978148 -0
    outer loop
      vertex 45.1716 14.9316 -15
      vertex 41.9611 15.614 5.005
      vertex 45.1716 14.9316 5.005
    endloop
  endfacet
  facet normal 0.207912 0.978148 0
    outer loop
      vertex 41.9611 15.614 5.005
      vertex 45.1716 14.9316 -15
      vertex 41.9611 15.614 -15
    endloop
  endfacet
  facet normal 0.866026 0.499999 0
    outer loop
      vertex 54.6627 6.38577 5.005
      vertex 53.0216 9.22823 -15
      vertex 53.0216 9.22823 5.005
    endloop
  endfacet
  facet normal 0.866026 0.499999 0
    outer loop
      vertex 53.0216 9.22823 -15
      vertex 54.6627 6.38577 5.005
      vertex 54.6627 6.38577 -15
    endloop
  endfacet
  facet normal -0.994522 -0.104528 0
    outer loop
      vertex 24.9631 -3.26421 -15
      vertex 24.62 0 5.005
      vertex 24.62 0 -15
    endloop
  endfacet
  facet normal -0.994522 -0.104528 0
    outer loop
      vertex 24.62 0 5.005
      vertex 24.9631 -3.26421 -15
      vertex 24.9631 -3.26421 5.005
    endloop
  endfacet
  facet normal -0.951057 0.309017 0
    outer loop
      vertex 24.9631 3.26421 -15
      vertex 25.9773 6.38577 5.005
      vertex 25.9773 6.38577 -15
    endloop
  endfacet
  facet normal -0.951057 0.309017 0
    outer loop
      vertex 25.9773 6.38577 5.005
      vertex 24.9631 3.26421 -15
      vertex 24.9631 3.26421 5.005
    endloop
  endfacet
  facet normal 0 1 -0
    outer loop
      vertex 41.9611 15.614 -15
      vertex 38.6789 15.614 5.005
      vertex 41.9611 15.614 5.005
    endloop
  endfacet
  facet normal 0 1 0
    outer loop
      vertex 38.6789 15.614 5.005
      vertex 41.9611 15.614 -15
      vertex 38.6789 15.614 -15
    endloop
  endfacet
  facet normal -0.587785 0.809017 0
    outer loop
      vertex 32.47 13.5966 -15
      vertex 29.8146 11.6674 5.005
      vertex 32.47 13.5966 5.005
    endloop
  endfacet
  facet normal -0.587785 0.809017 0
    outer loop
      vertex 29.8146 11.6674 5.005
      vertex 32.47 13.5966 -15
      vertex 29.8146 11.6674 -15
    endloop
  endfacet
  facet normal 0.994522 0.104528 0
    outer loop
      vertex 56.02 0 5.005
      vertex 55.6769 3.26421 -15
      vertex 55.6769 3.26421 5.005
    endloop
  endfacet
  facet normal 0.994522 0.104528 0
    outer loop
      vertex 55.6769 3.26421 -15
      vertex 56.02 0 5.005
      vertex 56.02 0 -15
    endloop
  endfacet
  facet normal 0.743145 0.669131 0
    outer loop
      vertex 53.0216 9.22823 5.005
      vertex 50.8254 11.6674 -15
      vertex 50.8254 11.6674 5.005
    endloop
  endfacet
  facet normal 0.743145 0.669131 0
    outer loop
      vertex 50.8254 11.6674 -15
      vertex 53.0216 9.22823 5.005
      vertex 53.0216 9.22823 -15
    endloop
  endfacet
  facet normal 0.406737 0.913545 -0
    outer loop
      vertex 48.17 13.5966 -15
      vertex 45.1716 14.9316 5.005
      vertex 48.17 13.5966 5.005
    endloop
  endfacet
  facet normal 0.406737 0.913545 0
    outer loop
      vertex 45.1716 14.9316 5.005
      vertex 48.17 13.5966 -15
      vertex 45.1716 14.9316 -15
    endloop
  endfacet
  facet normal 0.587785 0.809017 -0
    outer loop
      vertex 50.8254 11.6674 -15
      vertex 48.17 13.5966 5.005
      vertex 50.8254 11.6674 5.005
    endloop
  endfacet
  facet normal 0.587785 0.809017 0
    outer loop
      vertex 48.17 13.5966 5.005
      vertex 50.8254 11.6674 -15
      vertex 48.17 13.5966 -15
    endloop
  endfacet
  facet normal -0.994522 0.104528 0
    outer loop
      vertex 24.62 0 -15
      vertex 24.9631 3.26421 5.005
      vertex 24.9631 3.26421 -15
    endloop
  endfacet
  facet normal -0.994522 0.104528 0
    outer loop
      vertex 24.9631 3.26421 5.005
      vertex 24.62 0 -15
      vertex 24.62 0 5.005
    endloop
  endfacet
  facet normal -0.951057 -0.309017 0
    outer loop
      vertex 25.9773 -6.38577 -15
      vertex 24.9631 -3.26421 5.005
      vertex 24.9631 -3.26421 -15
    endloop
  endfacet
  facet normal -0.951057 -0.309017 0
    outer loop
      vertex 24.9631 -3.26421 5.005
      vertex 25.9773 -6.38577 -15
      vertex 25.9773 -6.38577 5.005
    endloop
  endfacet
  facet normal 0.587785 -0.809017 0
    outer loop
      vertex 48.17 -13.5966 -15
      vertex 50.8254 -11.6674 5.005
      vertex 48.17 -13.5966 5.005
    endloop
  endfacet
  facet normal 0.587785 -0.809017 0
    outer loop
      vertex 50.8254 -11.6674 5.005
      vertex 48.17 -13.5966 -15
      vertex 50.8254 -11.6674 -15
    endloop
  endfacet
  facet normal 0.866026 -0.499999 0
    outer loop
      vertex 53.0216 -9.22823 5.005
      vertex 54.6627 -6.38577 -15
      vertex 54.6627 -6.38577 5.005
    endloop
  endfacet
  facet normal 0.866026 -0.499999 0
    outer loop
      vertex 54.6627 -6.38577 -15
      vertex 53.0216 -9.22823 5.005
      vertex 53.0216 -9.22823 -15
    endloop
  endfacet
  facet normal -0.587785 -0.809017 0
    outer loop
      vertex 29.8146 -11.6674 -15
      vertex 32.47 -13.5966 5.005
      vertex 29.8146 -11.6674 5.005
    endloop
  endfacet
  facet normal -0.587785 -0.809017 -0
    outer loop
      vertex 32.47 -13.5966 5.005
      vertex 29.8146 -11.6674 -15
      vertex 32.47 -13.5966 -15
    endloop
  endfacet
  facet normal 0.951056 0.309017 0
    outer loop
      vertex 55.6769 3.26421 5.005
      vertex 54.6627 6.38577 -15
      vertex 54.6627 6.38577 5.005
    endloop
  endfacet
  facet normal 0.951056 0.309017 0
    outer loop
      vertex 54.6627 6.38577 -15
      vertex 55.6769 3.26421 5.005
      vertex 55.6769 3.26421 -15
    endloop
  endfacet
  facet normal -0.866025 -0.5 0
    outer loop
      vertex 27.6184 -9.22823 -15
      vertex 25.9773 -6.38577 5.005
      vertex 25.9773 -6.38577 -15
    endloop
  endfacet
  facet normal -0.866025 -0.5 0
    outer loop
      vertex 25.9773 -6.38577 5.005
      vertex 27.6184 -9.22823 -15
      vertex 27.6184 -9.22823 5.005
    endloop
  endfacet
  facet normal 0.994522 -0.104528 0
    outer loop
      vertex 55.6769 -3.26421 5.005
      vertex 56.02 0 -15
      vertex 56.02 0 5.005
    endloop
  endfacet
  facet normal 0.994522 -0.104528 0
    outer loop
      vertex 56.02 0 -15
      vertex 55.6769 -3.26421 5.005
      vertex 55.6769 -3.26421 -15
    endloop
  endfacet
  facet normal 0.743145 -0.669131 0
    outer loop
      vertex 50.8254 -11.6674 5.005
      vertex 53.0216 -9.22823 -15
      vertex 53.0216 -9.22823 5.005
    endloop
  endfacet
  facet normal 0.743145 -0.669131 0
    outer loop
      vertex 53.0216 -9.22823 -15
      vertex 50.8254 -11.6674 5.005
      vertex 50.8254 -11.6674 -15
    endloop
  endfacet
  facet normal -0.207912 -0.978148 0
    outer loop
      vertex 35.4684 -14.9316 -15
      vertex 38.6789 -15.614 5.005
      vertex 35.4684 -14.9316 5.005
    endloop
  endfacet
  facet normal -0.207912 -0.978148 -0
    outer loop
      vertex 38.6789 -15.614 5.005
      vertex 35.4684 -14.9316 -15
      vertex 38.6789 -15.614 -15
    endloop
  endfacet
  facet normal -0.406737 -0.913545 0
    outer loop
      vertex 32.47 -13.5966 -15
      vertex 35.4684 -14.9316 5.005
      vertex 32.47 -13.5966 5.005
    endloop
  endfacet
  facet normal -0.406737 -0.913545 -0
    outer loop
      vertex 35.4684 -14.9316 5.005
      vertex 32.47 -13.5966 -15
      vertex 35.4684 -14.9316 -15
    endloop
  endfacet
  facet normal 0 -1 0
    outer loop
      vertex 38.6789 -15.614 -15
      vertex 41.9611 -15.614 5.005
      vertex 38.6789 -15.614 5.005
    endloop
  endfacet
  facet normal 0 -1 -0
    outer loop
      vertex 41.9611 -15.614 5.005
      vertex 38.6789 -15.614 -15
      vertex 41.9611 -15.614 -15
    endloop
  endfacet
  facet normal 0.207912 -0.978148 0
    outer loop
      vertex 41.9611 -15.614 -15
      vertex 45.1716 -14.9316 5.005
      vertex 41.9611 -15.614 5.005
    endloop
  endfacet
  facet normal 0.207912 -0.978148 0
    outer loop
      vertex 45.1716 -14.9316 5.005
      vertex 41.9611 -15.614 -15
      vertex 45.1716 -14.9316 -15
    endloop
  endfacet
  facet normal 0 0 1
    outer loop
      vertex 52.32 0 5.005
      vertex 56.02 0 5.005
      vertex 55.6769 3.26421 5.005
    endloop
  endfacet
  facet normal 0 0 1
    outer loop
      vertex 52.0578 2.49494 5.005
      vertex 55.6769 3.26421 5.005
      vertex 54.6627 6.38577 5.005
    endloop
  endfacet
  facet normal 0 0 1
    outer loop
      vertex 56.02 0 5.005
      vertex 52.32 0 5.005
      vertex 55.6769 -3.26421 5.005
    endloop
  endfacet
  facet normal 0 0 1
    outer loop
      vertex 51.2825 4.88084 5.005
      vertex 54.6627 6.38577 5.005
      vertex 53.0216 9.22823 5.005
    endloop
  endfacet
  facet normal -0 0 1
    outer loop
      vertex 52.0578 -2.49494 5.005
      vertex 55.6769 -3.26421 5.005
      vertex 52.32 0 5.005
    endloop
  endfacet
  facet normal 0 0 1
    outer loop
      vertex 55.6769 -3.26421 5.005
      vertex 52.0578 -2.49494 5.005
      vertex 54.6627 -6.38577 5.005
    endloop
  endfacet
  facet normal 0 0 1
    outer loop
      vertex 55.6769 3.26421 5.005
      vertex 52.0578 2.49494 5.005
      vertex 52.32 0 5.005
    endloop
  endfacet
  facet normal 0 0 1
    outer loop
      vertex 54.6627 6.38577 5.005
      vertex 51.2825 4.88084 5.005
      vertex 52.0578 2.49494 5.005
    endloop
  endfacet
  facet normal 0 0 1
    outer loop
      vertex 50.0282 7.05342 5.005
      vertex 53.0216 9.22823 5.005
      vertex 50.8254 11.6674 5.005
    endloop
  endfacet
  facet normal 0 0 1
    outer loop
      vertex 53.0216 9.22823 5.005
      vertex 50.0282 7.05342 5.005
      vertex 51.2825 4.88084 5.005
    endloop
  endfacet
  facet normal 0 0 1
    outer loop
      vertex 50.8254 11.6674 5.005
      vertex 48.3496 8.91774 5.005
      vertex 50.0282 7.05342 5.005
    endloop
  endfacet
  facet normal 0 0 1
    outer loop
      vertex 48.17 13.5966 5.005
      vertex 48.3496 8.91774 5.005
      vertex 50.8254 11.6674 5.005
    endloop
  endfacet
  facet normal 0 0 1
    outer loop
      vertex 48.17 13.5966 5.005
      vertex 46.32 10.3923 5.005
      vertex 48.3496 8.91774 5.005
    endloop
  endfacet
  facet normal 0 0 1
    outer loop
      vertex 45.1716 14.9316 5.005
      vertex 46.32 10.3923 5.005
      vertex 48.17 13.5966 5.005
    endloop
  endfacet
  facet normal 0 0 1
    outer loop
      vertex 45.1716 14.9316 5.005
      vertex 44.0282 11.4127 5.005
      vertex 46.32 10.3923 5.005
    endloop
  endfacet
  facet normal 0 0 1
    outer loop
      vertex 41.9611 15.614 5.005
      vertex 44.0282 11.4127 5.005
      vertex 45.1716 14.9316 5.005
    endloop
  endfacet
  facet normal 0 0 1
    outer loop
      vertex 41.9611 15.614 5.005
      vertex 41.5743 11.9343 5.005
      vertex 44.0282 11.4127 5.005
    endloop
  endfacet
  facet normal 0 0 1
    outer loop
      vertex 41.9611 15.614 5.005
      vertex 39.0657 11.9343 5.005
      vertex 41.5743 11.9343 5.005
    endloop
  endfacet
  facet normal -0 0 1
    outer loop
      vertex 38.6789 15.614 5.005
      vertex 39.0657 11.9343 5.005
      vertex 41.9611 15.614 5.005
    endloop
  endfacet
  facet normal 0 0 1
    outer loop
      vertex 38.6789 15.614 5.005
      vertex 36.6118 11.4127 5.005
      vertex 39.0657 11.9343 5.005
    endloop
  endfacet
  facet normal -0 0 1
    outer loop
      vertex 35.4684 14.9316 5.005
      vertex 36.6118 11.4127 5.005
      vertex 38.6789 15.614 5.005
    endloop
  endfacet
  facet normal 0 0 1
    outer loop
      vertex 35.4684 14.9316 5.005
      vertex 34.32 10.3923 5.005
      vertex 36.6118 11.4127 5.005
    endloop
  endfacet
  facet normal -0 0 1
    outer loop
      vertex 32.47 13.5966 5.005
      vertex 34.32 10.3923 5.005
      vertex 35.4684 14.9316 5.005
    endloop
  endfacet
  facet normal 0 0 1
    outer loop
      vertex 32.47 13.5966 5.005
      vertex 32.2904 8.91774 5.005
      vertex 34.32 10.3923 5.005
    endloop
  endfacet
  facet normal -0 0 1
    outer loop
      vertex 29.8146 11.6674 5.005
      vertex 32.2904 8.91774 5.005
      vertex 32.47 13.5966 5.005
    endloop
  endfacet
  facet normal 0 0 1
    outer loop
      vertex 32.2904 8.91774 5.005
      vertex 29.8146 11.6674 5.005
      vertex 30.6118 7.05342 5.005
    endloop
  endfacet
  facet normal -0 0 1
    outer loop
      vertex 27.6184 9.22823 5.005
      vertex 30.6118 7.05342 5.005
      vertex 29.8146 11.6674 5.005
    endloop
  endfacet
  facet normal 0 0 1
    outer loop
      vertex 30.6118 7.05342 5.005
      vertex 27.6184 9.22823 5.005
      vertex 29.3575 4.88084 5.005
    endloop
  endfacet
  facet normal 0 0 1
    outer loop
      vertex 29.3575 4.88084 5.005
      vertex 25.9773 6.38577 5.005
      vertex 28.5822 2.49494 5.005
    endloop
  endfacet
  facet normal -0 0 1
    outer loop
      vertex 25.9773 6.38577 5.005
      vertex 29.3575 4.88084 5.005
      vertex 27.6184 9.22823 5.005
    endloop
  endfacet
  facet normal -0 0 1
    outer loop
      vertex 51.2825 -4.88084 5.005
      vertex 54.6627 -6.38577 5.005
      vertex 52.0578 -2.49494 5.005
    endloop
  endfacet
  facet normal 0 0 1
    outer loop
      vertex 54.6627 -6.38577 5.005
      vertex 51.2825 -4.88084 5.005
      vertex 53.0216 -9.22823 5.005
    endloop
  endfacet
  facet normal -0 0 1
    outer loop
      vertex 50.0282 -7.05342 5.005
      vertex 53.0216 -9.22823 5.005
      vertex 51.2825 -4.88084 5.005
    endloop
  endfacet
  facet normal 0 0 1
    outer loop
      vertex 53.0216 -9.22823 5.005
      vertex 50.0282 -7.05342 5.005
      vertex 50.8254 -11.6674 5.005
    endloop
  endfacet
  facet normal -0 0 1
    outer loop
      vertex 48.3496 -8.91774 5.005
      vertex 50.8254 -11.6674 5.005
      vertex 50.0282 -7.05342 5.005
    endloop
  endfacet
  facet normal 0 0 1
    outer loop
      vertex 48.3496 -8.91774 5.005
      vertex 48.17 -13.5966 5.005
      vertex 50.8254 -11.6674 5.005
    endloop
  endfacet
  facet normal -0 0 1
    outer loop
      vertex 46.32 -10.3923 5.005
      vertex 48.17 -13.5966 5.005
      vertex 48.3496 -8.91774 5.005
    endloop
  endfacet
  facet normal 0 0 1
    outer loop
      vertex 46.32 -10.3923 5.005
      vertex 45.1716 -14.9316 5.005
      vertex 48.17 -13.5966 5.005
    endloop
  endfacet
  facet normal -0 0 1
    outer loop
      vertex 44.0282 -11.4127 5.005
      vertex 45.1716 -14.9316 5.005
      vertex 46.32 -10.3923 5.005
    endloop
  endfacet
  facet normal 0 0 1
    outer loop
      vertex 44.0282 -11.4127 5.005
      vertex 41.9611 -15.614 5.005
      vertex 45.1716 -14.9316 5.005
    endloop
  endfacet
  facet normal -0 0 1
    outer loop
      vertex 41.5743 -11.9343 5.005
      vertex 41.9611 -15.614 5.005
      vertex 44.0282 -11.4127 5.005
    endloop
  endfacet
  facet normal -0 0 1
    outer loop
      vertex 39.0657 -11.9343 5.005
      vertex 41.9611 -15.614 5.005
      vertex 41.5743 -11.9343 5.005
    endloop
  endfacet
  facet normal 0 0 1
    outer loop
      vertex 39.0657 -11.9343 5.005
      vertex 38.6789 -15.614 5.005
      vertex 41.9611 -15.614 5.005
    endloop
  endfacet
  facet normal 0 0 1
    outer loop
      vertex 36.6118 -11.4127 5.005
      vertex 38.6789 -15.614 5.005
      vertex 39.0657 -11.9343 5.005
    endloop
  endfacet
  facet normal 0 0 1
    outer loop
      vertex 36.6118 -11.4127 5.005
      vertex 35.4684 -14.9316 5.005
      vertex 38.6789 -15.614 5.005
    endloop
  endfacet
  facet normal 0 0 1
    outer loop
      vertex 34.32 -10.3923 5.005
      vertex 35.4684 -14.9316 5.005
      vertex 36.6118 -11.4127 5.005
    endloop
  endfacet
  facet normal 0 0 1
    outer loop
      vertex 34.32 -10.3923 5.005
      vertex 32.47 -13.5966 5.005
      vertex 35.4684 -14.9316 5.005
    endloop
  endfacet
  facet normal 0 0 1
    outer loop
      vertex 32.2904 -8.91774 5.005
      vertex 32.47 -13.5966 5.005
      vertex 34.32 -10.3923 5.005
    endloop
  endfacet
  facet normal 0 0 1
    outer loop
      vertex 29.8146 -11.6674 5.005
      vertex 32.2904 -8.91774 5.005
      vertex 30.6118 -7.05342 5.005
    endloop
  endfacet
  facet normal 0 0 1
    outer loop
      vertex 32.2904 -8.91774 5.005
      vertex 29.8146 -11.6674 5.005
      vertex 32.47 -13.5966 5.005
    endloop
  endfacet
  facet normal 0 0 1
    outer loop
      vertex 27.6184 -9.22823 5.005
      vertex 30.6118 -7.05342 5.005
      vertex 29.3575 -4.88084 5.005
    endloop
  endfacet
  facet normal 0 0 1
    outer loop
      vertex 25.9773 -6.38577 5.005
      vertex 29.3575 -4.88084 5.005
      vertex 28.5822 -2.49494 5.005
    endloop
  endfacet
  facet normal 0 0 1
    outer loop
      vertex 30.6118 -7.05342 5.005
      vertex 27.6184 -9.22823 5.005
      vertex 29.8146 -11.6674 5.005
    endloop
  endfacet
  facet normal 0 0 1
    outer loop
      vertex 24.9631 -3.26421 5.005
      vertex 28.5822 -2.49494 5.005
      vertex 28.32 0 5.005
    endloop
  endfacet
  facet normal -0 0 1
    outer loop
      vertex 24.9631 3.26421 5.005
      vertex 28.5822 2.49494 5.005
      vertex 25.9773 6.38577 5.005
    endloop
  endfacet
  facet normal 0 0 1
    outer loop
      vertex 28.5822 2.49494 5.005
      vertex 24.9631 3.26421 5.005
      vertex 28.32 0 5.005
    endloop
  endfacet
  facet normal 0 0 1
    outer loop
      vertex 29.3575 -4.88084 5.005
      vertex 25.9773 -6.38577 5.005
      vertex 27.6184 -9.22823 5.005
    endloop
  endfacet
  facet normal 0 0 1
    outer loop
      vertex 24.62 0 5.005
      vertex 28.32 0 5.005
      vertex 24.9631 3.26421 5.005
    endloop
  endfacet
  facet normal 0 0 1
    outer loop
      vertex 28.5822 -2.49494 5.005
      vertex 24.9631 -3.26421 5.005
      vertex 25.9773 -6.38577 5.005
    endloop
  endfacet
  facet normal 0 0 1
    outer loop
      vertex 28.32 0 5.005
      vertex 24.62 0 5.005
      vertex 24.9631 -3.26421 5.005
    endloop
  endfacet
  facet normal 0.951056 -0.309017 0
    outer loop
      vertex 54.6627 -6.38577 5.005
      vertex 55.6769 -3.26421 -15
      vertex 55.6769 -3.26421 5.005
    endloop
  endfacet
  facet normal 0.951056 -0.309017 0
    outer loop
      vertex 55.6769 -3.26421 -15
      vertex 54.6627 -6.38577 5.005
      vertex 54.6627 -6.38577 -15
    endloop
  endfacet
  facet normal -0.743145 -0.669131 0
    outer loop
      vertex 29.8146 -11.6674 -15
      vertex 27.6184 -9.22823 5.005
      vertex 27.6184 -9.22823 -15
    endloop
  endfacet
  facet normal -0.743145 -0.669131 0
    outer loop
      vertex 27.6184 -9.22823 5.005
      vertex 29.8146 -11.6674 -15
      vertex 29.8146 -11.6674 5.005
    endloop
  endfacet
  facet normal 0.406737 -0.913545 0
    outer loop
      vertex 45.1716 -14.9316 -15
      vertex 48.17 -13.5966 5.005
      vertex 45.1716 -14.9316 5.005
    endloop
  endfacet
  facet normal 0.406737 -0.913545 0
    outer loop
      vertex 48.17 -13.5966 5.005
      vertex 45.1716 -14.9316 -15
      vertex 48.17 -13.5966 -15
    endloop
  endfacet
  facet normal 0.866025 -0.5 0
    outer loop
      vertex 29.3575 4.88084 5.005
      vertex 30.6118 7.05342 -35
      vertex 30.6118 7.05342 5.005
    endloop
  endfacet
  facet normal 0.866025 -0.5 0
    outer loop
      vertex 30.6118 7.05342 -35
      vertex 29.3575 4.88084 5.005
      vertex 29.3575 4.88084 -35
    endloop
  endfacet
  facet normal 0.743145 -0.66913 0
    outer loop
      vertex 30.6118 7.05342 5.005
      vertex 32.2904 8.91774 -35
      vertex 32.2904 8.91774 5.005
    endloop
  endfacet
  facet normal 0.743145 -0.66913 0
    outer loop
      vertex 32.2904 8.91774 -35
      vertex 30.6118 7.05342 5.005
      vertex 30.6118 7.05342 -35
    endloop
  endfacet
  facet normal -0.406736 -0.913546 0
    outer loop
      vertex 44.0282 11.4127 -35
      vertex 46.32 10.3923 5.005
      vertex 44.0282 11.4127 5.005
    endloop
  endfacet
  facet normal -0.406736 -0.913546 -0
    outer loop
      vertex 46.32 10.3923 5.005
      vertex 44.0282 11.4127 -35
      vertex 46.32 10.3923 -35
    endloop
  endfacet
  facet normal 0.994522 0.104529 0
    outer loop
      vertex 28.5822 -2.49494 5.005
      vertex 28.32 0 -35
      vertex 28.32 0 5.005
    endloop
  endfacet
  facet normal 0.994522 0.104529 0
    outer loop
      vertex 28.32 0 -35
      vertex 28.5822 -2.49494 5.005
      vertex 28.5822 -2.49494 -35
    endloop
  endfacet
  facet normal 0.951057 -0.309017 0
    outer loop
      vertex 28.5822 2.49494 5.005
      vertex 29.3575 4.88084 -35
      vertex 29.3575 4.88084 5.005
    endloop
  endfacet
  facet normal 0.951057 -0.309017 0
    outer loop
      vertex 29.3575 4.88084 -35
      vertex 28.5822 2.49494 5.005
      vertex 28.5822 2.49494 -35
    endloop
  endfacet
  facet normal 0.587785 -0.809017 0
    outer loop
      vertex 32.2904 8.91774 -35
      vertex 34.32 10.3923 5.005
      vertex 32.2904 8.91774 5.005
    endloop
  endfacet
  facet normal 0.587785 -0.809017 0
    outer loop
      vertex 34.32 10.3923 5.005
      vertex 32.2904 8.91774 -35
      vertex 34.32 10.3923 -35
    endloop
  endfacet
  facet normal 0 -1 0
    outer loop
      vertex 39.0657 11.9343 -35
      vertex 41.5743 11.9343 5.005
      vertex 39.0657 11.9343 5.005
    endloop
  endfacet
  facet normal 0 -1 -0
    outer loop
      vertex 41.5743 11.9343 5.005
      vertex 39.0657 11.9343 -35
      vertex 41.5743 11.9343 -35
    endloop
  endfacet
  facet normal 0.406736 -0.913546 0
    outer loop
      vertex 34.32 10.3923 -35
      vertex 36.6118 11.4127 5.005
      vertex 34.32 10.3923 5.005
    endloop
  endfacet
  facet normal 0.406736 -0.913546 0
    outer loop
      vertex 36.6118 11.4127 5.005
      vertex 34.32 10.3923 -35
      vertex 36.6118 11.4127 -35
    endloop
  endfacet
  facet normal -0.994522 -0.104529 0
    outer loop
      vertex 52.32 0 -35
      vertex 52.0578 2.49494 5.005
      vertex 52.0578 2.49494 -35
    endloop
  endfacet
  facet normal -0.994522 -0.104529 0
    outer loop
      vertex 52.0578 2.49494 5.005
      vertex 52.32 0 -35
      vertex 52.32 0 5.005
    endloop
  endfacet
  facet normal -0.866025 -0.500001 0
    outer loop
      vertex 51.2825 4.88084 -35
      vertex 50.0282 7.05342 5.005
      vertex 50.0282 7.05342 -35
    endloop
  endfacet
  facet normal -0.866025 -0.500001 0
    outer loop
      vertex 50.0282 7.05342 5.005
      vertex 51.2825 4.88084 -35
      vertex 51.2825 4.88084 5.005
    endloop
  endfacet
  facet normal -0.587785 -0.809017 0
    outer loop
      vertex 46.32 10.3923 -35
      vertex 48.3496 8.91774 5.005
      vertex 46.32 10.3923 5.005
    endloop
  endfacet
  facet normal -0.587785 -0.809017 -0
    outer loop
      vertex 48.3496 8.91774 5.005
      vertex 46.32 10.3923 -35
      vertex 48.3496 8.91774 -35
    endloop
  endfacet
  facet normal -0.207912 -0.978148 0
    outer loop
      vertex 41.5743 11.9343 -35
      vertex 44.0282 11.4127 5.005
      vertex 41.5743 11.9343 5.005
    endloop
  endfacet
  facet normal -0.207912 -0.978148 -0
    outer loop
      vertex 44.0282 11.4127 5.005
      vertex 41.5743 11.9343 -35
      vertex 44.0282 11.4127 -35
    endloop
  endfacet
  facet normal -0.743145 -0.66913 0
    outer loop
      vertex 50.0282 7.05342 -35
      vertex 48.3496 8.91774 5.005
      vertex 48.3496 8.91774 -35
    endloop
  endfacet
  facet normal -0.743145 -0.66913 0
    outer loop
      vertex 48.3496 8.91774 5.005
      vertex 50.0282 7.05342 -35
      vertex 50.0282 7.05342 5.005
    endloop
  endfacet
  facet normal 0.994522 -0.104529 0
    outer loop
      vertex 28.32 0 5.005
      vertex 28.5822 2.49494 -35
      vertex 28.5822 2.49494 5.005
    endloop
  endfacet
  facet normal 0.994522 -0.104529 0
    outer loop
      vertex 28.5822 2.49494 -35
      vertex 28.32 0 5.005
      vertex 28.32 0 -35
    endloop
  endfacet
  facet normal 0.951057 0.309017 0
    outer loop
      vertex 29.3575 -4.88084 5.005
      vertex 28.5822 -2.49494 -35
      vertex 28.5822 -2.49494 5.005
    endloop
  endfacet
  facet normal 0.951057 0.309017 0
    outer loop
      vertex 28.5822 -2.49494 -35
      vertex 29.3575 -4.88084 5.005
      vertex 29.3575 -4.88084 -35
    endloop
  endfacet
  facet normal -0.866025 0.500001 0
    outer loop
      vertex 50.0282 -7.05342 -35
      vertex 51.2825 -4.88084 5.005
      vertex 51.2825 -4.88084 -35
    endloop
  endfacet
  facet normal -0.866025 0.500001 0
    outer loop
      vertex 51.2825 -4.88084 5.005
      vertex 50.0282 -7.05342 -35
      vertex 50.0282 -7.05342 5.005
    endloop
  endfacet
  facet normal 0.587785 0.809017 -0
    outer loop
      vertex 34.32 -10.3923 -35
      vertex 32.2904 -8.91774 5.005
      vertex 34.32 -10.3923 5.005
    endloop
  endfacet
  facet normal 0.587785 0.809017 0
    outer loop
      vertex 32.2904 -8.91774 5.005
      vertex 34.32 -10.3923 -35
      vertex 32.2904 -8.91774 -35
    endloop
  endfacet
  facet normal 0.207912 -0.978148 0
    outer loop
      vertex 36.6118 11.4127 -35
      vertex 39.0657 11.9343 5.005
      vertex 36.6118 11.4127 5.005
    endloop
  endfacet
  facet normal 0.207912 -0.978148 0
    outer loop
      vertex 39.0657 11.9343 5.005
      vertex 36.6118 11.4127 -35
      vertex 39.0657 11.9343 -35
    endloop
  endfacet
  facet normal -0.951057 -0.309016 0
    outer loop
      vertex 52.0578 2.49494 -35
      vertex 51.2825 4.88084 5.005
      vertex 51.2825 4.88084 -35
    endloop
  endfacet
  facet normal -0.951057 -0.309016 0
    outer loop
      vertex 51.2825 4.88084 5.005
      vertex 52.0578 2.49494 -35
      vertex 52.0578 2.49494 5.005
    endloop
  endfacet
  facet normal 0.866025 0.5 0
    outer loop
      vertex 30.6118 -7.05342 5.005
      vertex 29.3575 -4.88084 -35
      vertex 29.3575 -4.88084 5.005
    endloop
  endfacet
  facet normal 0.866025 0.5 0
    outer loop
      vertex 29.3575 -4.88084 -35
      vertex 30.6118 -7.05342 5.005
      vertex 30.6118 -7.05342 -35
    endloop
  endfacet
  facet normal -0.994522 0.104529 0
    outer loop
      vertex 52.0578 -2.49494 -35
      vertex 52.32 0 5.005
      vertex 52.32 0 -35
    endloop
  endfacet
  facet normal -0.994522 0.104529 0
    outer loop
      vertex 52.32 0 5.005
      vertex 52.0578 -2.49494 -35
      vertex 52.0578 -2.49494 5.005
    endloop
  endfacet
  facet normal 0.207912 0.978148 -0
    outer loop
      vertex 39.0657 -11.9343 -35
      vertex 36.6118 -11.4127 5.005
      vertex 39.0657 -11.9343 5.005
    endloop
  endfacet
  facet normal 0.207912 0.978148 0
    outer loop
      vertex 36.6118 -11.4127 5.005
      vertex 39.0657 -11.9343 -35
      vertex 36.6118 -11.4127 -35
    endloop
  endfacet
  facet normal 0.406736 0.913546 -0
    outer loop
      vertex 36.6118 -11.4127 -35
      vertex 34.32 -10.3923 5.005
      vertex 36.6118 -11.4127 5.005
    endloop
  endfacet
  facet normal 0.406736 0.913546 0
    outer loop
      vertex 34.32 -10.3923 5.005
      vertex 36.6118 -11.4127 -35
      vertex 34.32 -10.3923 -35
    endloop
  endfacet
  facet normal -0.207912 0.978148 0
    outer loop
      vertex 44.0282 -11.4127 -35
      vertex 41.5743 -11.9343 5.005
      vertex 44.0282 -11.4127 5.005
    endloop
  endfacet
  facet normal -0.207912 0.978148 0
    outer loop
      vertex 41.5743 -11.9343 5.005
      vertex 44.0282 -11.4127 -35
      vertex 41.5743 -11.9343 -35
    endloop
  endfacet
  facet normal 0 1 -0
    outer loop
      vertex 41.5743 -11.9343 -35
      vertex 39.0657 -11.9343 5.005
      vertex 41.5743 -11.9343 5.005
    endloop
  endfacet
  facet normal 0 1 0
    outer loop
      vertex 39.0657 -11.9343 5.005
      vertex 41.5743 -11.9343 -35
      vertex 39.0657 -11.9343 -35
    endloop
  endfacet
  facet normal -0.951057 0.309016 0
    outer loop
      vertex 51.2825 -4.88084 -35
      vertex 52.0578 -2.49494 5.005
      vertex 52.0578 -2.49494 -35
    endloop
  endfacet
  facet normal -0.951057 0.309016 0
    outer loop
      vertex 52.0578 -2.49494 5.005
      vertex 51.2825 -4.88084 -35
      vertex 51.2825 -4.88084 5.005
    endloop
  endfacet
  facet normal -0.743145 0.66913 0
    outer loop
      vertex 48.3496 -8.91774 -35
      vertex 50.0282 -7.05342 5.005
      vertex 50.0282 -7.05342 -35
    endloop
  endfacet
  facet normal -0.743145 0.66913 0
    outer loop
      vertex 50.0282 -7.05342 5.005
      vertex 48.3496 -8.91774 -35
      vertex 48.3496 -8.91774 5.005
    endloop
  endfacet
  facet normal 0.743145 0.66913 0
    outer loop
      vertex 32.2904 -8.91774 5.005
      vertex 30.6118 -7.05342 -35
      vertex 30.6118 -7.05342 5.005
    endloop
  endfacet
  facet normal 0.743145 0.66913 0
    outer loop
      vertex 30.6118 -7.05342 -35
      vertex 32.2904 -8.91774 5.005
      vertex 32.2904 -8.91774 -35
    endloop
  endfacet
  facet normal -0.406736 0.913546 0
    outer loop
      vertex 46.32 -10.3923 -35
      vertex 44.0282 -11.4127 5.005
      vertex 46.32 -10.3923 5.005
    endloop
  endfacet
  facet normal -0.406736 0.913546 0
    outer loop
      vertex 44.0282 -11.4127 5.005
      vertex 46.32 -10.3923 -35
      vertex 44.0282 -11.4127 -35
    endloop
  endfacet
  facet normal -0.587785 0.809017 0
    outer loop
      vertex 48.3496 -8.91774 -35
      vertex 46.32 -10.3923 5.005
      vertex 48.3496 -8.91774 5.005
    endloop
  endfacet
  facet normal -0.587785 0.809017 0
    outer loop
      vertex 46.32 -10.3923 5.005
      vertex 48.3496 -8.91774 -35
      vertex 46.32 -10.3923 -35
    endloop
  endfacet
endsolid OpenSCAD_Model
