solid OpenSCAD_Model
  facet normal -1 0 0
    outer loop
      vertex 17.75 -6.25 0
      vertex 17.75 6.25 12
      vertex 17.75 6.25 0
    endloop
  endfacet
  facet normal -1 -0 0
    outer loop
      vertex 17.75 6.25 12
      vertex 17.75 -6.25 0
      vertex 17.75 -6.25 12
    endloop
  endfacet
  facet normal -0 0 1
    outer loop
      vertex 17.75 6.25 12
      vertex 18.5 -6.25 12
      vertex 18.5 6.25 12
    endloop
  endfacet
  facet normal 0 0 1
    outer loop
      vertex 18.5 -6.25 12
      vertex 17.75 6.25 12
      vertex 17.75 -6.25 12
    endloop
  endfacet
  facet normal -0 0 1
    outer loop
      vertex 31.5 6.25 12
      vertex 32.25 -6.25 12
      vertex 32.25 6.25 12
    endloop
  endfacet
  facet normal 0 0 1
    outer loop
      vertex 32.25 -6.25 12
      vertex 31.5 6.25 12
      vertex 31.5 -6.25 12
    endloop
  endfacet
  facet normal 1 -0 0
    outer loop
      vertex 32.25 -6.25 12
      vertex 32.25 6.25 0
      vertex 32.25 6.25 12
    endloop
  endfacet
  facet normal 1 0 0
    outer loop
      vertex 32.25 6.25 0
      vertex 32.25 -6.25 12
      vertex 32.25 -6.25 0
    endloop
  endfacet
  facet normal 0 1 0
    outer loop
      vertex 32.25 6.25 12
      vertex 31.5 6.25 1.75
      vertex 31.5 6.25 12
    endloop
  endfacet
  facet normal 0 1 0
    outer loop
      vertex 31.5 6.25 1.75
      vertex 32.25 6.25 0
      vertex 18.5 6.25 1.75
    endloop
  endfacet
  facet normal 0 1 -0
    outer loop
      vertex 32.25 6.25 0
      vertex 31.5 6.25 1.75
      vertex 32.25 6.25 12
    endloop
  endfacet
  facet normal 0 1 -0
    outer loop
      vertex 18.5 6.25 1.75
      vertex 17.75 6.25 12
      vertex 18.5 6.25 12
    endloop
  endfacet
  facet normal 0 1 0
    outer loop
      vertex 18.5 6.25 1.75
      vertex 17.75 6.25 0
      vertex 17.75 6.25 12
    endloop
  endfacet
  facet normal 0 1 0
    outer loop
      vertex 17.75 6.25 0
      vertex 18.5 6.25 1.75
      vertex 32.25 6.25 0
    endloop
  endfacet
  facet normal 0 0 -1
    outer loop
      vertex 17.75 -6.25 0
      vertex 32.25 6.25 0
      vertex 32.25 -6.25 0
    endloop
  endfacet
  facet normal -0 0 -1
    outer loop
      vertex 32.25 6.25 0
      vertex 17.75 -6.25 0
      vertex 17.75 6.25 0
    endloop
  endfacet
  facet normal 0 -1 0
    outer loop
      vertex 17.75 -6.25 12
      vertex 18.5 -6.25 1.75
      vertex 18.5 -6.25 12
    endloop
  endfacet
  facet normal 0 -1 -0
    outer loop
      vertex 18.5 -6.25 1.75
      vertex 17.75 -6.25 0
      vertex 31.5 -6.25 1.75
    endloop
  endfacet
  facet normal 0 -1 0
    outer loop
      vertex 17.75 -6.25 0
      vertex 18.5 -6.25 1.75
      vertex 17.75 -6.25 12
    endloop
  endfacet
  facet normal 0 -1 0
    outer loop
      vertex 31.5 -6.25 1.75
      vertex 32.25 -6.25 12
      vertex 31.5 -6.25 12
    endloop
  endfacet
  facet normal 0 -1 0
    outer loop
      vertex 31.5 -6.25 1.75
      vertex 32.25 -6.25 0
      vertex 32.25 -6.25 12
    endloop
  endfacet
  facet normal 0 -1 0
    outer loop
      vertex 32.25 -6.25 0
      vertex 31.5 -6.25 1.75
      vertex 17.75 -6.25 0
    endloop
  endfacet
  facet normal 1 -0 0
    outer loop
      vertex 18.5 -6.25 12
      vertex 18.5 6.25 1.75
      vertex 18.5 6.25 12
    endloop
  endfacet
  facet normal 1 0 0
    outer loop
      vertex 18.5 6.25 1.75
      vertex 18.5 -6.25 12
      vertex 18.5 -6.25 1.75
    endloop
  endfacet
  facet normal -1 0 0
    outer loop
      vertex 31.5 -6.25 1.75
      vertex 31.5 6.25 12
      vertex 31.5 6.25 1.75
    endloop
  endfacet
  facet normal -1 -0 0
    outer loop
      vertex 31.5 6.25 12
      vertex 31.5 -6.25 1.75
      vertex 31.5 -6.25 12
    endloop
  endfacet
  facet normal -0 0 1
    outer loop
      vertex 18.5 6.25 1.75
      vertex 31.5 -6.25 1.75
      vertex 31.5 6.25 1.75
    endloop
  endfacet
  facet normal 0 0 1
    outer loop
      vertex 31.5 -6.25 1.75
      vertex 18.5 6.25 1.75
      vertex 18.5 -6.25 1.75
    endloop
  endfacet
  facet normal -1 0 0
    outer loop
      vertex 8 -3 0
      vertex 8 3 12
      vertex 8 3 0
    endloop
  endfacet
  facet normal -1 -0 0
    outer loop
      vertex 8 3 12
      vertex 8 -3 0
      vertex 8 -3 12
    endloop
  endfacet
  facet normal -0 0 1
    outer loop
      vertex 8 3 12
      vertex 8.75 -3 12
      vertex 8.75 3 12
    endloop
  endfacet
  facet normal 0 0 1
    outer loop
      vertex 8.75 -3 12
      vertex 8 3 12
      vertex 8 -3 12
    endloop
  endfacet
  facet normal -0 0 1
    outer loop
      vertex 15.25 3 12
      vertex 16 -3 12
      vertex 16 3 12
    endloop
  endfacet
  facet normal 0 0 1
    outer loop
      vertex 16 -3 12
      vertex 15.25 3 12
      vertex 15.25 -3 12
    endloop
  endfacet
  facet normal 1 -0 0
    outer loop
      vertex 16 -3 12
      vertex 16 3 0
      vertex 16 3 12
    endloop
  endfacet
  facet normal 1 0 0
    outer loop
      vertex 16 3 0
      vertex 16 -3 12
      vertex 16 -3 0
    endloop
  endfacet
  facet normal 0 1 0
    outer loop
      vertex 16 3 12
      vertex 15.25 3 1.75
      vertex 15.25 3 12
    endloop
  endfacet
  facet normal 0 1 0
    outer loop
      vertex 15.25 3 1.75
      vertex 16 3 0
      vertex 8.75 3 1.75
    endloop
  endfacet
  facet normal 0 1 -0
    outer loop
      vertex 16 3 0
      vertex 15.25 3 1.75
      vertex 16 3 12
    endloop
  endfacet
  facet normal 0 1 -0
    outer loop
      vertex 8.75 3 1.75
      vertex 8 3 12
      vertex 8.75 3 12
    endloop
  endfacet
  facet normal 0 1 0
    outer loop
      vertex 8.75 3 1.75
      vertex 8 3 0
      vertex 8 3 12
    endloop
  endfacet
  facet normal 0 1 0
    outer loop
      vertex 8 3 0
      vertex 8.75 3 1.75
      vertex 16 3 0
    endloop
  endfacet
  facet normal 0 0 -1
    outer loop
      vertex 8 -3 0
      vertex 16 3 0
      vertex 16 -3 0
    endloop
  endfacet
  facet normal -0 0 -1
    outer loop
      vertex 16 3 0
      vertex 8 -3 0
      vertex 8 3 0
    endloop
  endfacet
  facet normal 0 -1 0
    outer loop
      vertex 8 -3 12
      vertex 8.75 -3 1.75
      vertex 8.75 -3 12
    endloop
  endfacet
  facet normal 0 -1 -0
    outer loop
      vertex 8.75 -3 1.75
      vertex 8 -3 0
      vertex 15.25 -3 1.75
    endloop
  endfacet
  facet normal 0 -1 0
    outer loop
      vertex 8 -3 0
      vertex 8.75 -3 1.75
      vertex 8 -3 12
    endloop
  endfacet
  facet normal 0 -1 0
    outer loop
      vertex 15.25 -3 1.75
      vertex 16 -3 12
      vertex 15.25 -3 12
    endloop
  endfacet
  facet normal 0 -1 0
    outer loop
      vertex 15.25 -3 1.75
      vertex 16 -3 0
      vertex 16 -3 12
    endloop
  endfacet
  facet normal 0 -1 0
    outer loop
      vertex 16 -3 0
      vertex 15.25 -3 1.75
      vertex 8 -3 0
    endloop
  endfacet
  facet normal 1 -0 0
    outer loop
      vertex 8.75 -3 12
      vertex 8.75 3 1.75
      vertex 8.75 3 12
    endloop
  endfacet
  facet normal 1 0 0
    outer loop
      vertex 8.75 3 1.75
      vertex 8.75 -3 12
      vertex 8.75 -3 1.75
    endloop
  endfacet
  facet normal -1 0 0
    outer loop
      vertex 15.25 -3 1.75
      vertex 15.25 3 12
      vertex 15.25 3 1.75
    endloop
  endfacet
  facet normal -1 -0 0
    outer loop
      vertex 15.25 3 12
      vertex 15.25 -3 1.75
      vertex 15.25 -3 12
    endloop
  endfacet
  facet normal -0 0 1
    outer loop
      vertex 8.75 3 1.75
      vertex 15.25 -3 1.75
      vertex 15.25 3 1.75
    endloop
  endfacet
  facet normal 0 0 1
    outer loop
      vertex 15.25 -3 1.75
      vertex 8.75 3 1.75
      vertex 8.75 -3 1.75
    endloop
  endfacet
endsolid OpenSCAD_Model
