solid OpenSCAD_Model
  facet normal -1 0 0
    outer loop
      vertex 14 -6 -10
      vertex 14 6 10
      vertex 14 6 -10
    endloop
  endfacet
  facet normal -1 -0 0
    outer loop
      vertex 14 6 10
      vertex 14 -6 -10
      vertex 14 -6 10
    endloop
  endfacet
  facet normal 0 0 1
    outer loop
      vertex 26 6 10
      vertex 22.5 2.5 10
      vertex 26 -6 10
    endloop
  endfacet
  facet normal 0 0 1
    outer loop
      vertex 26 6 10
      vertex 17.5 2.5 10
      vertex 22.5 2.5 10
    endloop
  endfacet
  facet normal 0 0 1
    outer loop
      vertex 17.5 2.5 10
      vertex 14 6 10
      vertex 17.5 -2.5 10
    endloop
  endfacet
  facet normal -0 0 1
    outer loop
      vertex 14 6 10
      vertex 17.5 2.5 10
      vertex 26 6 10
    endloop
  endfacet
  facet normal -0 0 1
    outer loop
      vertex 22.5 -2.5 10
      vertex 26 -6 10
      vertex 22.5 2.5 10
    endloop
  endfacet
  facet normal -0 0 1
    outer loop
      vertex 17.5 -2.5 10
      vertex 26 -6 10
      vertex 22.5 -2.5 10
    endloop
  endfacet
  facet normal 0 0 1
    outer loop
      vertex 17.5 -2.5 10
      vertex 14 -6 10
      vertex 26 -6 10
    endloop
  endfacet
  facet normal 0 0 1
    outer loop
      vertex 14 -6 10
      vertex 17.5 -2.5 10
      vertex 14 6 10
    endloop
  endfacet
  facet normal 1 -0 0
    outer loop
      vertex 26 -6 10
      vertex 26 6 -10
      vertex 26 6 10
    endloop
  endfacet
  facet normal 1 0 0
    outer loop
      vertex 26 6 -10
      vertex 26 -6 10
      vertex 26 -6 -10
    endloop
  endfacet
  facet normal 0 0 -1
    outer loop
      vertex 14 -6 -10
      vertex 26 6 -10
      vertex 26 -6 -10
    endloop
  endfacet
  facet normal -0 0 -1
    outer loop
      vertex 26 6 -10
      vertex 14 -6 -10
      vertex 14 6 -10
    endloop
  endfacet
  facet normal 0 -1 0
    outer loop
      vertex 14 -6 -10
      vertex 26 -6 10
      vertex 14 -6 10
    endloop
  endfacet
  facet normal 0 -1 -0
    outer loop
      vertex 26 -6 10
      vertex 14 -6 -10
      vertex 26 -6 -10
    endloop
  endfacet
  facet normal 0 1 -0
    outer loop
      vertex 26 6 -10
      vertex 14 6 10
      vertex 26 6 10
    endloop
  endfacet
  facet normal 0 1 0
    outer loop
      vertex 14 6 10
      vertex 26 6 -10
      vertex 14 6 -10
    endloop
  endfacet
  facet normal -1 0 0
    outer loop
      vertex 17.5 -2.5 10
      vertex 17.5 2.5 30
      vertex 17.5 2.5 10
    endloop
  endfacet
  facet normal -1 -0 0
    outer loop
      vertex 17.5 2.5 30
      vertex 17.5 -2.5 10
      vertex 17.5 -2.5 30
    endloop
  endfacet
  facet normal -0 0 1
    outer loop
      vertex 17.5 2.5 30
      vertex 22.5 -2.5 30
      vertex 22.5 2.5 30
    endloop
  endfacet
  facet normal 0 0 1
    outer loop
      vertex 22.5 -2.5 30
      vertex 17.5 2.5 30
      vertex 17.5 -2.5 30
    endloop
  endfacet
  facet normal 1 -0 0
    outer loop
      vertex 22.5 -2.5 30
      vertex 22.5 2.5 10
      vertex 22.5 2.5 30
    endloop
  endfacet
  facet normal 1 0 0
    outer loop
      vertex 22.5 2.5 10
      vertex 22.5 -2.5 30
      vertex 22.5 -2.5 10
    endloop
  endfacet
  facet normal 0 1 -0
    outer loop
      vertex 22.5 2.5 10
      vertex 17.5 2.5 30
      vertex 22.5 2.5 30
    endloop
  endfacet
  facet normal 0 1 0
    outer loop
      vertex 17.5 2.5 30
      vertex 22.5 2.5 10
      vertex 17.5 2.5 10
    endloop
  endfacet
  facet normal 0 -1 0
    outer loop
      vertex 17.5 -2.5 10
      vertex 22.5 -2.5 30
      vertex 17.5 -2.5 30
    endloop
  endfacet
  facet normal 0 -1 -0
    outer loop
      vertex 22.5 -2.5 30
      vertex 17.5 -2.5 10
      vertex 22.5 -2.5 10
    endloop
  endfacet
  facet normal -1 0 0
    outer loop
      vertex -3 -3 -10
      vertex -3 3 10
      vertex -3 3 -10
    endloop
  endfacet
  facet normal -1 -0 0
    outer loop
      vertex -3 3 10
      vertex -3 -3 -10
      vertex -3 -3 10
    endloop
  endfacet
  facet normal 0 0 1
    outer loop
      vertex 3 3 10
      vertex 1.5 1.5 10
      vertex 3 -3 10
    endloop
  endfacet
  facet normal 0 0 1
    outer loop
      vertex 3 3 10
      vertex -1.5 1.5 10
      vertex 1.5 1.5 10
    endloop
  endfacet
  facet normal 0 0 1
    outer loop
      vertex -1.5 1.5 10
      vertex -3 3 10
      vertex -1.5 -1.5 10
    endloop
  endfacet
  facet normal -0 0 1
    outer loop
      vertex -3 3 10
      vertex -1.5 1.5 10
      vertex 3 3 10
    endloop
  endfacet
  facet normal -0 0 1
    outer loop
      vertex 1.5 -1.5 10
      vertex 3 -3 10
      vertex 1.5 1.5 10
    endloop
  endfacet
  facet normal -0 0 1
    outer loop
      vertex -1.5 -1.5 10
      vertex 3 -3 10
      vertex 1.5 -1.5 10
    endloop
  endfacet
  facet normal 0 0 1
    outer loop
      vertex -1.5 -1.5 10
      vertex -3 -3 10
      vertex 3 -3 10
    endloop
  endfacet
  facet normal 0 0 1
    outer loop
      vertex -3 -3 10
      vertex -1.5 -1.5 10
      vertex -3 3 10
    endloop
  endfacet
  facet normal 1 -0 0
    outer loop
      vertex 3 -3 10
      vertex 3 3 -10
      vertex 3 3 10
    endloop
  endfacet
  facet normal 1 0 0
    outer loop
      vertex 3 3 -10
      vertex 3 -3 10
      vertex 3 -3 -10
    endloop
  endfacet
  facet normal 0 1 -0
    outer loop
      vertex 3 3 -10
      vertex -3 3 10
      vertex 3 3 10
    endloop
  endfacet
  facet normal 0 1 0
    outer loop
      vertex -3 3 10
      vertex 3 3 -10
      vertex -3 3 -10
    endloop
  endfacet
  facet normal 0 0 -1
    outer loop
      vertex -3 -3 -10
      vertex 3 3 -10
      vertex 3 -3 -10
    endloop
  endfacet
  facet normal -0 0 -1
    outer loop
      vertex 3 3 -10
      vertex -3 -3 -10
      vertex -3 3 -10
    endloop
  endfacet
  facet normal 0 -1 0
    outer loop
      vertex -3 -3 -10
      vertex 3 -3 10
      vertex -3 -3 10
    endloop
  endfacet
  facet normal 0 -1 -0
    outer loop
      vertex 3 -3 10
      vertex -3 -3 -10
      vertex 3 -3 -10
    endloop
  endfacet
  facet normal -1 0 0
    outer loop
      vertex -1.5 -1.5 10
      vertex -1.5 1.5 30
      vertex -1.5 1.5 10
    endloop
  endfacet
  facet normal -1 -0 0
    outer loop
      vertex -1.5 1.5 30
      vertex -1.5 -1.5 10
      vertex -1.5 -1.5 30
    endloop
  endfacet
  facet normal -0 0 1
    outer loop
      vertex -1.5 1.5 30
      vertex 1.5 -1.5 30
      vertex 1.5 1.5 30
    endloop
  endfacet
  facet normal 0 0 1
    outer loop
      vertex 1.5 -1.5 30
      vertex -1.5 1.5 30
      vertex -1.5 -1.5 30
    endloop
  endfacet
  facet normal 1 -0 0
    outer loop
      vertex 1.5 -1.5 30
      vertex 1.5 1.5 10
      vertex 1.5 1.5 30
    endloop
  endfacet
  facet normal 1 0 0
    outer loop
      vertex 1.5 1.5 10
      vertex 1.5 -1.5 30
      vertex 1.5 -1.5 10
    endloop
  endfacet
  facet normal 0 1 -0
    outer loop
      vertex 1.5 1.5 10
      vertex -1.5 1.5 30
      vertex 1.5 1.5 30
    endloop
  endfacet
  facet normal 0 1 0
    outer loop
      vertex -1.5 1.5 30
      vertex 1.5 1.5 10
      vertex -1.5 1.5 10
    endloop
  endfacet
  facet normal 0 -1 0
    outer loop
      vertex -1.5 -1.5 10
      vertex 1.5 -1.5 30
      vertex -1.5 -1.5 30
    endloop
  endfacet
  facet normal 0 -1 -0
    outer loop
      vertex 1.5 -1.5 30
      vertex -1.5 -1.5 10
      vertex 1.5 -1.5 10
    endloop
  endfacet
endsolid OpenSCAD_Model
