solid OpenSCAD_Model
  facet normal 1 -0 0
    outer loop
      vertex 2.245 -0.549999 2
      vertex 2.245 -0.546196 0.00500084
      vertex 2.245 -0.546196 2
    endloop
  endfacet
  facet normal 1 0 0
    outer loop
      vertex 2.245 -0.546196 0.00500084
      vertex 2.245 -0.549999 2
      vertex 2.245 -0.549999 0.00500084
    endloop
  endfacet
  facet normal 1 -0 0
    outer loop
      vertex 2.245 0.546186 2
      vertex 2.245 0.549999 0.00500084
      vertex 2.245 0.549999 2
    endloop
  endfacet
  facet normal 1 0 0
    outer loop
      vertex 2.245 0.549999 0.00500084
      vertex 2.245 0.546186 2
      vertex 2.245 0.546186 0.00500084
    endloop
  endfacet
  facet normal 0 -1 0
    outer loop
      vertex 2.245 0.549999 0.00500084
      vertex 3.25 0.549999 2
      vertex 2.245 0.549999 2
    endloop
  endfacet
  facet normal 0 -1 -0
    outer loop
      vertex 3.25 0.549999 2
      vertex 2.245 0.549999 0.00500084
      vertex 3.25 0.549999 0.00500084
    endloop
  endfacet
  facet normal -0 0 1
    outer loop
      vertex -3.25 0.2 0.00500084
      vertex 1.79001 -0.2 0.00500084
      vertex 1.79001 0.2 0.00500084
    endloop
  endfacet
  facet normal 0 0 1
    outer loop
      vertex 1.79001 -0.2 0.00500084
      vertex -3.25 0.2 0.00500084
      vertex -3.25 -0.2 0.00500084
    endloop
  endfacet
  facet normal -0 0 1
    outer loop
      vertex 1.79001 0.2 0.00500084
      vertex 2.245 -0.546196 0.00500084
      vertex 2.245 0.546186 0.00500084
    endloop
  endfacet
  facet normal -0 0 1
    outer loop
      vertex 1.79001 -0.2 0.00500084
      vertex 2.245 -0.546196 0.00500084
      vertex 1.79001 0.2 0.00500084
    endloop
  endfacet
  facet normal 0 0 1
    outer loop
      vertex 2.245 -0.546196 0.00500084
      vertex 1.79001 -0.2 0.00500084
      vertex 1.79001 -0.200008 0.00500084
    endloop
  endfacet
  facet normal 0 0 1
    outer loop
      vertex 2.245 0.546186 0.00500084
      vertex 3.25 0.549999 0.00500084
      vertex 2.245 0.549999 0.00500084
    endloop
  endfacet
  facet normal 0 0 1
    outer loop
      vertex 3.25 0.549999 0.00500084
      vertex 2.245 0.546186 0.00500084
      vertex 3.25 -0.549999 0.00500084
    endloop
  endfacet
  facet normal -0 0 1
    outer loop
      vertex 2.245 -0.546196 0.00500084
      vertex 3.25 -0.549999 0.00500084
      vertex 2.245 0.546186 0.00500084
    endloop
  endfacet
  facet normal 0 0 1
    outer loop
      vertex 3.25 -0.549999 0.00500084
      vertex 2.245 -0.546196 0.00500084
      vertex 2.245 -0.549999 0.00500084
    endloop
  endfacet
  facet normal 0 1 -0
    outer loop
      vertex 3.25 -0.549999 0.00500084
      vertex 2.245 -0.549999 2
      vertex 3.25 -0.549999 2
    endloop
  endfacet
  facet normal 0 1 0
    outer loop
      vertex 2.245 -0.549999 2
      vertex 3.25 -0.549999 0.00500084
      vertex 2.245 -0.549999 0.00500084
    endloop
  endfacet
  facet normal 0.60552 0.79583 -0
    outer loop
      vertex 2.245 -0.546196 0.00500084
      vertex 1.79001 -0.200008 2
      vertex 2.245 -0.546196 2
    endloop
  endfacet
  facet normal 0.60552 0.79583 0
    outer loop
      vertex 1.79001 -0.200008 2
      vertex 2.245 -0.546196 0.00500084
      vertex 1.79001 -0.200008 0.00500084
    endloop
  endfacet
  facet normal 0.605519 -0.795831 0
    outer loop
      vertex 1.79001 0.2 0.00500084
      vertex 2.245 0.546186 2
      vertex 1.79001 0.2 2
    endloop
  endfacet
  facet normal 0.605519 -0.795831 0
    outer loop
      vertex 2.245 0.546186 2
      vertex 1.79001 0.2 0.00500084
      vertex 2.245 0.546186 0.00500084
    endloop
  endfacet
  facet normal 1 -0 0
    outer loop
      vertex 1.79001 -0.200008 2
      vertex 1.79001 -0.2 0.00500084
      vertex 1.79001 -0.2 2
    endloop
  endfacet
  facet normal 1 0 0
    outer loop
      vertex 1.79001 -0.2 0.00500084
      vertex 1.79001 -0.200008 2
      vertex 1.79001 -0.200008 0.00500084
    endloop
  endfacet
  facet normal 0 -1 0
    outer loop
      vertex -3.25 0.2 0.00500084
      vertex 1.79001 0.2 2
      vertex -3.25 0.2 2
    endloop
  endfacet
  facet normal 0 -1 -0
    outer loop
      vertex 1.79001 0.2 2
      vertex -3.25 0.2 0.00500084
      vertex 1.79001 0.2 0.00500084
    endloop
  endfacet
  facet normal 0 1 -0
    outer loop
      vertex 1.79001 -0.2 0.00500084
      vertex -3.25 -0.2 2
      vertex 1.79001 -0.2 2
    endloop
  endfacet
  facet normal 0 1 0
    outer loop
      vertex -3.25 -0.2 2
      vertex 1.79001 -0.2 0.00500084
      vertex -3.25 -0.2 0.00500084
    endloop
  endfacet
  facet normal -1 0 0
    outer loop
      vertex -3.25 2.5 -2
      vertex -3.25 0.2 0.00500084
      vertex -3.25 2.5 2
    endloop
  endfacet
  facet normal -1 0 0
    outer loop
      vertex -3.25 2.5 -2
      vertex -3.25 -0.2 0.00500084
      vertex -3.25 0.2 0.00500084
    endloop
  endfacet
  facet normal -1 0 0
    outer loop
      vertex -3.25 -2.5 -2
      vertex -3.25 -0.2 0.00500084
      vertex -3.25 2.5 -2
    endloop
  endfacet
  facet normal -1 0 0
    outer loop
      vertex -3.25 -2.5 2
      vertex -3.25 -0.2 0.00500084
      vertex -3.25 -2.5 -2
    endloop
  endfacet
  facet normal -1 0 0
    outer loop
      vertex -3.25 -0.2 0.00500084
      vertex -3.25 -2.5 2
      vertex -3.25 -0.2 2
    endloop
  endfacet
  facet normal -1 -0 0
    outer loop
      vertex -3.25 2.5 2
      vertex -3.25 0.2 0.00500084
      vertex -3.25 0.2 2
    endloop
  endfacet
  facet normal 0 0 1
    outer loop
      vertex 1.79001 -0.2 2
      vertex -3.25 -0.2 2
      vertex 1.79001 -0.200008 2
    endloop
  endfacet
  facet normal 0 0 1
    outer loop
      vertex 2.245 -0.546196 2
      vertex 1.79001 -0.200008 2
      vertex 2.245 -0.549999 2
    endloop
  endfacet
  facet normal -0 0 1
    outer loop
      vertex 2.245 -0.549999 2
      vertex 3.25 -2.5 2
      vertex 3.25 -0.549999 2
    endloop
  endfacet
  facet normal 0 0 1
    outer loop
      vertex 1.79001 -0.200008 2
      vertex 3.25 -2.5 2
      vertex 2.245 -0.549999 2
    endloop
  endfacet
  facet normal 0 0 1
    outer loop
      vertex -3.25 -2.5 2
      vertex 1.79001 -0.200008 2
      vertex -3.25 -0.2 2
    endloop
  endfacet
  facet normal 0 0 1
    outer loop
      vertex 1.79001 -0.200008 2
      vertex -3.25 -2.5 2
      vertex 3.25 -2.5 2
    endloop
  endfacet
  facet normal 0 0 1
    outer loop
      vertex 3.25 2.5 2
      vertex 2.245 0.549999 2
      vertex 3.25 0.549999 2
    endloop
  endfacet
  facet normal 0 0 1
    outer loop
      vertex 2.245 0.549999 2
      vertex 1.79001 0.2 2
      vertex 2.245 0.546186 2
    endloop
  endfacet
  facet normal 0 0 1
    outer loop
      vertex 3.25 2.5 2
      vertex 1.79001 0.2 2
      vertex 2.245 0.549999 2
    endloop
  endfacet
  facet normal -0 0 1
    outer loop
      vertex -3.25 2.5 2
      vertex 1.79001 0.2 2
      vertex 3.25 2.5 2
    endloop
  endfacet
  facet normal 0 0 1
    outer loop
      vertex 1.79001 0.2 2
      vertex -3.25 2.5 2
      vertex -3.25 0.2 2
    endloop
  endfacet
  facet normal 1 0 0
    outer loop
      vertex 3.25 -0.549999 2
      vertex 3.25 -2.5 2
      vertex 3.25 -0.549999 0.00500084
    endloop
  endfacet
  facet normal 1 0 0
    outer loop
      vertex 3.25 0.549999 0.00500084
      vertex 3.25 2.5 2
      vertex 3.25 0.549999 2
    endloop
  endfacet
  facet normal 1 0 0
    outer loop
      vertex 3.25 2.5 2
      vertex 3.25 0.549999 0.00500084
      vertex 3.25 2.5 -2
    endloop
  endfacet
  facet normal 1 -0 0
    outer loop
      vertex 3.25 -0.549999 0.00500084
      vertex 3.25 2.5 -2
      vertex 3.25 0.549999 0.00500084
    endloop
  endfacet
  facet normal 1 0 0
    outer loop
      vertex 3.25 -0.549999 0.00500084
      vertex 3.25 -2.5 -2
      vertex 3.25 2.5 -2
    endloop
  endfacet
  facet normal 1 0 0
    outer loop
      vertex 3.25 -2.5 -2
      vertex 3.25 -0.549999 0.00500084
      vertex 3.25 -2.5 2
    endloop
  endfacet
  facet normal 0 0 -1
    outer loop
      vertex -3.25 -2.5 -2
      vertex 3.25 2.5 -2
      vertex 3.25 -2.5 -2
    endloop
  endfacet
  facet normal -0 0 -1
    outer loop
      vertex 3.25 2.5 -2
      vertex -3.25 -2.5 -2
      vertex -3.25 2.5 -2
    endloop
  endfacet
  facet normal 0 -1 0
    outer loop
      vertex -3.25 -2.5 -2
      vertex 3.25 -2.5 2
      vertex -3.25 -2.5 2
    endloop
  endfacet
  facet normal 0 -1 -0
    outer loop
      vertex 3.25 -2.5 2
      vertex -3.25 -2.5 -2
      vertex 3.25 -2.5 -2
    endloop
  endfacet
  facet normal 0 1 -0
    outer loop
      vertex 3.25 2.5 -2
      vertex -3.25 2.5 2
      vertex 3.25 2.5 2
    endloop
  endfacet
  facet normal 0 1 0
    outer loop
      vertex -3.25 2.5 2
      vertex 3.25 2.5 -2
      vertex -3.25 2.5 -2
    endloop
  endfacet
endsolid OpenSCAD_Model
