solid OpenSCAD_Model
  facet normal -0 0 1
    outer loop
      vertex -20.9189 -25 35
      vertex 44.5 -35 35
      vertex 44.5 -25 35
    endloop
  endfacet
  facet normal 0 0 1
    outer loop
      vertex 44.5 -35 35
      vertex -20.9189 -25 35
      vertex -20.9189 -35 35
    endloop
  endfacet
  facet normal 0 0 -1
    outer loop
      vertex -20.9189 -35 30
      vertex -17.8064 -25 30
      vertex -17.8064 -35 30
    endloop
  endfacet
  facet normal -0 0 -1
    outer loop
      vertex -17.8064 -25 30
      vertex -20.9189 -35 30
      vertex -20.9189 -25 30
    endloop
  endfacet
  facet normal 0 0 -1
    outer loop
      vertex -12.7293 -35 30
      vertex 39.5 -25 30
      vertex 39.5 -35 30
    endloop
  endfacet
  facet normal -0 0 -1
    outer loop
      vertex 39.5 -25 30
      vertex -12.7293 -35 30
      vertex -12.7293 -25 30
    endloop
  endfacet
  facet normal -1 0 0
    outer loop
      vertex 39.5 -35 25
      vertex 39.5 -25 30
      vertex 39.5 -25 25
    endloop
  endfacet
  facet normal -1 -0 0
    outer loop
      vertex 39.5 -25 30
      vertex 39.5 -35 25
      vertex 39.5 -35 30
    endloop
  endfacet
  facet normal 1 -0 0
    outer loop
      vertex 44.5 -35 35
      vertex 44.5 -25 25
      vertex 44.5 -25 35
    endloop
  endfacet
  facet normal 1 0 0
    outer loop
      vertex 44.5 -25 25
      vertex 44.5 -35 35
      vertex 44.5 -35 25
    endloop
  endfacet
  facet normal 0 0 -1
    outer loop
      vertex 39.5 -35 25
      vertex 44.5 -25 25
      vertex 44.5 -35 25
    endloop
  endfacet
  facet normal -0 0 -1
    outer loop
      vertex 44.5 -25 25
      vertex 39.5 -35 25
      vertex 39.5 -25 25
    endloop
  endfacet
  facet normal -1 0 0
    outer loop
      vertex -20.9189 -35 30
      vertex -20.9189 -25 35
      vertex -20.9189 -25 30
    endloop
  endfacet
  facet normal -1 -0 0
    outer loop
      vertex -20.9189 -25 35
      vertex -20.9189 -35 30
      vertex -20.9189 -35 35
    endloop
  endfacet
  facet normal 0.984808 -0 0.173648
    outer loop
      vertex -12.7293 -35 30
      vertex -2.09624 -25 -30.3031
      vertex -12.7293 -25 30
    endloop
  endfacet
  facet normal 0.984808 0 0.173648
    outer loop
      vertex -2.09624 -25 -30.3031
      vertex -12.7293 -35 30
      vertex -2.09624 -35 -30.3031
    endloop
  endfacet
  facet normal 0.173648 0 -0.984808
    outer loop
      vertex -7.02028 -35 -31.1714
      vertex -2.09624 -25 -30.3031
      vertex -2.09624 -35 -30.3031
    endloop
  endfacet
  facet normal 0.173648 0 -0.984808
    outer loop
      vertex -2.09624 -25 -30.3031
      vertex -7.02028 -35 -31.1714
      vertex -7.02028 -25 -31.1714
    endloop
  endfacet
  facet normal -0.984808 0 -0.173648
    outer loop
      vertex -7.02028 -35 -31.1714
      vertex -17.8064 -25 30
      vertex -7.02028 -25 -31.1714
    endloop
  endfacet
  facet normal -0.984808 -0 -0.173648
    outer loop
      vertex -17.8064 -25 30
      vertex -7.02028 -35 -31.1714
      vertex -17.8064 -35 30
    endloop
  endfacet
  facet normal 0 -1 0
    outer loop
      vertex -7.02028 -35 -31.1714
      vertex -12.7293 -35 30
      vertex -17.8064 -35 30
    endloop
  endfacet
  facet normal 0 -1 0
    outer loop
      vertex -12.7293 -35 30
      vertex -7.02028 -35 -31.1714
      vertex -2.09624 -35 -30.3031
    endloop
  endfacet
  facet normal 0 -1 0
    outer loop
      vertex -17.8064 -35 30
      vertex -20.9189 -35 35
      vertex -20.9189 -35 30
    endloop
  endfacet
  facet normal 0 -1 0
    outer loop
      vertex -12.7293 -35 30
      vertex -20.9189 -35 35
      vertex -17.8064 -35 30
    endloop
  endfacet
  facet normal 0 -1 0
    outer loop
      vertex -20.9189 -35 35
      vertex -12.7293 -35 30
      vertex 44.5 -35 35
    endloop
  endfacet
  facet normal 0 -1 0
    outer loop
      vertex 39.5 -35 30
      vertex 44.5 -35 35
      vertex -12.7293 -35 30
    endloop
  endfacet
  facet normal 0 -1 0
    outer loop
      vertex 44.5 -35 25
      vertex 39.5 -35 30
      vertex 39.5 -35 25
    endloop
  endfacet
  facet normal 0 -1 0
    outer loop
      vertex 39.5 -35 30
      vertex 44.5 -35 25
      vertex 44.5 -35 35
    endloop
  endfacet
  facet normal 0 1 -0
    outer loop
      vertex -7.02028 -25 -31.1714
      vertex -12.7293 -25 30
      vertex -2.09624 -25 -30.3031
    endloop
  endfacet
  facet normal 0 1 0
    outer loop
      vertex -12.7293 -25 30
      vertex -7.02028 -25 -31.1714
      vertex -17.8064 -25 30
    endloop
  endfacet
  facet normal 0 1 0
    outer loop
      vertex -12.7293 -25 30
      vertex 44.5 -25 35
      vertex 39.5 -25 30
    endloop
  endfacet
  facet normal 0 1 -0
    outer loop
      vertex 44.5 -25 25
      vertex 39.5 -25 30
      vertex 44.5 -25 35
    endloop
  endfacet
  facet normal 0 1 0
    outer loop
      vertex 39.5 -25 30
      vertex 44.5 -25 25
      vertex 39.5 -25 25
    endloop
  endfacet
  facet normal 0 1 0
    outer loop
      vertex 44.5 -25 35
      vertex -12.7293 -25 30
      vertex -20.9189 -25 35
    endloop
  endfacet
  facet normal 0 1 -0
    outer loop
      vertex -17.8064 -25 30
      vertex -20.9189 -25 35
      vertex -12.7293 -25 30
    endloop
  endfacet
  facet normal 0 1 0
    outer loop
      vertex -20.9189 -25 35
      vertex -17.8064 -25 30
      vertex -20.9189 -25 30
    endloop
  endfacet
endsolid OpenSCAD_Model
