<?xml version="1.0" encoding="UTF-8" standalone="no"?>
<!DOCTYPE svg PUBLIC "-//W3C//DTD SVG 1.1//EN" "http://www.w3.org/Graphics/SVG/1.1/DTD/svg11.dtd">
<!--Generated by Intaglio, www.PurgatoryDesign.com-->
<svg version="1.1" viewBox="431,231,477,84" width="477" height="84" xmlns="http://www.w3.org/2000/svg" xmlns:xlink="http://www.w3.org/1999/xlink"><image xlink:href="6000022c0000.png" width="476" height="83" transform="matrix(1,0,0,1,431.5,231)"/><path fill="#000" d="M685.771,311.968 C674.333,306.136,669.39,288.96,674.095,271.391 C674.584,269.566,674.119,269.195,670.651,268.64 C665.698,267.848,663.5,265.765,663.5,261.863 C663.5,256.213,664.92,255,671.535,255 C677.438,255,677.5,254.97,677.5,252.125 C677.5,243.288,680.605,240,688.949,240 C693.035,240,693.943,241.958,693.345,249.477 L692.986,254 L697.552,254 C704.437,254,706.05,255.664,705.76,262.467 C705.356,271.936,702.738,273.715,694.087,270.395 C692.696,269.861,692.5,271.159,692.5,280.893 C692.5,295.008,693.379,296.296,702.377,295.355 C710.387,294.518,711.24,296.768,706.842,307.135 C704.15,313.481,693.52,315.919,685.771,311.968 Z M826.5,312.248 C824.575,311.287,822.553,309.481,822.007,308.236 C821.355,306.749,820.497,306.195,819.507,306.621 C802.096,314.117,790.214,308.789,790.214,293.486 C790.214,280.631,803.516,273.788,815.719,280.366 C821.013,283.221,822.369,282.513,820.455,277.892 C818.825,273.957,814.506,271.85,806.795,271.231 C794.546,270.248,804.399,259,817.51,259 C834.761,259,841.691,269.967,839.512,293.819 C837.566,315.116,836.177,317.083,826.5,312.248 Z M815.973,298.576 C819.625,297.05,821.931,291.031,819.712,288.812 C817.221,286.321,809.781,286.628,807.076,289.333 C800.555,295.855,806.845,302.39,815.973,298.576 Z M536.232,311.259 C534.627,309.484,534.488,307.082,534.732,285.401 L535,261.5 L539.525,261.643 C546.174,261.852,551.434,264.364,552.799,267.983 C554.211,271.723,554.58,271.726,556.692,268.015 C561.876,258.903,575.874,258.886,580.665,267.984 C582.26,271.014,582.5,273.978,582.5,290.678 C582.5,312.874,582.446,313,573,313 C564.377,313,563.49,311.724,564.118,300.224 C564.942,285.142,561.162,276.104,556.437,281.861 C554.751,283.915,554.5,285.835,554.5,296.662 L554.5,309.102 L550.887,310.611 C544.592,313.242,538.275,313.521,536.232,311.259 Z M639.5,311.735 C638.125,311.056,636.157,308.688,635.126,306.474 L633.251,302.449 L630.065,305.635 C620.147,315.553,598.106,311.226,591.897,298.143 C580.019,273.111,604.969,248.433,627.75,262.68 L631.5,265.025 L631.5,256.615 C631.5,248.884,631.202,247.627,627.809,241.03 C622.713,231.124,625.44,229.833,641.962,234.332 L649.925,236.5 L651.727,245 C653.02,251.096,653.7,260.147,654.133,277 C654.614,295.726,655.097,301.548,656.51,305.658 C658.941,312.728,648.825,316.343,639.5,311.735 Z M626.538,292.75 L631,290.5 L631.294,283.242 C631.582,276.121,631.535,275.962,628.794,274.85 C618.256,270.575,608.5,274.086,608.5,282.155 C608.5,289.363,612.872,295,618.462,295 C620.45,295,624.084,293.988,626.538,292.75 Z M434.04,311.064 C433.722,310.55,433.175,293.112,432.824,272.314 C432.072,227.71,430.977,231.465,444.514,232.237 C456.727,232.933,456.5,232.635,456.5,247.956 C456.5,264.21,456.705,264.275,463.566,250.194 C470.863,235.218,470.181,235.717,484.08,235.185 C497.518,234.671,497.245,234.295,491.129,244.912 C473.364,275.752,473.495,272.999,488.579,298.538 C494.691,308.885,494.826,308.65,481.522,310.787 C469.212,312.764,470.671,313.972,463.996,296.273 C457.638,279.414,457.5,279.391,457.5,295.218 C457.5,302.708,457.227,309.548,456.893,310.418 C456.2,312.223,435.124,312.819,434.04,311.064 Z M504.584,311.073 C503.461,310.362,503.071,305.817,502.701,289.127 L502.234,268.078 L504.653,266.976 C509.514,264.761,526.787,267.037,527.608,270 C529.427,276.563,528.579,309.887,526.566,310.965 C524.201,312.231,506.55,312.317,504.584,311.073 Z M739.248,310.837 C735.396,309.43,735.411,309.608,735.721,269 L736,232.5 L742,232.218 C745.3,232.063,751.15,232.288,755,232.718 L762,233.5 L762,263.5 L762,293.5 L772.211,294.5 C784.318,295.686,784.699,295.971,784.304,303.58 C784.04,308.687,783.675,309.614,781.5,310.711 C778.429,312.258,743.427,312.363,739.248,310.837 Z M860.5,310.374 C851.069,308.612,849.607,305.772,848.427,286.921 C846.545,256.861,848.91,239.342,855.283,236.139 C868.828,229.331,869.689,230.089,869.3,248.469 L869,262.611 L873.332,259.556 C892.435,246.08,914.251,268.959,905.618,293.416 C900.883,306.827,881.175,314.235,860.5,310.374 Z M875.782,294.64 C888.399,289.308,887.839,268.925,875.145,271.44 C869.017,272.654,868.036,274.226,867.651,283.444 C867.189,294.527,869.27,297.392,875.782,294.64 Z M506.154,257.001 C498.325,250.127,499.745,237.959,508.881,233.623 C524.97,225.989,536.505,248.71,521.259,258.005 C516.255,261.057,510.324,260.662,506.154,257.001 Z"/></svg>
