solid OpenSCAD_Model
  facet normal -1 0 0
    outer loop
      vertex -20.5 -1 -3.5
      vertex -20.5 1 3.5
      vertex -20.5 1 -3.5
    endloop
  endfacet
  facet normal -1 -0 0
    outer loop
      vertex -20.5 1 3.5
      vertex -20.5 -1 -3.5
      vertex -20.5 -1 3.5
    endloop
  endfacet
  facet normal 0 0 1
    outer loop
      vertex 19.5 19 3.5
      vertex 21.5 19 3.5
      vertex 21.5 21 3.5
    endloop
  endfacet
  facet normal 0 0 1
    outer loop
      vertex 19.5 1 3.5
      vertex 21.5 19 3.5
      vertex 19.5 19 3.5
    endloop
  endfacet
  facet normal -0 0 1
    outer loop
      vertex -0.5 21 3.5
      vertex 19.5 19 3.5
      vertex 21.5 21 3.5
    endloop
  endfacet
  facet normal 0 0 1
    outer loop
      vertex 19.5 19 3.5
      vertex -0.5 21 3.5
      vertex -0.5 19 3.5
    endloop
  endfacet
  facet normal 0 0 1
    outer loop
      vertex 21.5 19 3.5
      vertex 19.5 1 3.5
      vertex 21.5 -1 3.5
    endloop
  endfacet
  facet normal 0 0 1
    outer loop
      vertex -20.5 -1 3.5
      vertex 19.5 1 3.5
      vertex -20.5 1 3.5
    endloop
  endfacet
  facet normal 0 0 1
    outer loop
      vertex 19.5 1 3.5
      vertex -20.5 -1 3.5
      vertex 21.5 -1 3.5
    endloop
  endfacet
  facet normal 0 0 -1
    outer loop
      vertex 19.5 1 -3.5
      vertex 21.5 19 -3.5
      vertex 21.5 -1 -3.5
    endloop
  endfacet
  facet normal 0 0 -1
    outer loop
      vertex 19.5 19 -3.5
      vertex 21.5 19 -3.5
      vertex 19.5 1 -3.5
    endloop
  endfacet
  facet normal 0 0 -1
    outer loop
      vertex -20.5 -1 -3.5
      vertex 19.5 1 -3.5
      vertex 21.5 -1 -3.5
    endloop
  endfacet
  facet normal -0 0 -1
    outer loop
      vertex 19.5 1 -3.5
      vertex -20.5 -1 -3.5
      vertex -20.5 1 -3.5
    endloop
  endfacet
  facet normal 0 0 -1
    outer loop
      vertex 21.5 19 -3.5
      vertex 19.5 19 -3.5
      vertex 21.5 21 -3.5
    endloop
  endfacet
  facet normal 0 0 -1
    outer loop
      vertex -0.5 21 -3.5
      vertex 19.5 19 -3.5
      vertex -0.5 19 -3.5
    endloop
  endfacet
  facet normal 0 0 -1
    outer loop
      vertex 19.5 19 -3.5
      vertex -0.5 21 -3.5
      vertex 21.5 21 -3.5
    endloop
  endfacet
  facet normal 0 -1 0
    outer loop
      vertex -20.5 -1 -3.5
      vertex 21.5 -1 3.5
      vertex -20.5 -1 3.5
    endloop
  endfacet
  facet normal 0 -1 -0
    outer loop
      vertex 21.5 -1 3.5
      vertex -20.5 -1 -3.5
      vertex 21.5 -1 -3.5
    endloop
  endfacet
  facet normal 0 1 -0
    outer loop
      vertex 19.5 1 -3.5
      vertex -20.5 1 3.5
      vertex 19.5 1 3.5
    endloop
  endfacet
  facet normal 0 1 0
    outer loop
      vertex -20.5 1 3.5
      vertex 19.5 1 -3.5
      vertex -20.5 1 -3.5
    endloop
  endfacet
  facet normal 0 1 -0
    outer loop
      vertex 21.5 21 -3.5
      vertex -0.5 21 3.5
      vertex 21.5 21 3.5
    endloop
  endfacet
  facet normal 0 1 0
    outer loop
      vertex -0.5 21 3.5
      vertex 21.5 21 -3.5
      vertex -0.5 21 -3.5
    endloop
  endfacet
  facet normal -1 0 0
    outer loop
      vertex 19.5 1 -3.5
      vertex 19.5 19 3.5
      vertex 19.5 19 -3.5
    endloop
  endfacet
  facet normal -1 -0 0
    outer loop
      vertex 19.5 19 3.5
      vertex 19.5 1 -3.5
      vertex 19.5 1 3.5
    endloop
  endfacet
  facet normal 1 -0 0
    outer loop
      vertex 21.5 -1 3.5
      vertex 21.5 19 -3.5
      vertex 21.5 19 3.5
    endloop
  endfacet
  facet normal 1 0 0
    outer loop
      vertex 21.5 19 -3.5
      vertex 21.5 -1 3.5
      vertex 21.5 -1 -3.5
    endloop
  endfacet
  facet normal -1 0 0
    outer loop
      vertex -0.5 19 -3.5
      vertex -0.5 21 3.5
      vertex -0.5 21 -3.5
    endloop
  endfacet
  facet normal -1 -0 0
    outer loop
      vertex -0.5 21 3.5
      vertex -0.5 19 -3.5
      vertex -0.5 19 3.5
    endloop
  endfacet
  facet normal 1 -0 0
    outer loop
      vertex 21.5 19 3.5
      vertex 21.5 21 -3.5
      vertex 21.5 21 3.5
    endloop
  endfacet
  facet normal 1 0 0
    outer loop
      vertex 21.5 21 -3.5
      vertex 21.5 19 3.5
      vertex 21.5 19 -3.5
    endloop
  endfacet
  facet normal 0 -1 0
    outer loop
      vertex -0.5 19 -3.5
      vertex 19.5 19 3.5
      vertex -0.5 19 3.5
    endloop
  endfacet
  facet normal 0 -1 -0
    outer loop
      vertex 19.5 19 3.5
      vertex -0.5 19 -3.5
      vertex 19.5 19 -3.5
    endloop
  endfacet
endsolid OpenSCAD_Model
