solid OpenSCAD_Model
  facet normal -0.173648 -3.33382e-07 0.984808
    outer loop
      vertex 28.5796 0 6.83
      vertex -0.148787 0 1.76441
      vertex 4.77525 -2 2.63265
    endloop
  endfacet
  facet normal -0.371384 -0.927951 -0.0313176
    outer loop
      vertex 4.77525 -2 2.63265
      vertex -0.148787 0 1.76441
      vertex 0 0 0
    endloop
  endfacet
  facet normal 0 1 0
    outer loop
      vertex -0.148787 0 1.76441
      vertex 28.5796 0 6.83
      vertex 0 0 0
    endloop
  endfacet
  facet normal 0 1 0
    outer loop
      vertex 0 0 0
      vertex 28.5796 0 6.83
      vertex 28.9133 0 2.91638
    endloop
  endfacet
  facet normal 0 1 0
    outer loop
      vertex 0 0 0
      vertex 28.9133 0 2.91638
      vertex 29.1716 0 0
    endloop
  endfacet
  facet normal 0.921079 0.381375 0.0785262
    outer loop
      vertex 28.9133 0 2.91638
      vertex 28.5796 0 6.83
      vertex 29.3954 -2 6.97385
    endloop
  endfacet
  facet normal -0.173648 9.95893e-08 0.984808
    outer loop
      vertex 28.5796 0 6.83
      vertex 4.77525 -2 2.63265
      vertex 29.3954 -2 6.97385
    endloop
  endfacet
  facet normal 0 -1 0
    outer loop
      vertex 29.3954 -2 6.97385
      vertex 4.77525 -2 2.63265
      vertex 5 -2 0
    endloop
  endfacet
  facet normal 0 -1 0
    outer loop
      vertex 29.7385 -2 2.98858
      vertex 29.3954 -2 6.97385
      vertex 5 -2 0
    endloop
  endfacet
  facet normal 0 -1 0
    outer loop
      vertex 30 -2 0
      vertex 29.7385 -2 2.98858
      vertex 5 -2 0
    endloop
  endfacet
  facet normal -0.371204 -0.92801 -0.0316897
    outer loop
      vertex 4.77525 -2 2.63265
      vertex 0 0 0
      vertex 5 -2 0
    endloop
  endfacet
  facet normal 0 0 -1
    outer loop
      vertex 0 0 0
      vertex 29.1716 0 0
      vertex 5 -2 0
    endloop
  endfacet
  facet normal 0 0 -1
    outer loop
      vertex 40 8 0
      vertex 29.1716 0 0
      vertex 39.1716 10 0
    endloop
  endfacet
  facet normal 0 0 -1
    outer loop
      vertex 29.1716 0 0
      vertex 30.7139 1.54233 0
      vertex 39.1716 10 0
    endloop
  endfacet
  facet normal 0 0 -1
    outer loop
      vertex 30.7139 1.54233 0
      vertex 32.842 3.67044 0
      vertex 39.1716 10 0
    endloop
  endfacet
  facet normal 0 0 -1
    outer loop
      vertex 30 -2 0
      vertex 29.1716 0 0
      vertex 40 8 0
    endloop
  endfacet
  facet normal 0 0 -1
    outer loop
      vertex 69.559 10 0
      vertex 40 8 0
      vertex 39.1716 10 0
    endloop
  endfacet
  facet normal 0 0 -1
    outer loop
      vertex 5 -2 0
      vertex 29.1716 0 0
      vertex 30 -2 0
    endloop
  endfacet
  facet normal 0 0 -1
    outer loop
      vertex 69.559 10 0
      vertex 77.9681 12.0375 0
      vertex 78.8092 10.223 0
    endloop
  endfacet
  facet normal 0 0 -1
    outer loop
      vertex 40 8 0
      vertex 69.559 10 0
      vertex 78.8092 10.223 0
    endloop
  endfacet
  facet normal 0 0 -1
    outer loop
      vertex 40 8 0
      vertex 78.8092 10.223 0
      vertex 70 8 0
    endloop
  endfacet
  facet normal -0.705785 0.705785 -0.0611171
    outer loop
      vertex 30.7139 1.54233 0
      vertex 29.1716 0 0
      vertex 30.4497 1.54233 3.0508
    endloop
  endfacet
  facet normal -0.704349 0.707107 -0.0623869
    outer loop
      vertex 29.1716 0 0
      vertex 28.9133 0 2.91638
      vertex 30.4497 1.54233 3.0508
    endloop
  endfacet
  facet normal -0.0871557 -8.80721e-08 0.996195
    outer loop
      vertex 30.4497 1.54233 3.0508
      vertex 28.9133 0 2.91638
      vertex 29.7385 -2 2.98858
    endloop
  endfacet
  facet normal 0.920475 0.382683 0.0792428
    outer loop
      vertex 29.7385 -2 2.98858
      vertex 28.9133 0 2.91638
      vertex 29.3954 -2 6.97385
    endloop
  endfacet
  facet normal -0.0871557 -8.68504e-08 0.996195
    outer loop
      vertex 30.4497 1.54233 3.0508
      vertex 29.7385 -2 2.98858
      vertex 39.7005 8 3.86014
    endloop
  endfacet
  facet normal 0.705005 -0.70709 0.0547034
    outer loop
      vertex 39.7005 8 3.86014
      vertex 29.7385 -2 2.98858
      vertex 40 8 0
    endloop
  endfacet
  facet normal 0.705758 -0.705758 0.0617457
    outer loop
      vertex 40 8 0
      vertex 29.7385 -2 2.98858
      vertex 30 -2 0
    endloop
  endfacet
  facet normal 0 -1 0
    outer loop
      vertex 68.7878 8 13.9198
      vertex 39.2435 8 8.71034
      vertex 39.7005 8 3.86014
    endloop
  endfacet
  facet normal 0 -1 0
    outer loop
      vertex 40 8 0
      vertex 68.7878 8 13.9198
      vertex 39.7005 8 3.86014
    endloop
  endfacet
  facet normal 0 -1 0
    outer loop
      vertex 40 8 0
      vertex 70 8 0
      vertex 68.7878 8 13.9198
    endloop
  endfacet
  facet normal 0.244639 -0.96938 0.0213051
    outer loop
      vertex 77.4631 10.223 15.4495
      vertex 68.7878 8 13.9198
      vertex 70 8 0
    endloop
  endfacet
  facet normal 0.244623 -0.969384 0.0213134
    outer loop
      vertex 78.6201 10.223 2.17067
      vertex 70 8 0
      vertex 78.8092 10.223 0
    endloop
  endfacet
  facet normal 0.244623 -0.969384 0.0213134
    outer loop
      vertex 76.7294 9.74212 2
      vertex 70 8 0
      vertex 78.6201 10.223 2.17067
    endloop
  endfacet
  facet normal 0.244623 -0.969384 0.0213134
    outer loop
      vertex 75.8292 9.734 11.9619
      vertex 70 8 0
      vertex 76.7294 9.74212 2
    endloop
  endfacet
  facet normal 0.244623 -0.969384 0.0213134
    outer loop
      vertex 77.4631 10.223 15.4495
      vertex 70 8 0
      vertex 75.8292 9.734 11.9619
    endloop
  endfacet
  facet normal 0.244623 -0.969384 0.0213134
    outer loop
      vertex 75.8292 9.734 11.9619
      vertex 77.7519 10.223 12.1355
      vertex 77.4631 10.223 15.4495
    endloop
  endfacet
  facet normal 0.904445 0.419249 0.0788021
    outer loop
      vertex 77.9681 12.0375 0
      vertex 77.898 11.7856 2.14503
      vertex 78.6201 10.223 2.17067
    endloop
  endfacet
  facet normal 0.904445 0.419249 0.0788021
    outer loop
      vertex 78.8092 10.223 0
      vertex 77.9681 12.0375 0
      vertex 78.6201 10.223 2.17067
    endloop
  endfacet
  facet normal 0.904455 0.419228 0.0787999
    outer loop
      vertex 77.9681 12.0375 0
      vertex 77.7816 12.0375 2.1409
      vertex 77.898 11.7856 2.14503
    endloop
  endfacet
  facet normal -0.235451 0.97167 -0.0205134
    outer loop
      vertex 77.9681 12.0375 0
      vertex 76.5577 11.7386 2.0307
      vertex 77.7816 12.0375 2.1409
    endloop
  endfacet
  facet normal -0.235437 0.971673 -0.0205032
    outer loop
      vertex 68.3534 10 13.8432
      vertex 76.1625 11.6549 2.5997
      vertex 69.559 10 0
    endloop
  endfacet
  facet normal -0.235437 0.971673 -0.0205032
    outer loop
      vertex 69.559 10 0
      vertex 76.1625 11.6549 2.5997
      vertex 76.2167 11.6554 2
    endloop
  endfacet
  facet normal -0.235437 0.971673 -0.0205032
    outer loop
      vertex 69.559 10 0
      vertex 76.2167 11.6554 2
      vertex 76.5577 11.7386 2.0307
    endloop
  endfacet
  facet normal -0.235437 0.971673 -0.0205032
    outer loop
      vertex 69.559 10 0
      vertex 76.5577 11.7386 2.0307
      vertex 77.9681 12.0375 0
    endloop
  endfacet
  facet normal 0 1 0
    outer loop
      vertex 38.4277 10 8.56648
      vertex 68.3534 10 13.8432
      vertex 38.8752 10 3.78794
    endloop
  endfacet
  facet normal 0 1 0
    outer loop
      vertex 38.8752 10 3.78794
      vertex 68.3534 10 13.8432
      vertex 69.559 10 0
    endloop
  endfacet
  facet normal 0 1 0
    outer loop
      vertex 38.8752 10 3.78794
      vertex 69.559 10 0
      vertex 39.1716 10 0
    endloop
  endfacet
  facet normal -0.706027 0.706027 -0.0552395
    outer loop
      vertex 39.1716 10 0
      vertex 32.842 3.67044 0
      vertex 38.8752 10 3.78794
    endloop
  endfacet
  facet normal -0.704619 0.707105 -0.0592826
    outer loop
      vertex 32.842 3.67044 0
      vertex 32.5697 3.67044 3.23628
      vertex 38.8752 10 3.78794
    endloop
  endfacet
  facet normal -0.705859 0.705859 -0.0593869
    outer loop
      vertex 32.842 3.67044 0
      vertex 30.7139 1.54233 0
      vertex 32.5697 3.67044 3.23628
    endloop
  endfacet
  facet normal -0.704471 0.707106 -0.0610033
    outer loop
      vertex 30.7139 1.54233 0
      vertex 30.4497 1.54233 3.0508
      vertex 32.5697 3.67044 3.23628
    endloop
  endfacet
  facet normal -0.0871563 7.97566e-07 0.996195
    outer loop
      vertex 32.5697 3.67044 3.23628
      vertex 30.4497 1.54233 3.0508
      vertex 39.7005 8 3.86014
    endloop
  endfacet
  facet normal -0.087156 2.81943e-07 0.996195
    outer loop
      vertex 38.8752 10 3.78794
      vertex 32.5697 3.67044 3.23628
      vertex 39.7005 8 3.86014
    endloop
  endfacet
  facet normal -0.919857 -0.382677 -0.0861472
    outer loop
      vertex 39.7005 8 3.86014
      vertex 38.4277 10 8.56648
      vertex 38.8752 10 3.78794
    endloop
  endfacet
  facet normal -0.920243 -0.381623 -0.0866999
    outer loop
      vertex 39.2435 8 8.71034
      vertex 38.4277 10 8.56648
      vertex 39.7005 8 3.86014
    endloop
  endfacet
  facet normal -0.173648 1.54597e-07 0.984808
    outer loop
      vertex 68.3534 10 13.8432
      vertex 39.2435 8 8.71034
      vertex 68.7878 8 13.9198
    endloop
  endfacet
  facet normal -0.173648 1.28616e-07 0.984808
    outer loop
      vertex 76.6348 12.0375 15.3034
      vertex 68.3534 10 13.8432
      vertex 68.7878 8 13.9198
    endloop
  endfacet
  facet normal -0.173648 -1.07812e-08 0.984808
    outer loop
      vertex 76.6348 12.0375 15.3034
      vertex 68.7878 8 13.9198
      vertex 77.4631 10.223 15.4495
    endloop
  endfacet
  facet normal -0.173648 2.79928e-08 0.984808
    outer loop
      vertex 68.3534 10 13.8432
      vertex 38.4277 10 8.56648
      vertex 39.2435 8 8.71034
    endloop
  endfacet
  facet normal 0.904455 0.419228 0.0787999
    outer loop
      vertex 76.9134 12.0375 12.1057
      vertex 76.6348 12.0375 15.3034
      vertex 77.4631 10.223 15.4495
    endloop
  endfacet
  facet normal 0.904455 0.419228 0.0787999
    outer loop
      vertex 77.5717 10.613 12.1291
      vertex 76.9134 12.0375 12.1057
      vertex 77.4631 10.223 15.4495
    endloop
  endfacet
  facet normal 0.904445 0.419249 0.0788021
    outer loop
      vertex 77.5717 10.613 12.1291
      vertex 77.4631 10.223 15.4495
      vertex 77.7519 10.223 12.1355
    endloop
  endfacet
  facet normal 0.084186 0.0225576 -0.996195
    outer loop
      vertex 77.5717 10.613 12.1291
      vertex 77.7519 10.223 12.1355
      vertex 75.8292 9.734 11.9619
    endloop
  endfacet
  facet normal 0.084186 0.0225576 -0.996195
    outer loop
      vertex 77.5717 10.613 12.1291
      vertex 75.8292 9.734 11.9619
      vertex 76.9134 12.0375 12.1057
    endloop
  endfacet
  facet normal 0.084186 0.0225576 -0.996195
    outer loop
      vertex 75.8292 9.734 11.9619
      vertex 75.3165 11.6475 11.9619
      vertex 76.9134 12.0375 12.1057
    endloop
  endfacet
  facet normal 0.96225 0.257834 0.0871557
    outer loop
      vertex 75.8292 9.734 11.9619
      vertex 76.7294 9.74212 2
      vertex 76.2167 11.6554 2
    endloop
  endfacet
  facet normal 0.96225 0.257834 0.0871557
    outer loop
      vertex 75.3165 11.6475 11.9619
      vertex 75.8292 9.734 11.9619
      vertex 76.1625 11.6549 2.5997
    endloop
  endfacet
  facet normal 0.96225 0.257834 0.0871557
    outer loop
      vertex 76.1625 11.6549 2.5997
      vertex 75.8292 9.734 11.9619
      vertex 76.2167 11.6554 2
    endloop
  endfacet
  facet normal -0.084186 -0.0225576 0.996195
    outer loop
      vertex 76.5577 11.7386 2.0307
      vertex 76.2167 11.6554 2
      vertex 76.7294 9.74212 2
    endloop
  endfacet
  facet normal -0.084186 -0.0225576 0.996195
    outer loop
      vertex 76.7294 9.74212 2
      vertex 78.6201 10.223 2.17067
      vertex 77.898 11.7856 2.14503
    endloop
  endfacet
  facet normal -0.084186 -0.0225576 0.996195
    outer loop
      vertex 77.7816 12.0375 2.1409
      vertex 76.7294 9.74212 2
      vertex 77.898 11.7856 2.14503
    endloop
  endfacet
  facet normal -0.084186 -0.0225576 0.996195
    outer loop
      vertex 77.7816 12.0375 2.1409
      vertex 76.5577 11.7386 2.0307
      vertex 76.7294 9.74212 2
    endloop
  endfacet
  facet normal -0.235451 0.97167 -0.0205134
    outer loop
      vertex 68.3534 10 13.8432
      vertex 76.6348 12.0375 15.3034
      vertex 75.3165 11.6475 11.9619
    endloop
  endfacet
  facet normal -0.235451 0.97167 -0.0205134
    outer loop
      vertex 68.3534 10 13.8432
      vertex 75.3165 11.6475 11.9619
      vertex 76.1625 11.6549 2.5997
    endloop
  endfacet
  facet normal -0.235451 0.97167 -0.0205134
    outer loop
      vertex 75.3165 11.6475 11.9619
      vertex 76.6348 12.0375 15.3034
      vertex 76.9134 12.0375 12.1057
    endloop
  endfacet
  facet normal -1 0 0
    outer loop
      vertex 39.2872 -3.96736 0
      vertex 39.2872 -3.96736 9
      vertex 39.2872 -1.96736 0
    endloop
  endfacet
  facet normal -1 0 0
    outer loop
      vertex 39.2872 -1.96736 0
      vertex 39.2872 -3.96736 9
      vertex 39.2872 -1.96736 9
    endloop
  endfacet
  facet normal -0.0933407 -0.995634 0
    outer loop
      vertex 39.2872 -3.96736 9
      vertex 39.2872 -3.96736 0
      vertex 47.2872 -4.71736 0
    endloop
  endfacet
  facet normal -0.0933407 -0.995634 0
    outer loop
      vertex 47.2872 -4.71736 9
      vertex 39.2872 -3.96736 9
      vertex 47.2872 -4.71736 0
    endloop
  endfacet
  facet normal 0 0 -1
    outer loop
      vertex 39.2872 -3.96736 0
      vertex 39.2872 -1.96736 0
      vertex 47.2872 -4.71736 0
    endloop
  endfacet
  facet normal 0 0 -1
    outer loop
      vertex 47.2872 -4.71736 0
      vertex 39.2872 -1.96736 0
      vertex 47.2872 -2.71736 0
    endloop
  endfacet
  facet normal 0 0 -1
    outer loop
      vertex 47.2872 -2.71736 0
      vertex 47.8049 4.21449 0
      vertex 47.2872 -4.71736 0
    endloop
  endfacet
  facet normal 0 0 -1
    outer loop
      vertex 47.2872 2.28264 0
      vertex 39.2872 1.53264 0
      vertex 39.2872 3.53264 0
    endloop
  endfacet
  facet normal 0 0 -1
    outer loop
      vertex 47.2872 2.28264 0
      vertex 39.2872 3.53264 0
      vertex 47.2872 4.28264 0
    endloop
  endfacet
  facet normal 0 0 -1
    outer loop
      vertex 47.2872 2.28264 0
      vertex 47.2872 4.28264 0
      vertex 47.8049 4.21449 0
    endloop
  endfacet
  facet normal 0 0 -1
    outer loop
      vertex 47.2872 2.28264 0
      vertex 47.8049 4.21449 0
      vertex 47.2872 -2.71736 0
    endloop
  endfacet
  facet normal 0 0 -1
    outer loop
      vertex 47.2872 -4.71736 0
      vertex 47.8049 4.21449 0
      vertex 48.2872 4.01469 0
    endloop
  endfacet
  facet normal 0 0 -1
    outer loop
      vertex 47.2872 -4.71736 0
      vertex 48.2872 4.01469 0
      vertex 48.7015 3.69685 0
    endloop
  endfacet
  facet normal 0 0 -1
    outer loop
      vertex 47.2872 -4.71736 0
      vertex 48.7015 3.69685 0
      vertex 49.0193 3.28264 0
    endloop
  endfacet
  facet normal 0 0 -1
    outer loop
      vertex 47.2872 -4.71736 0
      vertex 49.0193 3.28264 0
      vertex 49.2191 2.80028 0
    endloop
  endfacet
  facet normal 0 0 -1
    outer loop
      vertex 47.2872 -4.71736 0
      vertex 49.2191 2.80028 0
      vertex 49.2872 2.28264 0
    endloop
  endfacet
  facet normal 0 0 -1
    outer loop
      vertex 47.2872 -4.71736 0
      vertex 49.2872 2.28264 0
      vertex 49.2872 -2.71736 0
    endloop
  endfacet
  facet normal 0 0 -1
    outer loop
      vertex 47.2872 -4.71736 0
      vertex 49.2872 -2.71736 0
      vertex 49.2191 -3.235 0
    endloop
  endfacet
  facet normal 0 0 -1
    outer loop
      vertex 47.2872 -4.71736 0
      vertex 49.2191 -3.235 0
      vertex 49.0193 -3.71736 0
    endloop
  endfacet
  facet normal 0 0 -1
    outer loop
      vertex 47.2872 -4.71736 0
      vertex 49.0193 -3.71736 0
      vertex 48.7015 -4.13157 0
    endloop
  endfacet
  facet normal 0 0 -1
    outer loop
      vertex 47.2872 -4.71736 0
      vertex 48.7015 -4.13157 0
      vertex 48.2872 -4.44941 0
    endloop
  endfacet
  facet normal 0 0 -1
    outer loop
      vertex 47.2872 -4.71736 0
      vertex 48.2872 -4.44941 0
      vertex 47.8049 -4.64921 0
    endloop
  endfacet
  facet normal 0.0933407 0.995634 0
    outer loop
      vertex 39.2872 -1.96736 0
      vertex 39.2872 -1.96736 9
      vertex 47.2872 -2.71736 0
    endloop
  endfacet
  facet normal 0.0933407 0.995634 0
    outer loop
      vertex 47.2872 -2.71736 0
      vertex 39.2872 -1.96736 9
      vertex 47.2872 -2.71736 9
    endloop
  endfacet
  facet normal 0 0 1
    outer loop
      vertex 47.2872 -4.71736 9
      vertex 47.8049 -4.64921 9
      vertex 48.2872 -4.44941 9
    endloop
  endfacet
  facet normal 0 0 1
    outer loop
      vertex 49.0193 -3.71736 9
      vertex 47.2872 -4.71736 9
      vertex 48.7015 -4.13157 9
    endloop
  endfacet
  facet normal 0 0 1
    outer loop
      vertex 48.7015 -4.13157 9
      vertex 47.2872 -4.71736 9
      vertex 48.2872 -4.44941 9
    endloop
  endfacet
  facet normal 0 0 1
    outer loop
      vertex 49.2191 -3.235 9
      vertex 47.2872 -4.71736 9
      vertex 49.0193 -3.71736 9
    endloop
  endfacet
  facet normal 0 0 1
    outer loop
      vertex 49.2872 -2.71736 9
      vertex 47.2872 -4.71736 9
      vertex 49.2191 -3.235 9
    endloop
  endfacet
  facet normal 0 0 1
    outer loop
      vertex 49.2872 2.28264 9
      vertex 47.2872 -4.71736 9
      vertex 49.2872 -2.71736 9
    endloop
  endfacet
  facet normal 0 0 1
    outer loop
      vertex 49.2191 2.80028 9
      vertex 47.2872 -4.71736 9
      vertex 49.2872 2.28264 9
    endloop
  endfacet
  facet normal 0 0 1
    outer loop
      vertex 49.0193 3.28264 9
      vertex 47.2872 -4.71736 9
      vertex 49.2191 2.80028 9
    endloop
  endfacet
  facet normal 0 0 1
    outer loop
      vertex 48.7015 3.69685 9
      vertex 47.2872 -4.71736 9
      vertex 49.0193 3.28264 9
    endloop
  endfacet
  facet normal 0 0 1
    outer loop
      vertex 48.2872 4.01469 9
      vertex 47.2872 -4.71736 9
      vertex 48.7015 3.69685 9
    endloop
  endfacet
  facet normal 0 0 1
    outer loop
      vertex 47.8049 4.21449 9
      vertex 47.2872 -4.71736 9
      vertex 48.2872 4.01469 9
    endloop
  endfacet
  facet normal 0 0 1
    outer loop
      vertex 47.2872 4.28264 9
      vertex 47.2872 2.28264 9
      vertex 47.8049 4.21449 9
    endloop
  endfacet
  facet normal 0 0 1
    outer loop
      vertex 47.2872 2.28264 9
      vertex 47.2872 -2.71736 9
      vertex 47.8049 4.21449 9
    endloop
  endfacet
  facet normal 0 0 1
    outer loop
      vertex 39.2872 3.53264 9
      vertex 47.2872 2.28264 9
      vertex 47.2872 4.28264 9
    endloop
  endfacet
  facet normal 0 0 1
    outer loop
      vertex 47.2872 -2.71736 9
      vertex 47.2872 -4.71736 9
      vertex 47.8049 4.21449 9
    endloop
  endfacet
  facet normal 0 0 1
    outer loop
      vertex 47.2872 -2.71736 9
      vertex 39.2872 -1.96736 9
      vertex 47.2872 -4.71736 9
    endloop
  endfacet
  facet normal 0 0 1
    outer loop
      vertex 39.2872 -3.96736 9
      vertex 47.2872 -4.71736 9
      vertex 39.2872 -1.96736 9
    endloop
  endfacet
  facet normal 0 0 1
    outer loop
      vertex 39.2872 1.53264 9
      vertex 47.2872 2.28264 9
      vertex 39.2872 3.53264 9
    endloop
  endfacet
  facet normal 0.130526 -0.991445 0
    outer loop
      vertex 47.2872 -4.71736 9
      vertex 47.2872 -4.71736 0
      vertex 47.8049 -4.64921 0
    endloop
  endfacet
  facet normal 0.130526 -0.991445 0
    outer loop
      vertex 47.8049 -4.64921 9
      vertex 47.2872 -4.71736 9
      vertex 47.8049 -4.64921 0
    endloop
  endfacet
  facet normal 0.382684 -0.923879 0
    outer loop
      vertex 47.8049 -4.64921 9
      vertex 47.8049 -4.64921 0
      vertex 48.2872 -4.44941 0
    endloop
  endfacet
  facet normal 0.382684 -0.923879 0
    outer loop
      vertex 48.2872 -4.44941 9
      vertex 47.8049 -4.64921 9
      vertex 48.2872 -4.44941 0
    endloop
  endfacet
  facet normal 0.608762 -0.793353 0
    outer loop
      vertex 48.2872 -4.44941 9
      vertex 48.2872 -4.44941 0
      vertex 48.7015 -4.13157 0
    endloop
  endfacet
  facet normal 0.608762 -0.793353 0
    outer loop
      vertex 48.7015 -4.13157 9
      vertex 48.2872 -4.44941 9
      vertex 48.7015 -4.13157 0
    endloop
  endfacet
  facet normal 0.793353 -0.608762 0
    outer loop
      vertex 48.7015 -4.13157 9
      vertex 48.7015 -4.13157 0
      vertex 49.0193 -3.71736 0
    endloop
  endfacet
  facet normal 0.793353 -0.608762 0
    outer loop
      vertex 49.0193 -3.71736 9
      vertex 48.7015 -4.13157 9
      vertex 49.0193 -3.71736 0
    endloop
  endfacet
  facet normal 0.92388 -0.382683 0
    outer loop
      vertex 49.0193 -3.71736 9
      vertex 49.0193 -3.71736 0
      vertex 49.2191 -3.235 0
    endloop
  endfacet
  facet normal 0.92388 -0.382683 0
    outer loop
      vertex 49.2191 -3.235 9
      vertex 49.0193 -3.71736 9
      vertex 49.2191 -3.235 0
    endloop
  endfacet
  facet normal 0.991445 -0.130527 0
    outer loop
      vertex 49.2191 -3.235 9
      vertex 49.2191 -3.235 0
      vertex 49.2872 -2.71736 0
    endloop
  endfacet
  facet normal 0.991445 -0.130527 0
    outer loop
      vertex 49.2872 -2.71736 9
      vertex 49.2191 -3.235 9
      vertex 49.2872 -2.71736 0
    endloop
  endfacet
  facet normal 1 0 0
    outer loop
      vertex 49.2872 -2.71736 9
      vertex 49.2872 -2.71736 0
      vertex 49.2872 2.28264 0
    endloop
  endfacet
  facet normal 1 0 0
    outer loop
      vertex 49.2872 2.28264 9
      vertex 49.2872 -2.71736 9
      vertex 49.2872 2.28264 0
    endloop
  endfacet
  facet normal 0.991445 0.130527 0
    outer loop
      vertex 49.2872 2.28264 0
      vertex 49.2191 2.80028 0
      vertex 49.2191 2.80028 9
    endloop
  endfacet
  facet normal 0.991445 0.130527 0
    outer loop
      vertex 49.2872 2.28264 9
      vertex 49.2872 2.28264 0
      vertex 49.2191 2.80028 9
    endloop
  endfacet
  facet normal 0.92388 0.382682 0
    outer loop
      vertex 49.2191 2.80028 0
      vertex 49.0193 3.28264 0
      vertex 49.0193 3.28264 9
    endloop
  endfacet
  facet normal 0.92388 0.382682 0
    outer loop
      vertex 49.2191 2.80028 9
      vertex 49.2191 2.80028 0
      vertex 49.0193 3.28264 9
    endloop
  endfacet
  facet normal 0.793352 0.608763 0
    outer loop
      vertex 49.0193 3.28264 0
      vertex 48.7015 3.69685 0
      vertex 48.7015 3.69685 9
    endloop
  endfacet
  facet normal 0.793352 0.608763 0
    outer loop
      vertex 49.0193 3.28264 9
      vertex 49.0193 3.28264 0
      vertex 48.7015 3.69685 9
    endloop
  endfacet
  facet normal 0.608762 0.793353 0
    outer loop
      vertex 48.2872 4.01469 0
      vertex 48.2872 4.01469 9
      vertex 48.7015 3.69685 0
    endloop
  endfacet
  facet normal 0.608762 0.793353 0
    outer loop
      vertex 48.7015 3.69685 0
      vertex 48.2872 4.01469 9
      vertex 48.7015 3.69685 9
    endloop
  endfacet
  facet normal 0.382684 0.923879 0
    outer loop
      vertex 47.8049 4.21449 0
      vertex 47.8049 4.21449 9
      vertex 48.2872 4.01469 0
    endloop
  endfacet
  facet normal 0.382684 0.923879 0
    outer loop
      vertex 48.2872 4.01469 0
      vertex 47.8049 4.21449 9
      vertex 48.2872 4.01469 9
    endloop
  endfacet
  facet normal 0.130527 0.991445 0
    outer loop
      vertex 47.2872 4.28264 0
      vertex 47.2872 4.28264 9
      vertex 47.8049 4.21449 0
    endloop
  endfacet
  facet normal 0.130527 0.991445 0
    outer loop
      vertex 47.8049 4.21449 0
      vertex 47.2872 4.28264 9
      vertex 47.8049 4.21449 9
    endloop
  endfacet
  facet normal -0.0933407 0.995634 0
    outer loop
      vertex 39.2872 3.53264 0
      vertex 39.2872 3.53264 9
      vertex 47.2872 4.28264 0
    endloop
  endfacet
  facet normal -0.0933407 0.995634 0
    outer loop
      vertex 47.2872 4.28264 0
      vertex 39.2872 3.53264 9
      vertex 47.2872 4.28264 9
    endloop
  endfacet
  facet normal -1 0 0
    outer loop
      vertex 39.2872 1.53264 0
      vertex 39.2872 1.53264 9
      vertex 39.2872 3.53264 0
    endloop
  endfacet
  facet normal -1 0 0
    outer loop
      vertex 39.2872 3.53264 0
      vertex 39.2872 1.53264 9
      vertex 39.2872 3.53264 9
    endloop
  endfacet
  facet normal 0.0933407 -0.995634 0
    outer loop
      vertex 39.2872 1.53264 9
      vertex 39.2872 1.53264 0
      vertex 47.2872 2.28264 0
    endloop
  endfacet
  facet normal 0.0933407 -0.995634 0
    outer loop
      vertex 47.2872 2.28264 9
      vertex 39.2872 1.53264 9
      vertex 47.2872 2.28264 0
    endloop
  endfacet
  facet normal -1 0 0
    outer loop
      vertex 47.2872 -2.71736 0
      vertex 47.2872 -2.71736 9
      vertex 47.2872 2.28264 0
    endloop
  endfacet
  facet normal -1 0 0
    outer loop
      vertex 47.2872 2.28264 0
      vertex 47.2872 -2.71736 9
      vertex 47.2872 2.28264 9
    endloop
  endfacet
  facet normal -0.173648 -4.20207e-07 0.984808
    outer loop
      vertex 27.1743 4.63641 6.83
      vertex -1.5541 4.63641 1.76441
      vertex 3.36994 2.63641 2.63265
    endloop
  endfacet
  facet normal -0.371384 -0.927951 -0.0313176
    outer loop
      vertex 3.36994 2.63641 2.63265
      vertex -1.5541 4.63641 1.76441
      vertex -1.40531 4.63641 0
    endloop
  endfacet
  facet normal 0 1 0
    outer loop
      vertex -1.5541 4.63641 1.76441
      vertex 27.1743 4.63641 6.83
      vertex -1.40531 4.63641 0
    endloop
  endfacet
  facet normal 0 1 0
    outer loop
      vertex -1.40531 4.63641 0
      vertex 27.1743 4.63641 6.83
      vertex 27.5079 4.63641 2.91638
    endloop
  endfacet
  facet normal 0 1 0
    outer loop
      vertex -1.40531 4.63641 0
      vertex 27.5079 4.63641 2.91638
      vertex 27.7663 4.63641 0
    endloop
  endfacet
  facet normal 0.921079 0.381375 0.0785262
    outer loop
      vertex 27.5079 4.63641 2.91638
      vertex 27.1743 4.63641 6.83
      vertex 27.9901 2.63641 6.97385
    endloop
  endfacet
  facet normal -0.173648 9.67122e-08 0.984808
    outer loop
      vertex 27.1743 4.63641 6.83
      vertex 3.36994 2.63641 2.63265
      vertex 27.9901 2.63641 6.97385
    endloop
  endfacet
  facet normal 0 -1 0
    outer loop
      vertex 27.9901 2.63641 6.97385
      vertex 3.36994 2.63641 2.63265
      vertex 3.59469 2.63641 0
    endloop
  endfacet
  facet normal 0 -1 0
    outer loop
      vertex 28.3332 2.63641 2.98858
      vertex 27.9901 2.63641 6.97385
      vertex 3.59469 2.63641 0
    endloop
  endfacet
  facet normal 0 -1 0
    outer loop
      vertex 28.5947 2.63641 0
      vertex 28.3332 2.63641 2.98858
      vertex 3.59469 2.63641 0
    endloop
  endfacet
  facet normal -0.371204 -0.92801 -0.0316895
    outer loop
      vertex 3.36994 2.63641 2.63265
      vertex -1.40531 4.63641 0
      vertex 3.59469 2.63641 0
    endloop
  endfacet
  facet normal 0 0 -1
    outer loop
      vertex -1.40531 4.63641 0
      vertex 27.7663 4.63641 0
      vertex 3.59469 2.63641 0
    endloop
  endfacet
  facet normal 0 0 -1
    outer loop
      vertex 38.5947 12.6364 0
      vertex 29.3086 6.17873 0
      vertex 37.7663 14.6364 0
    endloop
  endfacet
  facet normal 0 0 -1
    outer loop
      vertex 29.3086 6.17873 0
      vertex 31.4367 8.30685 0
      vertex 37.7663 14.6364 0
    endloop
  endfacet
  facet normal 0 0 -1
    outer loop
      vertex 28.5947 2.63641 0
      vertex 29.3086 6.17873 0
      vertex 38.5947 12.6364 0
    endloop
  endfacet
  facet normal 0 0 -1
    outer loop
      vertex 28.5947 2.63641 0
      vertex 27.7663 4.63641 0
      vertex 29.3086 6.17873 0
    endloop
  endfacet
  facet normal 0 0 -1
    outer loop
      vertex 68.1537 14.6364 0
      vertex 38.5947 12.6364 0
      vertex 37.7663 14.6364 0
    endloop
  endfacet
  facet normal 0 0 -1
    outer loop
      vertex 3.59469 2.63641 0
      vertex 27.7663 4.63641 0
      vertex 28.5947 2.63641 0
    endloop
  endfacet
  facet normal 0 0 -1
    outer loop
      vertex 68.1537 14.6364 0
      vertex 76.5628 16.6739 0
      vertex 77.4039 14.8594 0
    endloop
  endfacet
  facet normal 0 0 -1
    outer loop
      vertex 38.5947 12.6364 0
      vertex 68.1537 14.6364 0
      vertex 77.4039 14.8594 0
    endloop
  endfacet
  facet normal 0 0 -1
    outer loop
      vertex 38.5947 12.6364 0
      vertex 77.4039 14.8594 0
      vertex 68.5947 12.6364 0
    endloop
  endfacet
  facet normal -0.705785 0.705785 -0.0611173
    outer loop
      vertex 29.3086 6.17873 0
      vertex 27.7663 4.63641 0
      vertex 29.0444 6.17873 3.0508
    endloop
  endfacet
  facet normal -0.704349 0.707107 -0.0623869
    outer loop
      vertex 27.7663 4.63641 0
      vertex 27.5079 4.63641 2.91638
      vertex 29.0444 6.17873 3.0508
    endloop
  endfacet
  facet normal -0.0871557 -8.80721e-08 0.996195
    outer loop
      vertex 29.0444 6.17873 3.0508
      vertex 27.5079 4.63641 2.91638
      vertex 28.3332 2.63641 2.98858
    endloop
  endfacet
  facet normal 0.920475 0.382683 0.0792428
    outer loop
      vertex 28.3332 2.63641 2.98858
      vertex 27.5079 4.63641 2.91638
      vertex 27.9901 2.63641 6.97385
    endloop
  endfacet
  facet normal -0.0871557 -8.68504e-08 0.996195
    outer loop
      vertex 29.0444 6.17873 3.0508
      vertex 28.3332 2.63641 2.98858
      vertex 38.2952 12.6364 3.86014
    endloop
  endfacet
  facet normal 0.705005 -0.70709 0.0547034
    outer loop
      vertex 38.2952 12.6364 3.86014
      vertex 28.3332 2.63641 2.98858
      vertex 38.5947 12.6364 0
    endloop
  endfacet
  facet normal 0.705758 -0.705758 0.0617457
    outer loop
      vertex 38.5947 12.6364 0
      vertex 28.3332 2.63641 2.98858
      vertex 28.5947 2.63641 0
    endloop
  endfacet
  facet normal 0 -1 0
    outer loop
      vertex 67.3824 12.6364 13.9198
      vertex 37.8382 12.6364 8.71034
      vertex 38.2952 12.6364 3.86014
    endloop
  endfacet
  facet normal 0 -1 0
    outer loop
      vertex 38.5947 12.6364 0
      vertex 67.3824 12.6364 13.9198
      vertex 38.2952 12.6364 3.86014
    endloop
  endfacet
  facet normal 0 -1 0
    outer loop
      vertex 38.5947 12.6364 0
      vertex 68.5947 12.6364 0
      vertex 67.3824 12.6364 13.9198
    endloop
  endfacet
  facet normal 0.244639 -0.96938 0.0213051
    outer loop
      vertex 76.0578 14.8594 15.4495
      vertex 67.3824 12.6364 13.9198
      vertex 68.5947 12.6364 0
    endloop
  endfacet
  facet normal 0.244623 -0.969384 0.0213134
    outer loop
      vertex 77.216 14.8594 2.157
      vertex 68.5947 12.6364 0
      vertex 77.4039 14.8594 0
    endloop
  endfacet
  facet normal 0.244623 -0.969384 0.0213134
    outer loop
      vertex 75.4767 14.417 2
      vertex 68.5947 12.6364 0
      vertex 77.216 14.8594 2.157
    endloop
  endfacet
  facet normal 0.244623 -0.969384 0.0213134
    outer loop
      vertex 74.5766 14.4089 11.9619
      vertex 68.5947 12.6364 0
      vertex 75.4767 14.417 2
    endloop
  endfacet
  facet normal 0.244623 -0.969384 0.0213134
    outer loop
      vertex 76.0578 14.8594 15.4495
      vertex 68.5947 12.6364 0
      vertex 74.5766 14.4089 11.9619
    endloop
  endfacet
  facet normal 0.244623 -0.969384 0.0213134
    outer loop
      vertex 74.5766 14.4089 11.9619
      vertex 76.3478 14.8594 12.1218
      vertex 76.0578 14.8594 15.4495
    endloop
  endfacet
  facet normal 0.904445 0.419249 0.0788021
    outer loop
      vertex 76.5628 16.6739 0
      vertex 76.4931 16.4236 2.13133
      vertex 77.216 14.8594 2.157
    endloop
  endfacet
  facet normal 0.904445 0.419249 0.0788021
    outer loop
      vertex 77.4039 14.8594 0
      vertex 76.5628 16.6739 0
      vertex 77.216 14.8594 2.157
    endloop
  endfacet
  facet normal 0.904455 0.419227 0.0787999
    outer loop
      vertex 76.5628 16.6739 0
      vertex 76.3775 16.6739 2.12722
      vertex 76.4931 16.4236 2.13133
    endloop
  endfacet
  facet normal -0.235451 0.97167 -0.0205134
    outer loop
      vertex 76.5628 16.6739 0
      vertex 75.1614 16.377 2.01773
      vertex 76.3775 16.6739 2.12722
    endloop
  endfacet
  facet normal -0.235437 0.971673 -0.0205032
    outer loop
      vertex 66.9481 14.6364 13.8432
      vertex 74.9331 16.3286 2.34638
      vertex 68.1537 14.6364 0
    endloop
  endfacet
  facet normal -0.235437 0.971673 -0.0205032
    outer loop
      vertex 68.1537 14.6364 0
      vertex 74.9331 16.3286 2.34638
      vertex 74.9644 16.3289 2
    endloop
  endfacet
  facet normal -0.235437 0.971673 -0.0205032
    outer loop
      vertex 68.1537 14.6364 0
      vertex 74.9644 16.3289 2
      vertex 75.1614 16.377 2.01773
    endloop
  endfacet
  facet normal -0.235437 0.971673 -0.0205032
    outer loop
      vertex 68.1537 14.6364 0
      vertex 75.1614 16.377 2.01773
      vertex 76.5628 16.6739 0
    endloop
  endfacet
  facet normal 0 1 0
    outer loop
      vertex 37.0224 14.6364 8.56648
      vertex 66.9481 14.6364 13.8432
      vertex 37.4699 14.6364 3.78794
    endloop
  endfacet
  facet normal 0 1 0
    outer loop
      vertex 37.4699 14.6364 3.78794
      vertex 66.9481 14.6364 13.8432
      vertex 68.1537 14.6364 0
    endloop
  endfacet
  facet normal 0 1 0
    outer loop
      vertex 37.4699 14.6364 3.78794
      vertex 68.1537 14.6364 0
      vertex 37.7663 14.6364 0
    endloop
  endfacet
  facet normal -0.706027 0.706027 -0.0552395
    outer loop
      vertex 37.7663 14.6364 0
      vertex 31.4367 8.30685 0
      vertex 37.4699 14.6364 3.78794
    endloop
  endfacet
  facet normal -0.704619 0.707105 -0.0592826
    outer loop
      vertex 31.4367 8.30685 0
      vertex 31.1644 8.30685 3.23628
      vertex 37.4699 14.6364 3.78794
    endloop
  endfacet
  facet normal -0.705859 0.705859 -0.0593869
    outer loop
      vertex 31.4367 8.30685 0
      vertex 29.3086 6.17873 0
      vertex 31.1644 8.30685 3.23628
    endloop
  endfacet
  facet normal -0.704471 0.707106 -0.0610035
    outer loop
      vertex 29.3086 6.17873 0
      vertex 29.0444 6.17873 3.0508
      vertex 31.1644 8.30685 3.23628
    endloop
  endfacet
  facet normal -0.0871563 7.97566e-07 0.996195
    outer loop
      vertex 31.1644 8.30685 3.23628
      vertex 29.0444 6.17873 3.0508
      vertex 38.2952 12.6364 3.86014
    endloop
  endfacet
  facet normal -0.087156 2.81943e-07 0.996195
    outer loop
      vertex 37.4699 14.6364 3.78794
      vertex 31.1644 8.30685 3.23628
      vertex 38.2952 12.6364 3.86014
    endloop
  endfacet
  facet normal -0.919857 -0.382677 -0.0861472
    outer loop
      vertex 38.2952 12.6364 3.86014
      vertex 37.0224 14.6364 8.56648
      vertex 37.4699 14.6364 3.78794
    endloop
  endfacet
  facet normal -0.920243 -0.381623 -0.0866999
    outer loop
      vertex 37.8382 12.6364 8.71034
      vertex 37.0224 14.6364 8.56648
      vertex 38.2952 12.6364 3.86014
    endloop
  endfacet
  facet normal -0.173648 6.90495e-08 0.984808
    outer loop
      vertex 66.9481 14.6364 13.8432
      vertex 37.8382 12.6364 8.71034
      vertex 67.3824 12.6364 13.9198
    endloop
  endfacet
  facet normal -0.173648 4.61956e-08 0.984808
    outer loop
      vertex 75.2295 16.6739 15.3034
      vertex 66.9481 14.6364 13.8432
      vertex 67.3824 12.6364 13.9198
    endloop
  endfacet
  facet normal -0.173648 -1.89617e-08 0.984808
    outer loop
      vertex 75.2295 16.6739 15.3034
      vertex 67.3824 12.6364 13.9198
      vertex 76.0578 14.8594 15.4495
    endloop
  endfacet
  facet normal -0.173648 2.79928e-08 0.984808
    outer loop
      vertex 66.9481 14.6364 13.8432
      vertex 37.0224 14.6364 8.56648
      vertex 37.8382 12.6364 8.71034
    endloop
  endfacet
  facet normal 0.904455 0.419227 0.0787999
    outer loop
      vertex 75.5093 16.6739 12.0921
      vertex 75.2295 16.6739 15.3034
      vertex 76.0578 14.8594 15.4495
    endloop
  endfacet
  facet normal 0.904455 0.419227 0.0787999
    outer loop
      vertex 76.1668 15.251 12.1154
      vertex 75.5093 16.6739 12.0921
      vertex 76.0578 14.8594 15.4495
    endloop
  endfacet
  facet normal 0.904445 0.419249 0.0788021
    outer loop
      vertex 76.1668 15.251 12.1154
      vertex 76.0578 14.8594 15.4495
      vertex 76.3478 14.8594 12.1218
    endloop
  endfacet
  facet normal 0.084186 0.0225576 -0.996195
    outer loop
      vertex 76.1668 15.251 12.1154
      vertex 76.3478 14.8594 12.1218
      vertex 74.5766 14.4089 11.9619
    endloop
  endfacet
  facet normal 0.084186 0.0225576 -0.996195
    outer loop
      vertex 76.1668 15.251 12.1154
      vertex 74.5766 14.4089 11.9619
      vertex 75.5093 16.6739 12.0921
    endloop
  endfacet
  facet normal 0.084186 0.0225576 -0.996195
    outer loop
      vertex 74.5766 14.4089 11.9619
      vertex 74.0642 16.321 11.9619
      vertex 75.5093 16.6739 12.0921
    endloop
  endfacet
  facet normal 0.96225 0.257834 0.0871557
    outer loop
      vertex 74.5766 14.4089 11.9619
      vertex 75.4767 14.417 2
      vertex 74.9644 16.3289 2
    endloop
  endfacet
  facet normal 0.96225 0.257834 0.0871557
    outer loop
      vertex 74.0642 16.321 11.9619
      vertex 74.5766 14.4089 11.9619
      vertex 74.9331 16.3286 2.34638
    endloop
  endfacet
  facet normal 0.96225 0.257834 0.0871557
    outer loop
      vertex 74.9331 16.3286 2.34638
      vertex 74.5766 14.4089 11.9619
      vertex 74.9644 16.3289 2
    endloop
  endfacet
  facet normal -0.084186 -0.0225576 0.996195
    outer loop
      vertex 75.1614 16.377 2.01773
      vertex 74.9644 16.3289 2
      vertex 75.4767 14.417 2
    endloop
  endfacet
  facet normal -0.084186 -0.0225576 0.996195
    outer loop
      vertex 75.4767 14.417 2
      vertex 77.216 14.8594 2.157
      vertex 76.4931 16.4236 2.13133
    endloop
  endfacet
  facet normal -0.084186 -0.0225576 0.996195
    outer loop
      vertex 76.3775 16.6739 2.12722
      vertex 75.4767 14.417 2
      vertex 76.4931 16.4236 2.13133
    endloop
  endfacet
  facet normal -0.084186 -0.0225576 0.996195
    outer loop
      vertex 76.3775 16.6739 2.12722
      vertex 75.1614 16.377 2.01773
      vertex 75.4767 14.417 2
    endloop
  endfacet
  facet normal -0.235451 0.97167 -0.0205134
    outer loop
      vertex 66.9481 14.6364 13.8432
      vertex 75.2295 16.6739 15.3034
      vertex 74.0642 16.321 11.9619
    endloop
  endfacet
  facet normal -0.235451 0.97167 -0.0205134
    outer loop
      vertex 66.9481 14.6364 13.8432
      vertex 74.0642 16.321 11.9619
      vertex 74.9331 16.3286 2.34638
    endloop
  endfacet
  facet normal -0.235451 0.97167 -0.0205134
    outer loop
      vertex 74.0642 16.321 11.9619
      vertex 75.2295 16.6739 15.3034
      vertex 75.5093 16.6739 12.0921
    endloop
  endfacet
endsolid OpenSCAD_Model
